<svg width="470" height="272" viewBox="0 0 470 272" fill="none" xmlns="http://www.w3.org/2000/svg">
<path d="M300.11 210.068C292.49 204.868 256.07 185.678 245.65 179.538C236.94 174.408 234.99 169.458 231.47 160.408C230.87 158.878 230.39 157.348 229.93 155.838C223.32 154.698 219.18 154.258 216.54 154.038C213.25 164.058 208.77 168.848 204.77 173.028C207.68 175.878 210.43 179.018 213.42 181.788C219.63 187.548 222.63 192.038 230.87 194.908C240.11 198.128 269.45 212.198 278.05 216.598C279.96 217.578 283.34 218.838 285.16 219.068C288.97 219.538 288.3 221.478 288.86 225.638C289.36 229.418 292.45 232.578 296.1 236.938L318.89 227.208C312.57 219.688 308.46 215.778 300.11 210.078V210.068Z" fill="#20151F"/>
<path d="M374.37 170.108H370.62C368.95 170.128 367.36 170.138 365.8 170.138C367.05 171.378 368.33 172.688 369.66 174.098C372.75 177.378 362.83 188.548 357.32 193.318C354.92 195.398 356.97 197.648 351.9 198.568C348.49 199.178 343.76 199.708 340.67 200.978L339.82 224.768C346.43 223.018 354.76 221.268 359.89 216.348C373.71 203.088 382.72 195.738 390.58 179.748C391.79 177.298 392.43 174.398 392.53 171.268C387.49 170.388 378.52 170.118 374.37 170.118V170.108Z" fill="#20151F"/>
<path d="M457.03 192.128C453.02 187.608 429.44 167.048 420.25 160.088C403.98 147.768 382.95 141.498 362.99 135.658C369.98 122.408 372.4 107.278 376.05 91.9679C377.39 86.3679 378.97 80.7279 381.98 75.8079C384.99 70.8879 390.16 66.7779 395.35 65.2479C413 60.0379 406.06 66.8779 434.44 69.7179C437.93 70.0679 440 73.8479 443.5 74.1279C452.03 74.8179 454.78 65.9679 455.52 59.0879C455.95 55.0479 450.44 53.4079 447.82 50.2979C440.38 41.4679 432.91 36.4579 426.29 27.4079C417.23 15.0179 403.62 13.3579 389.04 8.27794C385.07 4.03794 379.58 0.687939 373.81 0.00793883C373.06 -0.0820612 372.46 0.607939 372.65 1.32794C373.16 3.22794 373.99 5.03794 375.08 6.66794C371.75 6.63794 368.4 6.95794 365.44 8.41794C358.71 11.7579 352.63 19.0579 345.41 21.1179C346.84 21.8279 349.4 21.8479 350.29 21.9279C345.69 26.9179 338.5 28.2679 332.02 30.2779C322.09 33.3679 318.95 35.7179 311.2 42.6579C319.97 41.3879 324.35 41.7379 326.96 41.6579C322.98 45.9579 317.96 49.2779 312.44 51.2579C315.4 53.6679 319.56 55.2479 323.54 55.8479C323.54 55.8479 314.81 62.9779 311.55 64.7979C303.31 69.3979 292.98 69.7379 283.48 70.1879C254.3 71.5779 225.29 65.3079 196.08 64.5679C175.7 64.0579 156.74 69.8279 143.95 85.3179C110.79 74.7479 67.61 86.6879 42.33 112.068C37.48 116.948 33.09 122.338 28.33 127.318C19.91 136.138 10.34 143.658 0 149.578C6.1 155.268 27.78 150.298 35.55 147.618C37.44 146.968 39.29 146.228 41.11 145.428C38.85 148.478 36.26 151.288 33.35 153.728C43.44 150.838 52.89 145.988 61.3 139.708C77.59 127.548 82.87 113.848 97.43 106.808C112.28 99.6179 124.33 96.2879 137.19 96.6979C133.62 105.758 133.1 116.088 135.26 125.658C137.99 137.778 141.17 146.608 148.95 155.528C151.98 159.398 156.82 164.548 157.91 168.908C159.27 174.348 156.91 177.888 151.42 187.028C148.5 191.898 142.15 200.688 143.07 206.518C143.83 211.308 160.97 237.378 168.85 248.398C170.25 250.348 171.64 250.378 172.44 251.178C173.92 252.648 176.09 253.448 174.6 260.378C173.82 263.998 175.87 268.448 177.58 271.438H201.5C201.71 263.628 193.49 254.158 189.14 247.768C183.5 239.478 165.78 207.298 166.1 203.628C166.46 199.518 171 196.088 174.01 193.408C182.93 185.458 194.06 179.518 202.55 170.948C202.56 170.958 202.58 170.968 202.59 170.988C206.65 166.748 210.82 162.288 213.93 152.378C214.21 151.478 215.09 150.938 216.06 150.998C218.72 151.198 223.12 151.618 230.56 152.908C233.3 153.378 236.86 154.118 240.74 155.008C248.77 156.758 256.73 158.828 264.59 161.228C280.16 165.978 296.49 169.128 312.69 167.528C318.06 166.998 323.42 165.888 328.57 164.208C340.18 165.938 350.22 166.718 358.91 167.088C362.66 167.158 366.43 167.148 370.62 167.128C370.62 167.128 386.26 166.918 393.34 168.358C396.23 168.948 398.77 169.478 400.88 170.568C412.41 176.528 425.57 189.588 432.62 195.198C435.17 197.228 436.23 197.038 437.51 197.638C443.38 200.388 440.79 203.488 441.45 207.088C442.65 213.708 445.86 218.658 445.86 218.658L469.71 212.488C468.07 204.488 460.83 196.428 457.03 192.138V192.128Z" fill="#20151F"/>
</svg>
