<svg width="156" height="40" viewBox="0 0 156 40" fill="none" xmlns="http://www.w3.org/2000/svg">
<path d="M0.0800781 13.388V0.0949504H5.28337C6.05563 0.0949504 6.75194 0.278522 7.37228 0.645664C8.00528 1.00015 8.50535 1.48756 8.8725 2.1079C9.23964 2.72825 9.42321 3.43088 9.42321 4.2158C9.42321 4.95009 9.24597 5.61474 8.89149 6.20976C8.53701 6.80479 8.05592 7.27954 7.44824 7.63402C6.84056 7.97584 6.15691 8.14676 5.39731 8.14676H1.56131V13.388H0.0800781ZM8.18885 13.388L4.84659 7.53907L6.27085 7.04533L9.95493 13.388H8.18885ZM1.56131 6.70351H5.53024C5.99866 6.70351 6.41011 6.5959 6.7646 6.38068C7.11908 6.16545 7.3976 5.87427 7.60016 5.50713C7.80272 5.12733 7.904 4.69689 7.904 4.2158C7.904 3.69674 7.78373 3.23465 7.54319 2.82953C7.30265 2.4244 6.96716 2.1079 6.53671 1.88002C6.11893 1.65214 5.63785 1.5382 5.09347 1.5382H1.56131V6.70351Z" fill="#F8F9FF"/>
<path d="M14.7054 13.388V0.0949504H22.7572V1.5382H16.1867V11.9448H22.7193V13.388H14.7054ZM15.3891 7.27321V5.82996H21.6938V7.27321H15.3891Z" fill="#F8F9FF"/>
<path d="M26.6812 13.388L31.7706 0.0949504H33.4607L38.512 13.388H36.8979L33.6506 4.76652C33.562 4.52598 33.4607 4.24745 33.3467 3.93095C33.2455 3.60179 33.1315 3.2663 33.0049 2.92448C32.891 2.56999 32.777 2.22817 32.6631 1.89901C32.5618 1.56985 32.4669 1.27867 32.3782 1.02547H32.758C32.6568 1.34197 32.5492 1.6648 32.4352 1.99396C32.3339 2.31046 32.2263 2.63329 32.1124 2.96246C31.9984 3.27896 31.8845 3.59546 31.7706 3.91196C31.6566 4.22846 31.5427 4.54497 31.4287 4.86147L28.2004 13.388H26.6812ZM28.8461 9.72293L29.3968 8.27969H35.6825L36.2902 9.72293H28.8461Z" fill="#F8F9FF"/>
<path d="M48.1651 13.5779C47.2156 13.5779 46.3421 13.4133 45.5445 13.0842C44.7469 12.7424 44.0569 12.2676 43.4745 11.6599C42.8922 11.0396 42.4364 10.3116 42.1073 9.47606C41.7908 8.6405 41.6325 7.72897 41.6325 6.74149C41.6325 5.76666 41.7908 4.87413 42.1073 4.06388C42.4364 3.24098 42.8985 2.52568 43.4935 1.918C44.0886 1.29766 44.7785 0.822904 45.5635 0.493743C46.3484 0.164581 47.2093 0 48.1461 0C48.7665 0 49.3805 0.101281 49.9882 0.303842C50.5958 0.493743 51.1529 0.759605 51.6593 1.10143C52.1783 1.44325 52.6025 1.83571 52.9316 2.27881L51.9062 3.34226C51.5897 2.96246 51.2225 2.63329 50.8047 2.35477C50.3996 2.07625 49.9692 1.86103 49.5134 1.70911C49.0576 1.55719 48.6019 1.48123 48.1461 1.48123C47.4371 1.48123 46.7725 1.61416 46.1522 1.88002C45.5445 2.13322 45.0191 2.49403 44.576 2.96246C44.1329 3.43088 43.7847 3.98792 43.5315 4.63359C43.291 5.27925 43.1707 5.98188 43.1707 6.74149C43.1707 7.52641 43.291 8.24804 43.5315 8.90636C43.7847 9.56468 44.1392 10.1344 44.595 10.6155C45.0634 11.0839 45.6078 11.451 46.2281 11.7169C46.8611 11.9701 47.5637 12.0967 48.336 12.0967C48.7918 12.0967 49.2475 12.0334 49.7033 11.9068C50.1591 11.7675 50.5768 11.5776 50.9566 11.3371C51.3364 11.0966 51.6593 10.8244 51.9251 10.5205L52.6847 11.7549C52.3936 12.1094 52.0011 12.4259 51.5074 12.7044C51.0263 12.9702 50.4946 13.1855 49.9122 13.35C49.3298 13.502 48.7475 13.5779 48.1651 13.5779Z" fill="#F8F9FF"/>
<path d="M59.9918 13.388V1.5382H56.1938V0.0949504H65.423V1.5382H61.473V13.388H59.9918Z" fill="#F8F9FF"/>
<path d="M77.4284 13.388V0.0949504H78.7767L87.4742 11.603L87.2083 11.9448C87.1703 11.7422 87.1387 11.4384 87.1134 11.0333C87.1007 10.6281 87.0817 10.1724 87.0564 9.66596C87.0437 9.1469 87.0311 8.60885 87.0184 8.0518C87.0058 7.49476 86.9931 6.95038 86.9804 6.41866C86.9804 5.88693 86.9804 5.40585 86.9804 4.97541V0.0949504H88.4617V13.388H87.0754L78.4159 2.03194L78.6438 1.63315C78.6818 2.13955 78.7134 2.63962 78.7387 3.13337C78.7767 3.62711 78.802 4.10186 78.8147 4.55763C78.84 5.01339 78.859 5.43117 78.8717 5.81097C78.8843 6.19077 78.8906 6.51361 78.8906 6.77947C78.9033 7.04533 78.9096 7.23523 78.9096 7.34917V13.388H77.4284Z" fill="#F8F9FF"/>
<path d="M92.9834 13.388L98.0727 0.0949504H99.7628L104.814 13.388H103.2L99.9528 4.76652C99.8641 4.52598 99.7628 4.24745 99.6489 3.93095C99.5476 3.60179 99.4337 3.2663 99.3071 2.92448C99.1931 2.56999 99.0792 2.22817 98.9653 1.89901C98.864 1.56985 98.769 1.27867 98.6804 1.02547H99.0602C98.9589 1.34197 98.8513 1.6648 98.7374 1.99396C98.6361 2.31046 98.5285 2.63329 98.4146 2.96246C98.3006 3.27896 98.1867 3.59546 98.0727 3.91196C97.9588 4.22846 97.8448 4.54497 97.7309 4.86147L94.5026 13.388H92.9834ZM95.1483 9.72293L95.699 8.27969H101.985L102.592 9.72293H95.1483Z" fill="#F8F9FF"/>
<path d="M110.797 13.388V1.5382H106.999V0.0949504H116.228V1.5382H112.278V13.388H110.797Z" fill="#F8F9FF"/>
<path d="M120.196 13.388V11.9828H122.341V1.50022H120.196V0.0949504H125.969V1.50022H123.823V11.9828H125.969V13.388H120.196Z" fill="#F8F9FF"/>
<path d="M135.014 13.388L129.868 0.0949504H131.539L134.843 8.75444C134.995 9.1469 135.128 9.49505 135.242 9.79889C135.356 10.1027 135.457 10.3939 135.546 10.6724C135.647 10.9383 135.742 11.2042 135.831 11.47C135.919 11.7359 136.014 12.0271 136.116 12.3436L135.622 12.3626C135.749 11.9321 135.869 11.5333 135.983 11.1662C136.109 10.799 136.236 10.4256 136.363 10.0458C136.502 9.6533 136.673 9.19754 136.875 8.67848L140.161 0.0949504H141.832L136.533 13.388H135.014Z" fill="#F8F9FF"/>
<path d="M146.345 13.388V0.0949504H154.397V1.5382H147.827V11.9448H154.359V13.388H146.345ZM147.029 7.27321V5.82996H153.334V7.27321H147.029Z" fill="#F8F9FF"/>
<path d="M0.40291 39.7152V21.5883H8.56002C9.71669 21.5883 10.7612 21.8386 11.6934 22.3393C12.6429 22.8399 13.3852 23.5305 13.9204 24.4109C14.4556 25.2741 14.7232 26.2581 14.7232 27.363C14.7232 28.5024 14.4556 29.5296 13.9204 30.4446C13.3852 31.3423 12.6515 32.0501 11.7193 32.568C10.787 33.0859 9.73396 33.3449 8.56002 33.3449H4.598V39.7152H0.40291ZM10.4504 39.7152L5.84099 31.5322L10.3468 30.8848L15.4741 39.7152H10.4504ZM4.598 29.9785H8.17159C8.62045 29.9785 9.00888 29.8835 9.33689 29.6936C9.68217 29.4865 9.94112 29.2016 10.1138 28.8391C10.3037 28.4765 10.3986 28.0622 10.3986 27.5961C10.3986 27.13 10.295 26.7243 10.0879 26.379C9.8807 26.0164 9.57858 25.7402 9.18152 25.5503C8.80172 25.3604 8.3356 25.2655 7.78316 25.2655H4.598V29.9785Z" fill="#F8F9FF"/>
<path d="M24.1911 39.9742C22.6718 39.9742 21.3512 39.6721 20.229 39.0678C19.1069 38.4463 18.2351 37.609 17.6136 36.556C16.9921 35.4856 16.6813 34.2685 16.6813 32.9047C16.6813 31.8516 16.854 30.8848 17.1992 30.0044C17.5445 29.1239 18.0279 28.3643 18.6494 27.7256C19.2709 27.0695 20.0046 26.5689 20.8505 26.2236C21.7137 25.8611 22.6546 25.6798 23.6731 25.6798C24.6399 25.6798 25.5204 25.8524 26.3145 26.1977C27.1259 26.543 27.8251 27.0264 28.412 27.6479C28.999 28.2694 29.4479 29.0031 29.7586 29.849C30.0694 30.6949 30.2075 31.6185 30.1729 32.6198L30.147 33.7333H19.1932L18.5976 31.4027H26.7806L26.3404 31.8947V31.3768C26.3059 30.9452 26.1677 30.5654 25.9261 30.2374C25.7016 29.8921 25.3995 29.6246 25.0197 29.4347C24.6399 29.2448 24.2083 29.1498 23.7249 29.1498C23.0516 29.1498 22.4733 29.2879 21.9899 29.5641C21.5238 29.8231 21.1699 30.2115 20.9282 30.7294C20.6865 31.2301 20.5657 31.8516 20.5657 32.5939C20.5657 33.3535 20.721 34.0182 21.0318 34.5879C21.3598 35.1403 21.8259 35.5719 22.4302 35.8827C23.0516 36.1934 23.7854 36.3488 24.6313 36.3488C25.2182 36.3488 25.7362 36.2625 26.185 36.0898C26.6511 35.9172 27.1518 35.6237 27.687 35.2094L29.6291 37.9543C29.094 38.4204 28.5243 38.8002 27.92 39.0937C27.3158 39.3872 26.6943 39.603 26.0555 39.7411C25.434 39.8965 24.8125 39.9742 24.1911 39.9742Z" fill="#F8F9FF"/>
<path d="M37.8882 39.9483C36.7315 39.9483 35.6957 39.6462 34.7807 39.0419C33.883 38.4204 33.1666 37.5745 32.6314 36.5042C32.0962 35.4165 31.8286 34.1908 31.8286 32.827C31.8286 31.4286 32.0962 30.1943 32.6314 29.1239C33.1666 28.0536 33.9003 27.2163 34.8325 26.612C35.7648 25.9905 36.8265 25.6798 38.0177 25.6798C38.6737 25.6798 39.2693 25.7747 39.8045 25.9647C40.3569 26.1546 40.8403 26.4221 41.2546 26.7674C41.669 27.0954 42.0229 27.4839 42.3164 27.9327C42.6098 28.3643 42.8256 28.8304 42.9637 29.3311L42.1092 29.2275V25.9647H46.2266V39.7152H42.0315V36.4006L42.9637 36.3747C42.8256 36.8581 42.6012 37.3156 42.2905 37.7471C41.9797 38.1787 41.5999 38.5585 41.151 38.8866C40.7022 39.2146 40.2015 39.4735 39.6491 39.6634C39.0967 39.8533 38.5097 39.9483 37.8882 39.9483ZM39.0276 36.4524C39.6664 36.4524 40.2188 36.3056 40.6849 36.0121C41.1511 35.7187 41.5136 35.3043 41.7725 34.7692C42.0315 34.2167 42.161 33.5693 42.161 32.827C42.161 32.0846 42.0315 31.4459 41.7725 30.9107C41.5136 30.3583 41.1511 29.9353 40.6849 29.6418C40.2188 29.3311 39.6664 29.1757 39.0276 29.1757C38.4061 29.1757 37.8623 29.3311 37.3962 29.6418C36.9473 29.9353 36.5934 30.3583 36.3345 30.9107C36.0755 31.4459 35.946 32.0846 35.946 32.827C35.946 33.5693 36.0755 34.2167 36.3345 34.7692C36.5934 35.3043 36.9473 35.7187 37.3962 36.0121C37.8623 36.3056 38.4061 36.4524 39.0276 36.4524Z" fill="#F8F9FF"/>
<path d="M49.8825 39.7152V25.9647H53.8186L53.9481 28.7614L53.1195 29.0721C53.3094 28.4506 53.646 27.8896 54.1294 27.3889C54.63 26.871 55.2256 26.4567 55.9162 26.1459C56.6067 25.8352 57.3318 25.6798 58.0914 25.6798C59.1272 25.6798 59.9991 25.8956 60.7069 26.3272C61.4147 26.7415 61.9499 27.3716 62.3124 28.2176C62.6749 29.0462 62.8562 30.0648 62.8562 31.2732V39.7152H58.687V31.6099C58.687 31.0575 58.6093 30.6 58.454 30.2374C58.2986 29.8749 58.0569 29.6073 57.7289 29.4347C57.4181 29.2448 57.0297 29.1584 56.5636 29.1757C56.201 29.1757 55.8644 29.2361 55.5537 29.357C55.2429 29.4606 54.9753 29.6246 54.7509 29.849C54.5265 30.0562 54.3452 30.2978 54.2071 30.5741C54.0862 30.8503 54.0258 31.1524 54.0258 31.4804V39.7152H51.9801C51.4967 39.7152 51.0823 39.7152 50.7371 39.7152C50.3918 39.7152 50.1069 39.7152 49.8825 39.7152Z" fill="#F8F9FF"/>
<path d="M66.5532 39.7152V25.9647H70.6965V39.7152H66.5532ZM68.6249 23.2456C67.848 23.2456 67.2351 23.0643 66.7863 22.7018C66.3547 22.322 66.1389 21.7868 66.1389 21.0963C66.1389 20.4748 66.3633 19.9655 66.8122 19.5684C67.261 19.1714 67.8653 18.9728 68.6249 18.9728C69.4017 18.9728 70.006 19.1627 70.4376 19.5425C70.8691 19.9051 71.0849 20.423 71.0849 21.0963C71.0849 21.735 70.8605 22.2529 70.4117 22.65C69.9801 23.0471 69.3845 23.2456 68.6249 23.2456Z" fill="#F8F9FF"/>
<path d="M74.5637 39.7152V25.9647H78.4998L78.6293 28.4506L78.0855 28.4765C78.2926 28.0277 78.5516 27.6306 78.8623 27.2853C79.1903 26.9401 79.5529 26.6552 79.9499 26.4308C80.3643 26.1891 80.7872 26.0078 81.2188 25.887C81.6677 25.7661 82.1165 25.7057 82.5654 25.7057C83.2387 25.7057 83.8515 25.8093 84.404 26.0164C84.9564 26.2236 85.4398 26.5603 85.8541 27.0264C86.2685 27.4752 86.5965 28.0881 86.8382 28.865L86.1908 28.8132L86.3979 28.3988C86.6224 27.9845 86.9072 27.6133 87.2525 27.2853C87.615 26.9401 88.0121 26.6552 88.4437 26.4308C88.8753 26.1891 89.3241 26.0078 89.7903 25.887C90.2564 25.7661 90.7052 25.7057 91.1368 25.7057C92.2245 25.7057 93.1308 25.9215 93.8559 26.3531C94.5809 26.7674 95.1248 27.3975 95.4873 28.2435C95.8671 29.0894 96.057 30.1166 96.057 31.325V39.7152H91.8878V31.6617C91.8878 31.1092 91.8101 30.6518 91.6548 30.2892C91.4994 29.9267 91.2663 29.6591 90.9556 29.4865C90.6621 29.2966 90.2909 29.2016 89.8421 29.2016C89.4795 29.2016 89.1429 29.262 88.8321 29.3829C88.5386 29.5037 88.2797 29.6677 88.0553 29.8749C87.8481 30.0821 87.6841 30.3237 87.5632 30.6C87.4424 30.8762 87.382 31.1869 87.382 31.5322V39.7152H83.2128V31.6358C83.2128 31.1179 83.1351 30.6776 82.9797 30.3151C82.8243 29.9526 82.5913 29.6764 82.2805 29.4865C81.9698 29.2966 81.6073 29.2016 81.1929 29.2016C80.8304 29.2016 80.4937 29.262 80.183 29.3829C79.8895 29.5037 79.6306 29.6677 79.4061 29.8749C79.199 30.0821 79.035 30.3237 78.9141 30.6C78.7933 30.8762 78.7328 31.1783 78.7328 31.5063V39.7152H74.5637Z" fill="#F8F9FF"/>
<path d="M104.574 39.9483C103.418 39.9483 102.382 39.6462 101.467 39.0419C100.569 38.4204 99.8528 37.5745 99.3176 36.5042C98.7824 35.4165 98.5149 34.1908 98.5149 32.827C98.5149 31.4286 98.7824 30.1943 99.3176 29.1239C99.8528 28.0536 100.587 27.2163 101.519 26.612C102.451 25.9905 103.513 25.6798 104.704 25.6798C105.36 25.6798 105.956 25.7747 106.491 25.9647C107.043 26.1546 107.527 26.4221 107.941 26.7674C108.355 27.0954 108.709 27.4839 109.003 27.9327C109.296 28.3643 109.512 28.8304 109.65 29.3311L108.795 29.2275V25.9647H112.913V39.7152H108.718V36.4006L109.65 36.3747C109.512 36.8581 109.287 37.3156 108.977 37.7471C108.666 38.1787 108.286 38.5585 107.837 38.8866C107.388 39.2146 106.888 39.4735 106.335 39.6634C105.783 39.8533 105.196 39.9483 104.574 39.9483ZM105.714 36.4524C106.353 36.4524 106.905 36.3056 107.371 36.0121C107.837 35.7187 108.2 35.3043 108.459 34.7692C108.718 34.2167 108.847 33.5693 108.847 32.827C108.847 32.0846 108.718 31.4459 108.459 30.9107C108.2 30.3583 107.837 29.9353 107.371 29.6418C106.905 29.3311 106.353 29.1757 105.714 29.1757C105.092 29.1757 104.549 29.3311 104.082 29.6418C103.634 29.9353 103.28 30.3583 103.021 30.9107C102.762 31.4459 102.632 32.0846 102.632 32.827C102.632 33.5693 102.762 34.2167 103.021 34.7692C103.28 35.3043 103.634 35.7187 104.082 36.0121C104.549 36.3056 105.092 36.4524 105.714 36.4524Z" fill="#F8F9FF"/>
<path d="M117.708 39.7152V22.4946H121.851V39.7152H117.708ZM115.274 29.59V25.9647H124.519V29.59H115.274Z" fill="#F8F9FF"/>
<path d="M133.312 39.9742C131.792 39.9742 130.472 39.6721 129.35 39.0678C128.227 38.4463 127.356 37.609 126.734 36.556C126.113 35.4856 125.802 34.2685 125.802 32.9047C125.802 31.8516 125.975 30.8848 126.32 30.0044C126.665 29.1239 127.149 28.3643 127.77 27.7256C128.391 27.0695 129.125 26.5689 129.971 26.2236C130.834 25.8611 131.775 25.6798 132.794 25.6798C133.761 25.6798 134.641 25.8524 135.435 26.1977C136.246 26.543 136.946 27.0264 137.533 27.6479C138.12 28.2694 138.568 29.0031 138.879 29.849C139.19 30.6949 139.328 31.6185 139.294 32.6198L139.268 33.7333H128.314L127.718 31.4027H135.901L135.461 31.8947V31.3768C135.426 30.9452 135.288 30.5654 135.047 30.2374C134.822 29.8921 134.52 29.6246 134.14 29.4347C133.761 29.2448 133.329 29.1498 132.846 29.1498C132.172 29.1498 131.594 29.2879 131.111 29.5641C130.644 29.8231 130.291 30.2115 130.049 30.7294C129.807 31.2301 129.686 31.8516 129.686 32.5939C129.686 33.3535 129.842 34.0182 130.152 34.5879C130.48 35.1403 130.947 35.5719 131.551 35.8827C132.172 36.1934 132.906 36.3488 133.752 36.3488C134.339 36.3488 134.857 36.2625 135.306 36.0898C135.772 35.9172 136.272 35.6237 136.808 35.2094L138.75 37.9543C138.215 38.4204 137.645 38.8002 137.041 39.0937C136.436 39.3872 135.815 39.603 135.176 39.7411C134.555 39.8965 133.933 39.9742 133.312 39.9742Z" fill="#F8F9FF"/>
<path d="M147.138 40.0001C145.947 40.0001 144.885 39.6979 143.953 39.0937C143.038 38.4722 142.313 37.6263 141.778 36.556C141.243 35.4683 140.975 34.234 140.975 32.8529C140.975 31.4718 141.243 30.2461 141.778 29.1757C142.313 28.0881 143.047 27.2335 143.979 26.612C144.911 25.9905 145.982 25.6798 147.19 25.6798C147.812 25.6798 148.407 25.7747 148.977 25.9647C149.547 26.1546 150.064 26.4135 150.531 26.7415C150.997 27.0695 151.377 27.4493 151.67 27.8809C151.964 28.2953 152.136 28.7268 152.188 29.1757L151.204 29.4088V20.5525H155.373V39.7152H151.515L151.282 36.5818L152.11 36.7113C152.058 37.1429 151.886 37.5572 151.592 37.9543C151.316 38.3514 150.954 38.7053 150.505 39.016C150.056 39.3095 149.538 39.5426 148.951 39.7152C148.381 39.9051 147.777 40.0001 147.138 40.0001ZM148.2 36.556C148.839 36.556 149.391 36.4006 149.857 36.0898C150.323 35.7791 150.677 35.3475 150.919 34.7951C151.178 34.2426 151.307 33.5952 151.307 32.8529C151.307 32.0933 151.178 31.4373 150.919 30.8848C150.677 30.3324 150.323 29.9008 149.857 29.59C149.391 29.2793 148.839 29.1239 148.2 29.1239C147.561 29.1239 147.009 29.2793 146.543 29.59C146.094 29.9008 145.74 30.3324 145.481 30.8848C145.222 31.4373 145.093 32.0933 145.093 32.8529C145.093 33.5952 145.222 34.2426 145.481 34.7951C145.74 35.3475 146.094 35.7791 146.543 36.0898C147.009 36.4006 147.561 36.556 148.2 36.556Z" fill="#F8F9FF"/>
</svg>
