<!DOCTYPE svg PUBLIC "-//W3C//DTD SVG 20010904//EN" "http://www.w3.org/TR/2001/REC-SVG-20010904/DTD/svg10.dtd">
<svg version="1.0" xmlns="http://www.w3.org/2000/svg" width="550px" height="454px" viewBox="0 0 5500 4540" preserveAspectRatio="xMidYMid meet">
<g id="layer101" fill="#000000" stroke="none">
 <path d="M1670 4275 c-88 -25 -141 -55 -201 -114 -128 -128 -190 -354 -175 -641 7 -133 29 -300 50 -381 7 -27 10 -51 6 -54 -4 -2 -51 -20 -106 -40 -349 -126 -606 -310 -701 -502 -33 -67 -38 -85 -41 -169 -5 -110 6 -163 54 -250 102 -187 363 -361 724 -485 52 -18 97 -34 98 -35 2 -1 -5 -43 -17 -91 -28 -122 -48 -230 -62 -346 -15 -128 -7 -378 16 -477 46 -198 155 -335 313 -392 86 -31 230 -29 345 6 195 58 418 197 625 388 40 38 77 68 81 68 4 0 25 -18 46 -40 51 -52 224 -190 317 -253 98 -65 257 -142 347 -166 275 -76 489 10 599 240 59 122 77 219 76 419 0 174 -17 316 -59 504 -13 56 -22 102 -20 104 2 2 55 19 119 38 458 136 764 343 863 584 31 75 32 214 2 302 -78 233 -396 456 -829 583 -69 21 -127 39 -128 40 -2 2 7 64 20 137 19 112 23 167 23 348 0 194 -2 223 -23 294 -69 239 -188 354 -401 388 -227 36 -585 -135 -883 -420 l-66 -64 -92 81 c-232 205 -447 335 -635 386 -88 24 -218 28 -285 10z m259 -226 c81 -26 178 -74 267 -135 88 -59 237 -180 289 -233 l39 -41 -22 -23 c-17 -17 -25 -19 -31 -9 -10 17 -22 2 -44 -58 -10 -25 -53 -90 -97 -145 -44 -55 -91 -113 -103 -129 -22 -28 -29 -30 -172 -47 -83 -10 -220 -32 -306 -49 -86 -16 -163 -30 -171 -30 -17 0 -48 132 -69 298 -16 126 -7 318 20 402 64 203 188 264 400 199z m1757 0 c130 -61 191 -270 165 -563 -14 -167 -39 -306 -56 -312 -7 -3 -66 4 -131 16 -66 12 -211 32 -323 45 -154 17 -206 26 -212 38 -11 19 -229 289 -271 335 l-32 35 50 44 c165 147 307 249 432 312 163 81 278 96 378 50z m-960 -619 c22 -25 62 -71 88 -102 l48 -58 -161 0 -161 0 0 28 c0 21 18 50 66 106 37 42 69 76 73 74 4 -2 25 -23 47 -48z m162 -376 l143 -6 93 -142 c119 -179 196 -314 196 -342 0 -12 -9 -66 -19 -120 -11 -54 -48 -241 -81 -415 -37 -190 -69 -329 -80 -346 -18 -30 -18 -30 -141 -36 -68 -4 -126 -4 -130 0 -7 8 -261 1261 -274 1355 l-7 47 58 3 c32 2 67 4 78 6 12 1 85 0 164 -4z m-416 -31 c3 -16 58 -289 122 -608 63 -319 124 -622 134 -673 11 -55 15 -95 10 -99 -13 -7 -430 12 -488 23 -27 5 -86 89 -180 256 l-47 83 145 425 c79 234 158 466 175 517 32 96 35 98 98 102 22 1 28 -4 31 -26z m1053 -24 c189 -27 209 -32 213 -51 7 -36 -132 -413 -148 -403 -4 3 -20 28 -35 57 -28 53 -195 334 -236 396 l-22 34 44 -6 c24 -4 107 -15 184 -27z m-1488 4 c-3 -5 -36 -60 -74 -123 -39 -63 -98 -166 -132 -227 -35 -62 -65 -113 -67 -113 -16 0 -148 380 -136 392 9 9 339 73 395 77 10 0 16 -2 14 -6z m2065 -137 c186 -61 322 -123 437 -200 142 -94 224 -194 233 -281 l3 -30 -500 -3 c-275 -1 -505 0 -512 2 -8 3 2 37 30 103 24 55 69 179 102 276 33 97 63 177 67 177 5 0 68 -20 140 -44z m-2658 -83 c15 -49 51 -151 81 -228 30 -77 52 -142 49 -145 -6 -5 -847 -1 -852 5 -10 10 50 98 102 150 71 70 138 116 262 179 93 48 287 125 315 126 11 0 23 -26 43 -87z m668 -160 c-73 -217 -149 -429 -160 -449 -9 -15 -15 -8 -42 47 l-32 65 69 135 c84 161 203 363 210 356 2 -3 -18 -72 -45 -154z m1341 -288 l27 -55 -68 -132 c-37 -72 -68 -125 -70 -116 -3 13 49 289 64 341 9 28 18 20 47 -38z m-2257 -45 l444 0 -16 -37 c-33 -75 -139 -340 -157 -390 l-17 -52 -98 34 c-315 107 -539 251 -612 394 -24 48 -25 65 -4 57 9 -3 216 -6 460 -6z m3544 -66 c0 -27 -138 -155 -223 -208 -101 -63 -260 -133 -417 -185 -154 -50 -190 -58 -190 -41 0 18 -94 264 -136 356 -19 41 -34 79 -34 85 0 5 193 9 500 9 457 0 500 -1 500 -16z m-2941 -261 c16 -32 52 -98 81 -147 28 -50 52 -94 53 -100 1 -6 -11 -9 -28 -8 -38 4 -228 43 -237 48 -10 6 86 264 98 264 2 0 17 -26 33 -57z m1844 -63 c58 -149 62 -167 40 -174 -33 -11 -259 -42 -271 -38 -9 3 -7 11 6 30 11 15 45 74 77 132 74 134 96 172 101 168 1 -2 23 -55 47 -118z m-1913 -380 c58 -12 166 -30 240 -41 74 -11 135 -21 135 -22 22 -42 215 -293 365 -475 l51 -63 -60 -56 c-144 -133 -311 -251 -434 -308 -355 -164 -543 0 -524 455 9 205 74 530 106 530 9 0 63 -9 121 -20z m2044 -22 c46 -167 76 -368 76 -526 0 -162 -15 -247 -59 -334 -76 -150 -201 -183 -402 -106 -75 28 -209 103 -274 153 -31 23 -32 27 -24 62 4 21 33 173 64 338 31 165 61 312 67 328 12 32 12 32 183 52 72 8 177 24 235 34 58 10 110 19 116 20 7 1 15 -9 18 -21z m-988 -85 c7 -7 18 -45 24 -85 14 -84 15 -83 -74 -183 -56 -63 -59 -65 -75 -48 -85 94 -261 314 -261 327 0 13 372 2 386 -11z m259 -280 c-4 -21 -12 -68 -19 -105 -6 -37 -14 -69 -18 -73 -3 -3 -12 25 -18 63 -13 70 -13 70 16 111 36 51 48 52 39 4z m-151 -220 c3 -24 3 -43 -1 -43 -4 0 -20 12 -35 27 l-28 27 22 23 c26 28 33 22 42 -34z"/>
 </g>
<g id="layer102" fill="#433e10" stroke="none">
 <path d="M1670 4275 c-89 -25 -141 -55 -200 -114 -52 -53 -109 -145 -125 -201 -3 -14 12 11 33 55 198 396 668 337 1208 -151 l93 -84 63 59 c319 299 639 457 887 436 l56 -4 -55 10 c-216 41 -585 -134 -882 -419 l-66 -64 -92 81 c-232 205 -447 335 -635 386 -88 24 -218 28 -285 10z"/>
 <path d="M3806 4212 c66 -43 133 -114 159 -168 9 -20 19 -33 22 -31 10 10 -51 100 -101 149 -28 27 -68 59 -88 69 -59 30 -56 22 8 -19z"/>
 <path d="M1699 4074 c-58 -17 -124 -80 -152 -142 -27 -62 -47 -140 -46 -177 1 -20 4 -13 10 22 21 125 78 224 155 269 111 65 316 14 530 -132 88 -59 237 -180 289 -233 l39 -41 -22 -23 c-17 -17 -25 -19 -31 -9 -10 17 -22 2 -44 -58 -10 -25 -53 -90 -97 -145 -44 -55 -91 -113 -103 -129 -22 -28 -29 -30 -172 -47 -83 -10 -220 -32 -306 -49 -86 -16 -163 -30 -171 -30 -17 0 -40 94 -63 249 -10 67 -13 76 -13 41 -1 -45 42 -297 52 -308 3 -3 50 4 103 16 126 28 298 57 440 73 l113 13 91 118 c50 65 95 120 99 123 5 3 -4 -32 -20 -77 -15 -46 -60 -177 -100 -293 -60 -175 -82 -226 -134 -310 -117 -187 -276 -481 -276 -510 0 -9 16 -47 36 -86 19 -39 33 -73 31 -76 -3 -2 -26 27 -51 66 -25 39 -66 103 -91 141 l-46 70 -73 0 -73 0 -26 58 c-37 82 -44 99 -103 272 -47 136 -56 155 -74 153 -41 -5 -218 -77 -330 -134 -184 -94 -317 -209 -351 -303 l-12 -33 -95 -6 c-53 -4 -97 -5 -99 -4 -1 2 4 29 12 59 51 198 256 378 595 521 58 24 137 54 175 67 39 12 71 24 73 25 1 1 -7 46 -19 101 -11 54 -26 144 -33 199 -8 55 -14 83 -15 63 -1 -45 25 -230 43 -299 7 -27 10 -51 6 -54 -4 -2 -51 -20 -106 -40 -349 -126 -606 -310 -701 -502 -33 -67 -38 -85 -41 -169 -5 -110 6 -163 54 -250 102 -187 363 -361 724 -485 52 -18 97 -34 98 -35 2 -1 -5 -43 -17 -91 -28 -122 -48 -230 -62 -346 -15 -128 -7 -378 16 -477 46 -198 155 -335 313 -392 86 -31 230 -29 345 6 195 58 418 197 625 388 40 38 77 68 81 68 4 0 25 -18 46 -40 51 -52 224 -190 317 -253 98 -65 257 -142 347 -166 275 -76 489 10 599 240 59 122 77 219 76 419 0 174 -17 316 -59 504 -13 56 -22 102 -20 104 2 2 55 19 119 38 458 136 764 343 863 584 31 75 32 214 2 302 -56 167 -230 327 -494 453 -130 63 -300 128 -317 123 -5 -2 17 -12 49 -23 249 -82 484 -215 615 -347 81 -82 144 -201 154 -290 l7 -58 -97 0 -96 0 0 26 c0 44 -50 134 -109 193 -74 76 -157 130 -305 202 -111 54 -376 149 -415 149 -12 0 -26 -32 -54 -118 -42 -129 -154 -420 -170 -439 -5 -7 -21 -13 -36 -13 -22 0 -50 30 -176 190 -82 104 -154 188 -160 186 -5 -1 -11 -13 -13 -27 -2 -13 -8 -41 -13 -63 l-11 -39 -67 114 c-62 106 -202 321 -223 344 -5 6 -104 12 -236 15 l-226 5 -17 85 c-10 47 -14 88 -10 92 3 4 80 9 170 10 l163 3 -49 60 c-76 96 -146 175 -154 175 -4 0 -38 -35 -75 -77 -37 -43 -70 -79 -74 -81 -4 -1 -17 50 -29 114 l-23 116 33 34 33 34 -35 36 c-118 123 -366 300 -496 354 -141 59 -227 71 -314 44z m1027 -644 c22 -25 62 -71 88 -102 l48 -58 -161 0 -161 0 0 28 c0 21 18 50 66 106 37 42 69 76 73 74 4 -2 25 -23 47 -48z m-272 -302 l14 -68 -44 0 c-42 0 -42 0 -34 28 22 70 44 126 47 117 1 -6 9 -40 17 -77z m434 -74 l143 -6 93 -142 c114 -171 196 -314 196 -338 0 -26 -64 -363 -121 -638 -27 -129 -50 -244 -50 -255 -1 -11 -20 -117 -42 -235 l-41 -215 -45 -57 c-29 -36 -48 -53 -52 -45 -4 7 -16 59 -27 117 l-21 105 29 42 c17 23 30 44 30 47 0 3 -18 6 -40 6 -37 0 -39 2 -45 38 -4 20 -11 53 -16 72 -20 79 -24 76 123 86 102 7 133 12 136 24 4 12 2 13 -9 4 -16 -13 -255 -28 -262 -17 -6 10 -263 1287 -272 1355 l-7 47 58 3 c32 2 67 4 78 6 12 1 85 0 164 -4z m-416 -31 c3 -16 58 -289 122 -608 63 -319 124 -622 134 -673 11 -55 15 -95 10 -99 -13 -7 -430 12 -488 23 -27 5 -86 89 -180 256 l-47 83 145 425 c79 234 158 466 175 517 32 96 35 98 98 102 22 1 28 -4 31 -26z m1630 -157 c186 -61 322 -123 437 -200 142 -94 224 -194 233 -281 l3 -30 -500 -3 c-275 -1 -505 0 -512 2 -8 3 2 37 30 103 24 55 69 179 102 276 33 97 63 177 67 177 5 0 68 -20 140 -44z m-2658 -83 c15 -49 51 -151 81 -228 30 -77 52 -142 49 -145 -6 -5 -847 -1 -852 5 -10 10 50 98 102 150 71 70 138 116 262 179 93 48 287 125 315 126 11 0 23 -26 43 -87z m668 -160 c-73 -217 -149 -429 -160 -449 -9 -15 -15 -8 -42 47 l-32 65 69 135 c84 161 203 363 210 356 2 -3 -18 -72 -45 -154z m1422 -271 l89 -111 50 -3 51 -3 42 -95 c33 -75 91 -229 139 -367 5 -14 30 -8 205 49 152 49 295 112 402 175 93 55 205 155 233 207 l20 36 102 0 103 0 -10 -27 c-85 -235 -352 -426 -801 -576 -59 -20 -123 -39 -144 -43 -20 -3 -39 -13 -42 -20 -3 -8 4 -54 15 -102 21 -89 34 -158 52 -273 15 -95 13 -381 -4 -464 -40 -205 -127 -336 -272 -406 -67 -33 -72 -34 -194 -34 -103 0 -137 4 -195 23 -192 63 -389 188 -603 381 l-93 84 -27 -24 c-15 -13 -29 -26 -32 -29 -126 -124 -340 -277 -496 -354 -125 -62 -204 -80 -339 -81 -114 0 -123 2 -187 32 -296 140 -374 560 -222 1181 14 57 24 105 22 106 -1 1 -39 14 -83 28 -243 79 -476 200 -607 317 -96 86 -172 208 -191 309 l-7 32 95 0 94 0 25 -55 c50 -110 184 -221 381 -315 124 -59 329 -135 347 -127 8 3 20 25 27 48 12 40 113 295 157 397 14 31 24 42 38 40 13 -2 64 -71 151 -206 73 -112 136 -203 141 -203 5 1 17 26 28 57 l18 56 40 -69 c23 -37 69 -114 105 -170 l64 -101 92 -7 c50 -4 171 -10 267 -13 l174 -7 18 -85 c9 -47 17 -89 18 -94 0 -5 -88 -7 -210 -4 -115 3 -210 4 -210 1 0 -13 178 -239 268 -341 l38 -43 45 48 c24 26 58 65 76 87 36 45 33 50 62 -99 l20 -100 -34 -34 -34 -35 53 -55 c51 -54 53 -59 71 -153 l18 -98 53 0 c54 0 64 8 64 51 0 10 2 19 4 19 2 0 34 -21 72 -47 83 -55 251 -136 316 -152 80 -19 177 -14 228 12 132 68 198 289 172 573 -13 133 -20 176 -53 329 -23 102 -35 138 -47 131 -12 -7 -299 -52 -424 -67 -60 -6 -108 -16 -108 -21 0 -4 10 -6 23 -3 12 2 81 11 152 20 72 8 181 24 244 35 63 11 116 18 118 17 6 -6 42 -164 58 -252 23 -125 31 -367 15 -471 -17 -115 -68 -216 -132 -260 -81 -55 -180 -56 -319 -3 -75 29 -209 104 -274 153 -31 24 -32 27 -23 68 27 130 130 669 133 702 4 36 45 257 79 426 7 36 20 79 29 96 9 17 14 40 11 51 -4 16 43 280 62 346 9 28 18 20 47 -38 l27 -55 -65 -127 c-36 -69 -63 -128 -61 -131 4 -4 22 28 115 211 l25 49 -42 83 c-27 56 -39 90 -35 105 5 19 8 21 17 8 6 -8 51 -64 100 -126z m-2338 -62 l444 0 -16 -37 c-33 -75 -139 -340 -157 -390 l-17 -52 -98 34 c-315 107 -539 251 -612 394 -24 48 -25 65 -4 57 9 -3 216 -6 460 -6z m3544 -66 c0 -27 -138 -155 -223 -208 -101 -63 -260 -133 -417 -185 -154 -50 -190 -58 -190 -41 0 18 -94 264 -136 356 -19 41 -34 79 -34 85 0 5 193 9 500 9 457 0 500 -1 500 -16z m-1954 -811 c7 -7 18 -45 24 -85 14 -84 15 -83 -74 -183 -56 -63 -59 -65 -75 -48 -85 94 -261 314 -261 327 0 13 372 2 386 -11z m259 -280 c-4 -21 -12 -68 -19 -105 -6 -37 -14 -69 -18 -73 -3 -3 -12 25 -18 63 -13 70 -13 70 16 111 36 51 48 52 39 4z m-151 -220 c3 -24 3 -43 -1 -43 -4 0 -20 12 -35 27 l-28 27 22 23 c26 28 33 22 42 -34z"/>
 <path d="M1740 2006 c-33 -78 -90 -235 -90 -249 0 -13 149 -48 270 -63 l54 -7 -15 24 c-29 44 -129 220 -159 280 -17 32 -33 59 -35 59 -3 0 -14 -20 -25 -44z m59 -43 c16 -32 52 -98 81 -147 28 -50 52 -94 53 -100 1 -6 -11 -9 -28 -8 -38 4 -228 43 -237 48 -10 6 86 264 98 264 2 0 17 -26 33 -57z"/>
 <path d="M3555 1984 c-21 -38 -69 -122 -107 -186 -37 -64 -68 -120 -68 -124 0 -12 321 33 335 48 6 6 -78 244 -105 297 l-17 34 -38 -69z m88 -84 c58 -149 62 -167 40 -174 -33 -11 -259 -42 -271 -38 -9 3 -7 11 6 30 11 15 45 74 77 132 74 134 96 172 101 168 1 -2 23 -55 47 -118z"/>
 <path d="M1577 1538 c-2 -13 -14 -66 -27 -118 -29 -128 -50 -256 -49 -305 1 -23 7 0 14 55 7 52 25 147 40 210 15 63 29 125 32 138 6 27 12 27 143 2 58 -12 166 -30 240 -41 74 -11 135 -21 135 -22 22 -42 215 -293 365 -475 l51 -63 -60 -56 c-144 -133 -311 -251 -434 -308 -192 -89 -336 -82 -425 20 -46 51 -62 88 -83 184 -11 54 -18 73 -18 53 -1 -19 6 -59 15 -90 48 -167 132 -242 272 -242 178 0 402 122 680 369 40 35 72 67 72 70 0 4 -39 51 -86 106 -77 90 -311 393 -332 432 -6 11 -47 21 -138 34 -71 10 -186 30 -256 44 -69 14 -131 25 -136 25 -5 0 -12 -10 -15 -22z"/>
 <path d="M3505 4083 c-177 -39 -362 -146 -580 -335 -114 -100 -115 -101 -97 -122 96 -110 151 -176 216 -261 43 -55 87 -106 99 -112 12 -7 42 -12 67 -12 43 2 43 2 -14 9 -36 5 -62 14 -67 23 -11 19 -229 289 -271 335 l-32 35 50 44 c165 147 306 249 433 313 102 51 178 72 261 72 108 1 173 -40 232 -146 9 -17 17 -26 18 -20 0 20 -58 102 -93 130 -56 44 -147 64 -222 47z"/>
 <path d="M3862 3630 c-1 -36 -4 -96 -7 -135 l-4 -70 10 70 c5 39 8 99 6 135 l-3 65 -2 -65z"/>
 <path d="M3485 3210 c66 -10 129 -19 140 -18 33 1 -115 26 -190 32 -49 3 -34 -1 50 -14z"/>
 <path d="M3316 2984 c68 -106 170 -277 219 -369 26 -49 51 -93 55 -98 3 -4 18 23 33 60 15 36 25 68 23 70 -2 2 -13 -21 -26 -52 -12 -30 -26 -53 -30 -50 -4 3 -20 28 -35 57 -28 53 -195 334 -236 396 l-22 34 44 -6 c129 -18 328 -48 359 -55 33 -7 35 -10 33 -44 -1 -20 0 -37 2 -37 5 0 25 73 21 77 -10 11 -266 53 -415 69 l-63 7 38 -59z"/>
 <path d="M1995 3019 c-27 -5 -126 -24 -218 -41 l-169 -31 7 -36 c6 -35 96 -285 130 -365 l16 -38 80 141 c43 79 108 189 144 246 69 109 82 136 69 134 -5 -1 -31 -5 -59 -10z m42 -16 c-3 -5 -36 -60 -74 -123 -39 -63 -98 -166 -132 -227 -35 -62 -65 -113 -67 -113 -16 0 -148 380 -136 392 9 9 339 73 395 77 10 0 16 -2 14 -6z"/>
 </g>
<g id="layer103" fill="#5e5617" stroke="none">
 <path d="M2005 4239 c146 -49 303 -142 480 -285 50 -40 110 -93 135 -118 24 -25 48 -46 54 -46 5 0 43 31 85 68 224 200 406 317 599 382 48 16 80 30 71 30 -27 0 -153 -46 -230 -85 -146 -73 -320 -198 -451 -323 l-67 -64 -83 74 c-161 142 -314 251 -443 316 -70 35 -199 82 -223 82 -9 0 24 -14 73 -31z"/>
 <path d="M3502 4079 c-163 -27 -404 -172 -612 -366 l-74 -70 77 -89 c42 -49 113 -136 158 -194 45 -58 88 -106 95 -106 10 -2 11 -1 1 2 -7 3 -19 15 -26 27 -17 26 -239 301 -272 336 l-23 24 50 44 c223 198 418 324 568 368 75 22 180 22 230 1 21 -9 56 -35 78 -58 35 -37 37 -38 18 -10 -31 46 -86 80 -149 92 -30 5 -56 9 -60 9 -3 -1 -30 -5 -59 -10z"/>
 <path d="M1665 4058 c-43 -23 -89 -76 -116 -133 -16 -33 -29 -67 -29 -75 0 -8 11 10 24 41 31 77 61 116 114 150 44 28 49 40 7 17z"/>
 <path d="M1940 4047 c135 -49 251 -120 415 -253 50 -40 108 -91 130 -113 l39 -41 -22 -23 c-17 -17 -25 -19 -31 -9 -10 17 -24 0 -40 -50 -7 -20 -28 -58 -47 -85 -33 -45 -34 -46 -5 -15 17 18 31 29 31 24 0 -11 -29 -100 -45 -137 -7 -16 -34 -95 -60 -175 -26 -80 -53 -158 -60 -175 -7 -16 -18 -46 -24 -66 -6 -20 -35 -74 -64 -120 -77 -122 -188 -320 -243 -431 l-48 -97 39 -81 c21 -44 37 -82 34 -85 -3 -2 -47 61 -99 140 l-93 145 -74 0 -74 0 -24 55 c-14 30 -46 113 -72 186 -26 72 -49 127 -50 122 -3 -7 82 -238 122 -335 6 -15 2 -18 -21 -19 -53 -3 -829 3 -832 6 -7 6 38 82 73 123 81 94 248 197 446 276 145 57 179 65 179 41 0 -10 3 -16 6 -12 3 3 3 15 -1 26 -6 20 -9 19 -115 -18 -195 -70 -381 -171 -476 -258 -42 -38 -102 -119 -119 -159 -11 -28 -19 -33 -52 -36 l-38 -3 0 -47 0 -48 41 0 c39 0 43 -2 49 -30 12 -53 91 -147 178 -211 95 -71 295 -171 450 -224 59 -21 109 -36 112 -34 2 2 20 48 39 102 20 54 64 166 98 248 51 120 67 149 81 147 11 -2 69 -82 150 -207 73 -113 137 -204 142 -203 6 1 17 23 26 50 9 26 19 46 23 45 6 -2 92 -140 185 -296 9 -15 23 -29 31 -32 21 -6 347 -25 446 -25 l81 0 11 -65 c7 -36 15 -79 19 -96 l6 -31 -212 4 c-116 2 -211 2 -211 0 0 -19 293 -372 309 -372 5 0 39 36 77 80 37 44 70 80 74 80 3 0 16 -52 28 -115 l23 -115 -33 -41 -33 -41 50 -46 c49 -46 51 -49 70 -147 l21 -100 52 -3 52 -3 6 39 6 40 89 -60 c102 -68 212 -120 301 -144 74 -19 178 -15 224 9 78 40 133 129 160 259 20 93 14 382 -11 508 -32 166 -57 260 -68 260 -7 0 -50 -7 -97 -15 -98 -18 -264 -41 -363 -51 -37 -3 -70 -11 -73 -16 -3 -5 5 -7 18 -4 12 3 82 12 153 21 72 8 181 24 244 35 63 11 116 18 118 17 6 -6 42 -164 58 -252 23 -125 31 -367 15 -471 -32 -215 -150 -324 -326 -299 -99 15 -286 103 -399 189 -31 24 -32 27 -23 68 37 179 130 668 130 688 0 13 21 135 48 270 43 220 51 252 85 310 20 36 59 109 86 162 l49 98 -42 84 c-33 68 -40 89 -32 106 9 20 18 12 109 -101 l100 -124 50 -3 c27 -2 53 -9 57 -15 6 -9 8 -9 8 1 0 9 107 12 500 12 457 0 500 -1 500 -16 0 -27 -138 -155 -223 -208 -101 -63 -260 -133 -417 -185 -153 -50 -190 -58 -190 -41 0 26 -129 354 -136 347 -2 -2 6 -26 18 -53 11 -27 43 -107 69 -179 26 -71 52 -131 58 -133 17 -6 185 45 311 94 244 96 430 216 504 327 l37 57 83 0 c45 0 85 2 87 4 3 3 3 23 1 45 l-4 41 -74 0 -74 0 0 28 c0 16 -14 56 -31 90 -57 114 -221 243 -425 332 -125 55 -373 135 -383 124 -4 -5 -31 -78 -60 -163 -29 -85 -75 -210 -103 -278 -50 -122 -50 -123 -83 -123 -31 0 -43 12 -181 185 -81 102 -151 185 -155 185 -10 0 -16 -20 -24 -74 -4 -25 -10 -46 -14 -46 -3 0 -35 48 -70 108 -35 59 -100 162 -144 228 l-81 121 -80 7 c-45 3 -149 6 -232 6 l-151 0 -11 65 c-7 36 -15 78 -18 95 l-6 30 171 2 172 3 -64 77 c-36 43 -81 97 -102 119 l-38 42 -51 -59 c-28 -32 -63 -72 -77 -88 l-26 -30 -23 122 -24 122 34 35 34 35 -25 26 c-43 47 -210 183 -300 244 -100 68 -257 147 -309 155 -23 4 -13 -2 30 -18z m786 -617 c22 -25 62 -71 88 -102 l48 -58 -161 0 -161 0 0 28 c0 21 18 50 66 106 37 42 69 76 73 74 4 -2 25 -23 47 -48z m-276 -267 c6 -32 14 -68 17 -80 5 -21 2 -23 -42 -23 -33 0 -46 4 -43 13 3 6 15 42 27 80 13 37 24 67 26 67 2 0 9 -26 15 -57z m438 -109 l143 -6 93 -142 c119 -179 196 -314 196 -342 0 -12 -9 -66 -19 -120 -11 -54 -48 -241 -81 -415 -37 -190 -69 -329 -80 -346 -18 -30 -18 -30 -141 -36 -68 -4 -126 -4 -130 0 -7 8 -261 1261 -274 1355 l-7 47 58 3 c32 2 67 4 78 6 12 1 85 0 164 -4z m-416 -31 c3 -16 58 -289 122 -608 63 -319 124 -622 134 -673 11 -55 15 -95 10 -99 -13 -7 -430 12 -488 23 -27 5 -86 89 -180 256 l-47 83 145 425 c79 234 158 466 175 517 32 96 35 98 98 102 22 1 28 -4 31 -26z m1630 -157 c186 -61 322 -123 437 -200 142 -94 224 -194 233 -281 l3 -30 -500 -3 c-275 -1 -505 0 -512 2 -8 3 2 37 30 103 24 55 69 179 102 276 33 97 63 177 67 177 5 0 68 -20 140 -44z m-1990 -243 c-73 -217 -149 -429 -160 -449 -9 -15 -15 -8 -42 47 l-32 65 69 135 c84 161 203 363 210 356 2 -3 -18 -72 -45 -154z m1341 -288 l27 -55 -68 -132 c-37 -72 -68 -125 -70 -116 -3 13 49 289 64 341 9 28 18 20 47 -38z m-2257 -45 l444 0 -16 -37 c-33 -75 -139 -340 -157 -390 l-17 -52 -98 34 c-315 107 -539 251 -612 394 -24 48 -25 65 -4 57 9 -3 216 -6 460 -6z m1958 -627 c-2 -10 -22 -112 -44 -226 l-40 -209 -46 -59 c-25 -32 -49 -59 -53 -59 -4 0 -17 54 -30 120 l-23 119 31 40 c17 21 31 42 31 45 0 3 -18 6 -40 6 -44 0 -39 -9 -63 115 l-14 70 56 6 c31 4 90 7 131 8 64 1 77 4 88 21 15 25 21 26 16 3z m-368 -250 c7 -7 18 -45 24 -85 14 -84 15 -83 -74 -183 -56 -63 -59 -65 -75 -48 -85 94 -261 314 -261 327 0 13 372 2 386 -11z m259 -280 c-4 -21 -12 -68 -19 -105 -6 -37 -14 -69 -18 -73 -3 -3 -12 25 -18 63 -13 70 -13 70 16 111 36 51 48 52 39 4z m-151 -220 c3 -24 3 -43 -1 -43 -4 0 -20 12 -35 27 l-28 27 22 23 c26 28 33 22 42 -34z"/>
 <path d="M2293 3358 c-83 -107 -97 -118 -145 -119 -25 -1 -33 -4 -19 -6 58 -11 84 5 154 98 37 49 65 89 63 89 -3 0 -27 -28 -53 -62z"/>
 <path d="M1521 3315 c-1 -11 6 -57 16 -103 15 -76 18 -83 37 -78 72 18 300 60 406 76 69 10 112 18 95 19 -38 1 -248 -31 -379 -59 -54 -11 -106 -20 -116 -20 -14 0 -22 18 -38 93 -11 50 -21 83 -21 72z"/>
 <path d="M1240 3044 c-116 -44 -340 -149 -340 -159 0 -3 41 16 92 41 91 46 288 126 341 139 15 4 30 11 33 16 8 13 -1 11 -126 -37z"/>
 <path d="M1950 3009 c-120 -19 -325 -62 -334 -69 -4 -5 11 -65 34 -135 23 -69 44 -125 46 -123 2 2 -14 58 -36 123 -21 66 -36 123 -32 126 12 11 361 79 406 79 4 0 2 -10 -6 -22 -34 -55 -60 -102 -51 -93 6 6 27 36 47 68 l37 57 -28 -1 c-15 -1 -53 -5 -83 -10z"/>
 <path d="M4518 2916 c228 -121 361 -244 434 -403 19 -41 22 -66 22 -164 0 -115 0 -117 -38 -195 -77 -156 -277 -318 -527 -426 -91 -39 -309 -115 -398 -138 -37 -10 -42 -14 -38 -33 68 -307 93 -506 83 -672 -34 -596 -445 -769 -991 -417 -96 62 -226 164 -312 246 l-73 68 -82 -74 c-409 -368 -759 -499 -1012 -378 -78 37 -155 114 -201 201 -35 68 -74 195 -76 253 -1 25 -3 27 -6 8 -7 -37 26 -171 62 -247 55 -119 147 -205 263 -247 86 -31 230 -29 345 6 195 58 418 197 625 388 40 38 77 68 81 68 4 0 25 -18 46 -40 51 -52 224 -190 317 -253 98 -65 257 -142 347 -166 275 -76 489 10 599 240 59 122 77 219 76 419 0 174 -17 316 -59 504 -13 56 -22 102 -20 104 2 2 55 19 119 38 458 136 764 343 863 584 18 43 23 75 23 148 0 108 -22 187 -75 266 -72 109 -235 241 -397 322 -124 62 -124 54 0 -10z"/>
 <path d="M802 2824 c-110 -75 -212 -186 -259 -281 -33 -67 -38 -85 -41 -169 -5 -110 6 -163 54 -250 102 -187 363 -361 724 -485 52 -18 97 -34 98 -35 2 -1 -6 -43 -17 -92 -52 -219 -71 -379 -69 -556 l1 -141 8 185 c7 186 33 358 78 530 11 41 17 78 13 81 -4 4 -38 17 -77 29 -391 126 -659 308 -762 518 -37 75 -38 78 -38 192 0 115 0 117 39 196 47 93 160 213 269 283 59 38 75 51 64 51 -2 0 -40 -25 -85 -56z"/>
 <path d="M1746 2016 c-46 -110 -96 -260 -89 -266 16 -14 303 -67 303 -55 0 3 -35 68 -79 143 -43 75 -87 155 -99 177 l-20 40 -16 -39z m53 -53 c16 -32 52 -98 81 -147 28 -50 52 -94 53 -100 1 -6 -11 -9 -28 -8 -38 4 -228 43 -237 48 -10 6 86 264 98 264 2 0 17 -26 33 -57z"/>
 <path d="M3537 1948 c-31 -57 -78 -141 -106 -187 -28 -46 -49 -86 -46 -89 5 -5 199 22 281 40 l52 11 -28 81 c-27 79 -89 238 -95 244 -1 2 -28 -43 -58 -100z m106 -48 c58 -149 62 -167 40 -174 -33 -11 -259 -42 -271 -38 -9 3 -7 11 6 30 11 15 45 74 77 132 74 134 96 172 101 168 1 -2 23 -55 47 -118z"/>
 <path d="M1585 1548 c-25 -81 -66 -267 -64 -295 1 -10 5 0 10 22 47 212 63 265 78 265 9 0 63 -9 121 -20 58 -12 166 -30 240 -41 74 -11 135 -21 135 -22 22 -42 215 -293 365 -475 l51 -63 -60 -56 c-207 -191 -417 -321 -578 -359 -146 -34 -251 7 -322 126 -11 19 -21 31 -21 25 0 -14 37 -75 64 -104 35 -39 114 -71 176 -71 180 0 460 154 702 386 l57 55 -102 122 c-116 137 -175 213 -265 339 -66 91 -65 91 -167 104 -80 10 -270 43 -338 59 -76 18 -77 18 -82 3z"/>
 </g>
<g id="layer104" fill="#867c27" stroke="none">
 <path d="M2005 4239 c199 -67 374 -183 652 -432 l21 -19 94 83 c153 135 294 235 433 305 72 36 119 63 105 59 -46 -14 -183 -86 -268 -141 -106 -69 -208 -149 -294 -232 l-67 -64 -83 74 c-161 142 -314 251 -443 316 -70 35 -199 82 -223 82 -9 0 24 -14 73 -31z"/>
 <path d="M2035 4007 c136 -66 343 -217 450 -326 l39 -41 -22 -23 c-17 -17 -25 -19 -31 -9 -6 11 -10 11 -18 0 -13 -17 -34 -76 -39 -108 -1 -14 -26 -93 -54 -175 -28 -83 -71 -210 -95 -283 -24 -73 -57 -155 -75 -182 -18 -28 -28 -54 -24 -61 4 -8 3 -9 -4 -5 -13 8 -122 -172 -226 -375 l-69 -134 41 -82 c23 -45 37 -85 32 -88 -8 -5 -31 29 -149 212 l-46 72 -75 1 -75 0 -39 100 c-22 55 -41 98 -43 96 -2 -2 12 -43 31 -92 20 -48 33 -90 30 -93 -6 -6 -846 -2 -852 4 -11 11 51 100 107 155 65 63 108 93 236 165 33 19 55 35 49 35 -5 0 -56 -27 -112 -60 -187 -111 -302 -247 -302 -359 0 -156 202 -342 503 -462 50 -20 245 -89 252 -89 2 0 13 30 26 68 12 37 51 137 87 222 35 85 69 167 75 183 20 47 41 33 112 -75 101 -154 170 -260 189 -291 19 -32 31 -29 40 10 4 16 16 46 26 68 16 33 148 415 333 962 l31 92 44 7 c23 3 44 5 46 3 4 -5 164 -789 216 -1059 21 -113 45 -236 53 -273 7 -37 10 -70 5 -73 -16 -10 -502 16 -512 27 -15 16 -121 189 -156 252 -23 43 -45 76 -48 73 -8 -9 181 -317 203 -332 15 -10 97 -17 277 -26 l257 -12 17 -95 c14 -72 15 -96 6 -99 -9 -3 -8 -7 2 -18 8 -7 20 -46 26 -86 14 -84 15 -83 -74 -183 -56 -63 -59 -65 -75 -48 -88 97 -261 314 -261 328 0 4 75 6 168 3 92 -3 154 -1 137 3 -16 4 -98 9 -182 11 -142 3 -150 2 -142 -15 14 -26 198 -254 252 -312 l46 -50 53 60 c29 33 64 72 78 88 l26 29 23 -121 23 -120 -33 -42 -33 -42 51 -46 c50 -44 52 -49 69 -131 22 -115 26 -120 78 -120 44 0 44 0 51 40 l7 39 74 -49 c260 -176 468 -215 588 -109 89 79 127 212 124 437 l-2 137 -7 -165 c-8 -201 -12 -221 -58 -312 -76 -150 -201 -183 -402 -106 -75 28 -209 103 -274 152 -31 24 -32 27 -23 68 5 24 33 174 63 333 63 331 62 325 74 344 6 9 44 20 98 27 l88 13 -85 -5 c-53 -4 -91 -11 -101 -20 -12 -11 -5 43 36 248 46 236 55 270 89 330 21 38 35 68 32 68 -3 0 -14 -17 -25 -37 -28 -53 -26 -25 9 147 39 188 39 190 48 190 4 0 20 -24 34 -54 l27 -54 -34 -71 c-44 -92 -36 -93 10 -1 l35 70 -42 84 c-34 69 -40 89 -32 107 10 21 18 14 113 -104 l102 -127 49 0 c29 0 50 -5 53 -12 4 -10 6 -10 6 0 1 9 108 12 501 12 452 0 500 -2 500 -16 0 -25 -127 -146 -209 -199 -79 -51 -217 -119 -319 -155 -34 -13 -61 -25 -58 -27 2 -2 44 11 93 30 234 91 408 208 494 334 17 24 36 43 44 43 29 0 11 139 -27 214 -39 76 -148 176 -263 241 -70 40 -55 27 52 -44 134 -90 216 -190 225 -276 l3 -30 -510 0 c-335 0 -509 3 -508 10 1 6 23 61 49 123 25 62 44 115 41 118 -2 2 -13 -20 -25 -49 -11 -30 -35 -89 -52 -131 l-32 -77 -37 3 c-33 3 -45 14 -164 163 -70 88 -137 171 -147 185 -25 32 -35 18 -45 -58 -8 -67 -7 -68 -103 93 -39 66 -102 165 -139 220 l-68 100 -70 1 -70 0 68 -3 67 -4 94 -142 c114 -173 196 -315 196 -340 0 -10 -16 -102 -35 -205 -85 -450 -128 -649 -144 -677 -16 -29 -21 -30 -102 -36 l-84 -5 82 -2 c78 -2 83 -1 104 26 l22 27 -6 -25 c-3 -14 -13 -65 -22 -115 -55 -296 -64 -327 -106 -382 -67 -86 -63 -87 -90 48 -18 94 -21 124 -11 139 9 14 8 19 -3 24 -8 3 -15 15 -15 26 0 15 7 20 25 20 25 0 31 -8 18 -26 -5 -5 0 0 11 11 18 20 18 20 -22 23 -36 3 -42 7 -51 35 -5 18 -12 54 -16 81 -4 27 -9 55 -12 62 -4 10 6 14 38 16 41 1 41 1 9 5 -19 3 -38 7 -42 11 -6 7 -260 1264 -273 1355 -7 45 -6 47 16 47 61 0 255 13 259 17 3 3 -62 3 -145 2 l-150 -4 -17 75 c-29 132 -44 120 147 120 91 0 165 4 165 8 0 10 -147 188 -177 214 -18 16 -21 14 -92 -68 -40 -47 -75 -83 -77 -81 -2 1 -14 54 -27 117 l-24 115 34 40 35 40 -54 49 c-182 166 -411 321 -518 350 -14 4 16 -13 65 -37z m691 -577 c22 -25 62 -71 88 -102 l48 -58 -161 0 -161 0 0 28 c0 21 18 50 66 106 37 42 69 76 73 74 4 -2 25 -23 47 -48z m-262 -321 l7 -47 -46 -4 c-54 -4 -55 -1 -17 98 l27 74 11 -38 c6 -20 14 -58 18 -83z m-352 -486 c-73 -217 -149 -429 -160 -449 -9 -15 -15 -8 -42 47 l-32 65 69 135 c84 161 203 363 210 356 2 -3 -18 -72 -45 -154z m-916 -333 l444 0 -16 -37 c-33 -75 -139 -340 -157 -390 l-17 -52 -98 34 c-315 107 -539 251 -612 394 -24 48 -25 65 -4 57 9 -3 216 -6 460 -6z m1849 -1157 c-4 -21 -12 -68 -19 -105 -6 -37 -14 -69 -18 -73 -3 -3 -12 25 -18 63 -13 70 -13 70 16 111 36 51 48 52 39 4z m-151 -220 c3 -24 3 -43 -1 -43 -4 0 -20 12 -35 27 l-28 27 22 23 c26 28 33 22 42 -34z"/>
 <path d="M3295 4004 c-132 -67 -353 -231 -448 -332 l-29 -30 83 -96 c45 -53 84 -96 86 -96 5 0 -79 103 -130 159 l-31 34 50 44 c163 145 284 233 416 303 106 57 109 68 3 14z"/>
 <path d="M1521 3319 c-1 -24 30 -173 37 -181 4 -4 34 0 67 7 33 8 119 25 190 39 72 13 119 25 105 25 -14 0 -92 -13 -175 -29 -82 -17 -157 -30 -166 -30 -13 0 -21 22 -37 93 -11 50 -21 85 -21 76z"/>
 <path d="M1672 2956 c-29 -8 -55 -16 -58 -18 -2 -3 9 -49 26 -103 18 -53 33 -95 36 -93 2 3 -7 37 -20 76 -40 118 -42 114 39 133 39 9 61 17 50 17 -11 0 -44 -5 -73 -12z"/>
 <path d="M1285 2841 c-94 -35 -168 -70 -154 -71 4 0 33 12 65 26 33 14 97 39 144 55 47 16 76 29 65 28 -11 0 -65 -17 -120 -38z"/>
 <path d="M676 2718 c-70 -70 -101 -111 -129 -167 -20 -40 -37 -81 -37 -90 0 -9 11 11 25 43 35 86 88 158 174 237 41 38 71 69 67 69 -4 0 -49 -42 -100 -92z"/>
 <path d="M4806 2715 c101 -100 157 -195 173 -295 6 -40 9 -46 10 -22 1 42 -32 142 -66 195 -31 49 -113 137 -168 181 -22 17 1 -9 51 -59z"/>
 <path d="M502 2355 c-2 -102 12 -160 58 -240 104 -182 366 -355 720 -476 52 -18 97 -34 98 -35 2 -1 -5 -42 -17 -91 -29 -126 -51 -244 -50 -273 0 -14 11 29 24 95 12 66 32 155 43 198 15 56 17 79 9 81 -76 21 -277 100 -372 146 -164 80 -235 129 -337 230 -70 69 -95 103 -125 166 -34 71 -39 89 -44 184 l-6 105 -1 -90z"/>
 <path d="M4977 2290 c-31 -270 -365 -526 -881 -676 -66 -19 -121 -36 -123 -38 -2 -2 10 -61 26 -132 16 -71 30 -120 30 -109 1 11 -10 67 -23 125 -13 58 -23 106 -21 108 2 2 55 19 119 38 218 65 431 159 573 256 191 128 320 313 311 445 l-3 48 -8 -65z"/>
 <path d="M1740 1996 c-46 -109 -91 -239 -83 -246 10 -9 133 -33 139 -27 3 3 -25 10 -61 17 -36 7 -67 15 -69 19 -4 7 72 211 91 245 10 18 15 12 46 -50 20 -38 58 -107 85 -154 28 -47 48 -88 46 -91 -2 -4 -26 -2 -55 3 -28 5 -56 7 -62 5 -6 -2 22 -9 62 -16 41 -6 76 -10 78 -7 3 3 -17 42 -45 88 -27 46 -71 122 -97 171 -26 48 -49 87 -51 87 -3 0 -13 -20 -24 -44z"/>
 <path d="M3548 1967 c-21 -39 -67 -121 -102 -182 -36 -60 -63 -111 -61 -113 4 -4 209 25 278 40 26 5 47 15 47 22 0 17 -31 108 -36 104 -2 -2 3 -26 11 -53 11 -36 12 -51 4 -56 -7 -4 -62 -14 -123 -24 -174 -25 -173 -25 -142 23 13 20 54 91 91 157 36 66 70 124 74 128 4 4 23 -31 41 -78 18 -47 35 -84 37 -81 6 5 -68 186 -76 186 -3 0 -23 -33 -43 -73z"/>
 <path d="M1585 1548 c-11 -30 -55 -229 -54 -245 1 -24 3 -18 34 120 21 90 32 117 44 117 9 0 63 -9 121 -20 58 -12 166 -30 240 -41 74 -11 135 -21 135 -22 22 -42 215 -293 365 -475 l51 -63 -60 -56 c-207 -191 -417 -321 -578 -359 -141 -33 -242 4 -316 116 -10 13 -17 21 -17 17 0 -23 66 -100 105 -123 164 -95 476 33 801 330 l85 78 -64 71 c-85 96 -209 253 -297 376 -40 56 -75 101 -78 101 -36 0 -444 71 -495 86 -9 3 -19 -1 -22 -8z"/>
 <path d="M3725 1524 c-5 -2 -77 -15 -160 -28 -82 -13 -136 -25 -120 -25 17 0 95 10 175 24 80 14 146 25 147 25 1 0 4 -14 8 -31 9 -40 17 -32 9 9 -6 31 -27 40 -59 26z"/>
 <path d="M1296 1149 c-3 -34 -5 -123 -4 -198 1 -133 1 -132 8 59 4 107 6 196 5 198 -1 1 -5 -25 -9 -59z"/>
 <path d="M4047 775 c-10 -87 -54 -218 -97 -285 -218 -340 -684 -251 -1209 231 l-63 59 -62 -58 c-295 -276 -595 -434 -826 -436 -156 -1 -281 60 -367 181 -43 61 -103 203 -103 247 0 11 -3 17 -6 13 -11 -10 17 -109 51 -182 54 -118 147 -205 263 -247 86 -31 230 -29 345 6 195 58 418 197 625 388 40 38 77 68 81 68 4 0 25 -18 46 -40 51 -52 224 -190 317 -253 98 -65 257 -142 347 -166 275 -76 489 10 599 240 42 85 76 224 70 276 -2 16 -7 -3 -11 -42z"/>
 </g>
<g id="layer105" fill="#aca45c" stroke="none">
 <path d="M2168 4170 c143 -75 270 -168 446 -324 l67 -59 47 45 c90 87 208 181 308 247 138 90 147 96 89 65 -114 -62 -265 -175 -377 -282 l-67 -64 -83 74 c-162 143 -313 250 -445 317 -99 49 -88 36 15 -19z"/>
 <path d="M3285 3997 c-44 -23 -114 -65 -155 -94 -78 -53 -248 -192 -289 -236 l-23 -26 62 -70 c35 -39 65 -71 67 -71 6 0 -97 121 -112 133 -11 8 37 54 160 156 106 87 193 146 297 201 51 27 89 50 83 50 -5 -1 -46 -20 -90 -43z"/>
 <path d="M2120 3967 c3 -2 37 -26 75 -52 88 -60 238 -181 290 -234 l39 -41 -22 -23 c-17 -17 -25 -19 -31 -9 -10 17 -24 0 -40 -50 -7 -20 -28 -58 -47 -85 l-35 -48 35 40 c20 22 36 37 36 34 0 -25 -207 -603 -230 -641 -17 -27 -27 -54 -24 -60 4 -6 3 -8 -3 -5 -7 4 -42 -46 -86 -121 -81 -138 -120 -212 -112 -212 2 0 16 23 31 51 43 85 155 271 161 266 7 -8 -181 -559 -205 -603 -8 -15 -15 -8 -42 45 -35 71 -37 56 27 185 13 26 21 46 16 43 -4 -3 -25 -41 -47 -84 l-38 -79 41 -83 c23 -45 39 -87 35 -92 -3 -6 -51 57 -105 140 l-98 151 -74 0 -73 0 -13 36 c-7 19 -15 33 -18 31 -2 -3 1 -15 7 -27 6 -12 9 -25 5 -28 -6 -7 -847 -3 -853 3 -2 2 6 20 16 42 44 85 147 178 275 248 74 41 91 58 24 24 -195 -99 -337 -258 -337 -379 0 -139 166 -305 426 -426 84 -39 324 -128 329 -122 1 2 21 54 44 117 23 63 65 168 93 235 28 66 51 126 51 133 0 7 11 13 23 13 26 0 34 -10 169 -220 52 -80 102 -158 113 -173 l19 -28 18 53 c9 29 23 60 29 68 7 8 50 125 95 260 74 221 262 771 266 777 1 2 22 6 47 9 44 6 46 5 50 -22 3 -16 58 -290 122 -609 63 -319 124 -622 134 -673 10 -51 15 -95 10 -98 -16 -10 -502 16 -512 27 -15 16 -121 189 -156 252 -23 43 -45 76 -48 73 -10 -11 185 -321 210 -333 14 -7 123 -17 273 -24 138 -6 252 -13 254 -15 2 -2 12 -43 22 -91 15 -72 16 -90 5 -98 -11 -8 -11 -13 -1 -22 7 -7 19 -44 25 -84 14 -85 15 -84 -74 -184 -56 -63 -59 -65 -75 -48 -83 91 -261 314 -261 326 0 4 53 8 118 9 l117 2 -125 6 c-69 3 -126 2 -128 -2 -7 -15 278 -368 296 -368 7 0 128 138 144 163 12 20 19 1 41 -117 l21 -115 -33 -42 -34 -41 52 -47 c52 -45 53 -48 70 -137 10 -50 21 -96 25 -103 8 -12 54 -15 80 -5 9 3 16 14 16 24 0 51 10 51 87 -1 81 -55 240 -135 288 -144 17 -4 -7 9 -51 27 -84 35 -188 94 -260 146 -41 30 -42 31 -33 74 5 24 34 174 64 333 63 331 62 325 74 344 6 9 43 20 98 27 l88 13 -85 -6 c-56 -3 -91 -10 -102 -21 -10 -8 -18 -13 -18 -11 0 2 22 118 49 257 46 232 53 258 91 327 23 41 39 75 36 75 -3 0 -14 -17 -25 -37 -28 -53 -26 -25 9 147 39 189 39 190 48 190 12 0 58 -101 54 -119 -2 -13 -1 -14 7 -2 7 11 -2 37 -30 93 -38 75 -48 121 -30 132 4 3 53 -51 107 -119 l99 -125 47 0 c34 0 50 -5 57 -17 6 -10 11 -12 11 -5 0 9 107 12 500 12 460 0 500 -1 500 -17 0 -28 -151 -165 -244 -220 -48 -28 -138 -73 -199 -98 -62 -25 -121 -50 -132 -56 -55 -25 40 7 137 48 228 95 398 224 459 349 27 55 31 71 26 114 -12 101 -69 185 -187 275 -48 37 -163 108 -150 93 3 -3 46 -33 97 -67 134 -90 216 -190 225 -276 l3 -30 -500 -3 c-275 -1 -505 0 -512 2 -8 3 4 40 34 111 24 59 43 108 41 110 -2 3 -26 -49 -54 -115 -47 -116 -50 -120 -79 -120 -27 0 -46 20 -185 192 l-154 192 -8 -37 c-4 -20 -12 -54 -16 -74 l-8 -38 -22 43 c-30 56 -38 54 -10 -3 l22 -45 -23 -122 c-94 -496 -144 -737 -162 -768 l-19 -35 20 24 c28 32 27 27 -23 -226 l-42 -213 -50 -65 c-27 -35 -53 -64 -56 -65 -6 0 -21 62 -41 173 -9 52 -9 73 0 87 9 14 8 19 -3 24 -8 3 -15 15 -15 26 0 15 7 20 25 20 25 0 31 -8 18 -26 -5 -5 0 0 11 11 18 20 18 20 -26 23 l-45 3 -12 64 c-6 36 -14 78 -17 95 -6 28 -5 30 27 31 28 1 29 3 9 6 -14 3 -28 8 -32 11 -6 7 -260 1263 -273 1354 l-7 47 58 4 59 3 -67 2 -66 2 -12 53 c-6 28 -14 73 -17 100 l-6 47 167 0 c91 0 166 4 166 8 0 9 -158 200 -181 219 -12 9 -25 -2 -74 -58 -33 -39 -66 -77 -72 -86 -7 -9 -16 -13 -20 -10 -4 4 -17 58 -29 119 l-23 111 35 42 34 42 -96 84 c-103 90 -250 202 -299 226 -16 9 -28 13 -25 10z m606 -537 c22 -25 62 -71 88 -102 l48 -58 -161 0 -161 0 0 28 c0 21 18 50 66 106 37 42 69 76 73 74 4 -2 25 -23 47 -48z m-269 -268 c20 -96 19 -98 -34 -106 -25 -3 -48 -5 -49 -3 -2 2 8 37 22 78 14 40 27 80 30 88 7 23 18 3 31 -57z m-1261 -872 l444 0 -16 -37 c-33 -75 -139 -340 -157 -390 l-17 -52 -98 34 c-315 107 -539 251 -612 394 -24 48 -25 65 -4 57 9 -3 216 -6 460 -6z m1849 -1157 c-4 -21 -12 -68 -19 -105 -6 -37 -14 -69 -18 -73 -3 -3 -12 25 -18 63 -13 70 -13 70 16 111 36 51 48 52 39 4z m-151 -220 c3 -24 3 -43 -1 -43 -4 0 -20 12 -35 27 l-28 27 22 23 c26 28 33 22 42 -34z"/>
 <path d="M1531 3268 c-1 -23 20 -121 28 -130 3 -4 29 -1 56 7 l50 14 -51 -6 -51 -5 -15 68 c-9 38 -16 61 -17 52z"/>
 <path d="M2957 3053 l71 -4 53 -77 c54 -80 86 -119 54 -67 -10 17 -38 58 -62 93 l-44 62 -72 -2 -72 -2 72 -3z"/>
 <path d="M4821 2706 c68 -75 103 -127 135 -203 14 -32 22 -45 19 -28 -14 64 -62 141 -135 215 -43 44 -51 50 -19 16z"/>
 <path d="M4978 2280 c-4 -32 -24 -89 -47 -136 -66 -133 -223 -270 -431 -374 -86 -43 -271 -118 -348 -141 -23 -7 -40 -14 -38 -17 12 -11 269 88 400 155 284 143 487 370 474 530 -3 35 -4 34 -10 -17z"/>
 <path d="M520 2201 c0 -24 68 -136 115 -188 124 -139 365 -278 645 -374 52 -18 97 -34 98 -35 2 -1 -5 -42 -17 -91 -30 -127 -51 -244 -50 -273 0 -14 8 12 16 58 8 46 27 134 42 197 l28 113 -121 42 c-138 48 -354 149 -439 207 -136 91 -239 198 -287 298 -16 33 -30 54 -30 46z"/>
 <path d="M1752 2023 c-5 -10 -31 -74 -56 -142 -35 -91 -44 -126 -35 -131 16 -10 130 -33 135 -27 3 3 -25 10 -61 17 -36 7 -67 15 -69 19 -4 7 72 211 91 245 10 18 14 13 41 -40 16 -32 54 -99 82 -149 29 -49 53 -98 52 -107 0 -10 6 -18 14 -18 8 0 14 2 14 4 0 3 -30 56 -66 118 -36 62 -79 139 -95 170 -16 32 -31 58 -34 58 -2 0 -8 -8 -13 -17z"/>
 <path d="M3568 1999 c-13 -22 -59 -104 -104 -182 -59 -103 -77 -143 -67 -145 18 -5 32 9 16 15 -9 3 -5 16 11 41 14 20 54 91 91 157 36 66 70 124 74 128 4 4 23 -31 41 -78 18 -47 35 -84 37 -81 4 4 -67 186 -73 186 -2 0 -14 -18 -26 -41z"/>
 <path d="M3987 1583 c-15 -4 -17 -11 -12 -31 4 -15 17 -74 30 -132 13 -58 24 -96 24 -85 1 18 -32 178 -44 216 -4 12 3 20 22 27 28 10 14 14 -20 5z"/>
 <path d="M1575 1505 c-9 -31 -15 -61 -13 -67 2 -6 10 14 18 45 15 65 15 65 120 42 36 -8 74 -14 85 -14 11 0 -18 9 -65 20 -47 10 -95 21 -107 24 -20 5 -24 -1 -38 -50z"/>
 <path d="M1970 1480 c25 -4 65 -11 90 -15 43 -6 48 -10 105 -92 56 -80 180 -239 305 -391 l51 -63 -60 -56 c-207 -191 -417 -321 -578 -359 -124 -29 -217 -4 -288 78 -34 39 -36 40 -19 10 27 -48 88 -89 152 -103 168 -38 455 103 734 361 l78 71 -89 102 c-101 117 -202 246 -284 363 -62 89 -60 88 -182 98 -55 5 -56 4 -15 -4z"/>
 <path d="M1294 975 c0 -88 2 -123 3 -77 2 46 2 118 0 160 -1 42 -3 5 -3 -83z"/>
 <path d="M3852 979 c-1 -74 -7 -161 -13 -193 -6 -32 -8 -60 -6 -63 13 -12 27 146 25 262 l-4 130 -2 -136z"/>
 <path d="M2649 754 c-46 -50 -205 -182 -296 -247 -105 -74 -261 -156 -345 -183 -32 -10 -56 -19 -54 -22 15 -14 230 83 343 155 81 51 215 156 301 235 40 38 77 68 81 68 4 0 25 -18 46 -40 22 -23 86 -77 142 -122 259 -206 465 -306 667 -324 190 -16 363 82 450 256 37 75 66 167 65 205 0 11 -9 -14 -20 -55 -57 -222 -193 -360 -386 -391 -232 -37 -565 120 -893 422 -82 76 -73 72 -101 43z"/>
 <path d="M3790 637 c-56 -113 -140 -157 -274 -143 -37 3 -43 3 -21 -3 85 -24 177 -5 238 49 39 35 102 140 95 159 -2 5 -19 -23 -38 -62z"/>
 <path d="M1326 650 c11 -61 69 -173 117 -226 111 -123 268 -172 450 -141 78 13 48 18 -35 6 -132 -19 -266 16 -364 96 -55 46 -112 133 -146 225 -16 41 -25 59 -22 40z"/>
 </g>
<g id="layer106" fill="#f3e24b" stroke="none">
 <path d="M2470 3697 l54 -57 -22 -23 c-17 -17 -25 -19 -31 -9 -10 17 -24 0 -40 -50 -7 -20 -22 -49 -34 -65 l-21 -28 22 19 c12 11 22 17 22 14 0 -5 -190 -562 -206 -603 -4 -11 -19 -38 -34 -60 -41 -61 -45 -69 -31 -61 17 11 9 -19 -76 -264 -84 -245 -123 -350 -129 -350 -2 0 -19 30 -38 68 -19 37 -35 63 -36 59 0 -5 18 -44 41 -88 71 -136 32 -109 -72 50 l-98 151 -76 0 c-41 0 -75 4 -75 9 0 5 -15 6 -32 2 -18 -4 -216 -5 -440 -2 l-406 6 -7 -40 c-3 -22 -2 -41 3 -43 5 -1 7 -15 6 -30 -2 -15 -2 -22 1 -17 3 6 176 9 492 8 l487 -1 27 -39 c15 -21 68 -101 118 -178 49 -77 99 -153 109 -168 l20 -28 17 56 c10 30 22 58 26 61 5 2 17 -13 29 -36 11 -22 23 -40 26 -40 3 0 -5 19 -19 43 l-24 42 145 425 c79 234 158 466 175 517 24 71 36 93 52 96 18 4 18 4 -2 6 -13 0 -23 2 -23 4 2 21 59 168 66 168 5 0 15 -34 23 -76 13 -66 13 -78 0 -86 -8 -5 -9 -9 -3 -9 6 0 14 -15 17 -32 3 -18 46 -231 95 -473 117 -577 175 -876 174 -898 0 -9 3 -15 9 -12 5 4 9 4 9 2 0 -3 9 -49 20 -102 24 -116 23 -105 4 -105 -14 0 -14 -2 -1 -15 23 -23 43 -154 27 -179 -12 -20 -12 -20 7 -3 20 17 21 16 46 -110 l25 -128 -34 -36 -35 -36 51 -47 c49 -46 51 -50 69 -140 10 -51 21 -98 25 -105 8 -12 54 -15 80 -5 9 3 16 16 16 28 1 49 14 48 100 -9 81 -55 171 -105 187 -105 4 0 -25 18 -65 40 -73 40 -152 90 -183 117 -13 11 -15 22 -8 51 4 20 33 172 64 337 31 165 60 310 66 323 6 15 6 21 -1 17 -14 -9 -16 -21 41 269 28 144 57 271 65 284 8 13 17 46 19 75 6 74 62 329 74 336 6 4 7 12 1 21 -12 19 -13 77 -1 84 4 3 53 -51 107 -119 l99 -125 53 0 c28 0 52 -3 52 -7 0 -5 226 -7 502 -5 354 2 504 -1 508 -9 9 -13 35 43 44 91 l6 35 -525 0 c-289 0 -525 -3 -525 -7 0 -5 -15 -8 -32 -8 -31 0 -44 14 -182 185 -82 102 -152 188 -157 190 -4 3 -13 -27 -19 -67 l-12 -71 -19 24 -19 24 12 -31 c9 -25 5 -60 -21 -200 -73 -385 -133 -680 -143 -698 -7 -13 -7 -16 1 -12 16 10 15 1 -32 -242 -35 -179 -48 -227 -66 -246 -15 -15 -18 -25 -11 -28 9 -3 8 -23 -4 -82 -9 -43 -16 -89 -16 -101 0 -52 -19 -31 -31 35 -10 58 -10 72 2 87 13 17 13 17 -7 0 -21 -17 -21 -17 -43 101 -13 66 -22 130 -20 143 2 23 -2 40 -21 84 -12 27 -40 175 -38 200 0 11 -58 313 -130 670 -72 358 -134 671 -137 697 l-7 47 58 4 59 3 -67 2 -66 2 -12 53 c-6 28 -14 73 -17 99 -5 45 -5 47 23 51 l29 4 -27 2 c-24 1 -28 5 -28 29 0 15 6 34 13 42 6 8 2 6 -9 -3 -22 -18 -22 -18 -33 30 -6 26 -18 84 -26 127 l-16 79 33 34 32 33 -59 58 -60 57 55 -58z m424 -2784 c3 -24 3 -43 -1 -43 -4 0 -20 12 -35 27 l-28 27 22 23 c26 28 33 22 42 -34z"/>
 <path d="M2644 3458 c-61 -68 -77 -92 -22 -33 58 60 58 60 75 39 75 -90 166 -194 170 -194 5 0 -49 66 -137 168 -25 29 -47 52 -51 52 -3 0 -18 -15 -35 -32z"/>
 <path d="M2480 972 l42 -52 -54 -50 c-29 -28 -89 -78 -132 -113 -101 -79 -132 -107 -81 -71 90 62 275 220 275 235 0 4 -21 29 -46 56 l-46 48 42 -53z"/>
 <path d="M2584 689 c-24 -25 -170 -142 -264 -212 -25 -18 -25 -18 5 -1 72 41 316 244 294 244 -3 0 -18 -14 -35 -31z"/>
 </g>
<g id="layer107" fill="#f8ee94" stroke="none">
 <path d="M2470 3697 l54 -57 -22 -23 c-17 -17 -25 -19 -31 -9 -10 17 -24 0 -40 -50 -7 -20 -22 -49 -33 -65 l-22 -28 27 24 c15 14 33 42 39 63 7 23 16 37 24 34 6 -2 24 9 40 25 l28 30 -59 57 -60 57 55 -58z"/>
 <path d="M2644 3458 c-61 -68 -77 -92 -22 -33 58 60 58 60 75 39 75 -90 166 -194 170 -194 5 0 -49 66 -137 168 -25 29 -47 52 -51 52 -3 0 -18 -15 -35 -32z"/>
 <path d="M2456 3052 c6 -4 33 -114 60 -244 26 -131 50 -236 52 -233 2 2 -17 112 -44 244 -38 192 -51 241 -63 241 -10 0 -12 -3 -5 -8z"/>
 <path d="M2577 3028 c30 -149 51 -241 52 -228 0 8 -8 61 -19 118 -11 56 -20 109 -20 117 0 10 16 15 58 18 l57 3 -67 2 -67 2 6 -32z"/>
 <path d="M2360 3024 c-6 -14 -44 -123 -84 -242 -41 -119 -117 -342 -170 -494 l-95 -277 25 -46 c14 -25 28 -45 31 -45 2 0 -6 19 -20 43 l-24 42 145 425 c79 234 158 466 175 517 24 71 36 93 52 96 18 4 18 4 -3 6 -16 1 -25 -7 -32 -25z"/>
 <path d="M2186 2845 c-9 -14 -24 -37 -33 -52 -11 -16 -13 -24 -5 -19 18 11 11 -15 -75 -264 -84 -245 -123 -350 -129 -350 -2 0 -19 30 -38 68 -19 37 -35 64 -36 59 -1 -16 71 -147 80 -147 6 0 10 2 10 4 0 4 209 614 234 684 17 48 15 53 -8 17z"/>
 <path d="M3312 2594 c9 -25 5 -60 -21 -195 -17 -90 -31 -171 -30 -179 2 -21 68 309 69 341 0 14 -7 34 -15 45 -13 17 -13 16 -3 -12z"/>
 <path d="M3359 2205 c-31 -161 -41 -231 -32 -222 8 7 16 38 18 68 6 75 61 331 73 338 7 4 6 14 -2 29 -10 19 -18 -9 -57 -213z"/>
 <path d="M705 2375 c-3 -22 -2 -41 3 -43 5 -1 7 -15 6 -30 -2 -15 -2 -22 1 -17 3 6 169 10 467 10 255 -1 354 1 221 2 l-243 3 0 50 0 49 123 3 c67 2 -34 6 -225 8 l-346 5 -7 -40z"/>
 <path d="M3740 2348 c0 -5 151 -8 335 -8 l335 0 0 -45 0 -45 -340 0 c-187 0 -340 -3 -340 -7 0 -5 226 -7 502 -5 354 2 504 -1 508 -9 9 -13 35 43 44 91 l6 35 -525 0 c-289 0 -525 -3 -525 -7z"/>
 <path d="M2754 2160 c6 -60 100 -520 106 -520 3 0 -18 116 -47 258 -50 247 -66 316 -59 262z"/>
 <path d="M2661 2100 c0 -8 17 -107 40 -220 22 -113 41 -215 41 -228 0 -13 4 -20 8 -15 5 4 -13 114 -40 243 -26 129 -48 228 -49 220z"/>
 <path d="M3196 1903 c-16 -81 -34 -166 -42 -187 -10 -32 -10 -37 1 -25 13 14 79 331 73 350 -2 6 -16 -56 -32 -138z"/>
 <path d="M2783 1415 c23 -23 43 -154 27 -179 -12 -20 -12 -21 7 -3 19 17 20 21 7 85 -22 108 -24 112 -40 112 -14 0 -14 -2 -1 -15z"/>
 <path d="M3210 1408 c-17 -38 -141 -701 -133 -707 38 -29 187 -123 220 -140 73 -36 61 -23 -15 19 -73 40 -152 90 -183 117 -13 11 -15 22 -8 51 4 20 33 172 64 337 31 165 60 310 65 323 5 12 7 22 5 22 -3 0 -10 -10 -15 -22z"/>
 <path d="M3046 1191 c-12 -13 -14 -20 -5 -23 8 -3 7 -24 -5 -82 -9 -43 -16 -89 -16 -101 0 -52 -19 -31 -31 35 -10 58 -10 72 2 87 13 17 13 17 -7 0 -18 -15 -20 -23 -13 -55 5 -20 13 -64 20 -96 7 -39 14 -55 19 -45 10 18 62 290 57 295 -2 2 -12 -4 -21 -15z"/>
 <path d="M2480 972 l42 -52 -54 -50 c-29 -28 -89 -78 -132 -113 -101 -79 -132 -107 -81 -71 90 62 275 220 275 235 0 4 -21 29 -46 56 l-46 48 42 -53z"/>
 <path d="M2852 957 l-32 -33 43 -42 c23 -23 45 -42 49 -42 5 0 -18 139 -25 146 -2 2 -18 -11 -35 -29z m42 -44 c3 -24 3 -43 -1 -43 -4 0 -20 12 -35 27 l-28 27 22 23 c26 28 33 22 42 -34z"/>
 <path d="M2584 689 c-24 -25 -170 -142 -264 -212 -25 -18 -25 -18 5 -1 72 41 316 244 294 244 -3 0 -18 -14 -35 -31z"/>
 </g>

</svg>