<svg width="37" height="40" viewBox="0 0 37 40" fill="none" xmlns="http://www.w3.org/2000/svg">
<path fill-rule="evenodd" clip-rule="evenodd" d="M31.9 20.2073C34.0826 17.9595 37.7318 13.5606 35.7316 10.1946C33.7411 6.84379 28.0972 7.78777 24.9858 8.51433C24.0524 5.47077 21.9304 0.0479355 18.0233 0.000313788C14.1326 -0.0470586 12.2739 5.28068 11.4296 8.32544C8.25269 7.49528 2.6152 6.40506 0.697365 9.73665C-1.21503 13.0588 2.45764 17.5509 4.74708 19.8851C2.52922 22.1541 -1.05692 26.39 0.935166 29.7442C2.94104 33.1201 8.6292 32.3196 11.7714 31.5832C12.7063 34.6677 14.7156 39.9523 18.6086 39.9997C22.5137 40.0472 24.5193 34.7839 25.3725 31.7237C28.4502 32.4952 34.1532 33.4836 36.0417 30.203C37.9411 26.9034 34.1634 22.5241 31.9 20.2073ZM25.7744 30.0729C26.1197 28.4368 26.3589 26.6228 26.4911 24.6824C28.0464 23.6136 29.4588 22.5042 30.6813 21.3878C32.3381 23.0906 35.9431 26.8773 34.532 29.3287C33.1075 31.8032 28.2036 30.6787 25.7744 30.0729ZM18.5834 38.2908C15.6789 38.2554 14.1218 33.4127 13.429 31.1388C15.0348 30.6562 16.739 30.001 18.4976 29.196C20.2912 30.0382 22.0441 30.7318 23.6975 31.2504C23.0916 33.4136 21.5008 38.3264 18.5834 38.2908ZM2.4219 28.9089C0.936126 26.4084 4.3709 22.7642 6.00398 21.0925C7.27235 22.2423 8.74597 23.3943 10.381 24.5211C10.5885 26.4254 10.9046 28.2484 11.3166 29.9232C9.35103 30.3843 3.91464 31.4211 2.4219 28.9089ZM2.20715 10.6109C3.63687 8.12724 8.67786 9.35936 11.0209 9.97451C10.6579 11.6296 10.3961 13.4283 10.2447 15.3128C8.6714 16.4033 7.22758 17.5484 5.96635 18.7054C4.34662 17.0516 0.776544 13.0961 2.20715 10.6109ZM18.0482 1.70906C20.9649 1.74469 22.6446 6.74376 23.3245 8.94974C21.6805 9.42741 19.9631 10.0605 18.2278 10.8296C16.4793 10.0169 14.7496 9.33603 13.1012 8.8113C13.7828 6.35595 15.1347 1.67348 18.0482 1.70906ZM26.5211 17.7597C27.5692 18.5511 28.5437 19.3608 29.4285 20.1735C28.5775 20.9465 27.6264 21.7193 26.5936 22.4781C26.6338 20.907 26.6127 19.3323 26.5211 17.7597ZM23.7789 10.6119C24.053 11.7488 24.2789 12.9719 24.4534 14.258C23.0985 13.3881 21.7046 12.5807 20.2764 11.8381C21.4701 11.3552 22.6445 10.9445 23.7789 10.6119ZM12.1053 14.0872C12.2494 12.8185 12.4471 11.6036 12.6942 10.4628C13.829 10.8273 15.0077 11.2707 16.2065 11.7833C14.8021 12.4864 13.4332 13.2555 12.1053 14.0872ZM10.191 22.3077C9.10589 21.5118 8.11219 20.7094 7.2269 19.9122C8.10299 19.1131 9.0738 18.3172 10.1192 17.5413C10.0667 19.1281 10.091 20.7191 10.191 22.3077ZM12.976 29.4752C12.6927 28.3099 12.4569 27.066 12.2741 25.769C13.6429 26.6329 15.0452 27.4451 16.4797 28.1947C15.2678 28.7058 14.094 29.1351 12.976 29.4752ZM24.6511 25.8858C24.5207 27.2065 24.3358 28.4501 24.0976 29.5965C22.9418 29.2305 21.73 28.773 20.4859 28.234C21.9076 27.5088 23.2994 26.7281 24.6511 25.8858ZM18.465 27.301C16.2384 26.2101 14.0851 24.961 12.0212 23.5859C11.7993 21.1527 11.7625 18.7075 11.9138 16.2787C13.9286 14.9342 16.0485 13.7425 18.2531 12.718C20.487 13.8015 22.6436 15.0496 24.6953 16.4496C24.9026 18.8707 24.9346 21.3021 24.8124 23.7198C22.7879 25.0574 20.6603 26.2495 18.465 27.301ZM34.2453 11.0299C35.7373 13.5417 32.2298 17.3632 30.6496 18.9931C29.3727 17.815 27.9213 16.6481 26.3418 15.5305C26.1447 13.6234 25.8423 11.8179 25.4414 10.1746C27.7218 9.64368 32.7676 8.54244 34.2453 11.0299Z" fill="#919FCF"/>
<path d="M22.9539 7.2436C24.2338 7.27598 25.2715 8.28135 25.3549 9.54733H26.3486L26.4113 9.54877L26.5295 9.5544L26.6003 9.5597C27.8475 9.68666 28.8188 10.738 28.8188 12.0165V13.0096C30.1063 13.0943 31.1244 14.1649 31.1244 15.4733C31.1244 16.5239 30.4678 17.4212 29.5424 17.7778C30.4678 18.1344 31.1244 19.0316 31.1244 20.0823C31.1244 21.133 30.4678 22.0302 29.5424 22.3868C30.4678 22.7434 31.1244 23.6407 31.1244 24.6914C31.1244 25.9997 30.1063 27.0702 28.8188 27.1549V28.1481C28.8188 29.5118 27.7129 30.6173 26.3486 30.6173H25.3549C25.2701 31.9042 24.1992 32.9218 22.8903 32.9218C21.8391 32.9218 20.9414 32.2655 20.5847 31.3405C20.2279 32.2655 19.3303 32.9218 18.2791 32.9218C17.228 32.9218 16.3303 32.2655 15.9736 31.3405C15.6168 32.2655 14.7192 32.9218 13.668 32.9218C12.3591 32.9218 11.2882 31.9042 11.2034 30.6173H10.2097C8.84542 30.6173 7.73946 29.5118 7.73946 28.1481V27.1549C6.47292 27.0715 5.4671 26.0343 5.43471 24.755L5.4339 24.6914L5.43471 24.6277C5.46061 23.6046 6.10918 22.7362 7.01576 22.3868C6.10918 22.0374 5.46061 21.1691 5.43471 20.146L5.4339 20.0823L5.43471 20.0186C5.46061 18.9955 6.10918 18.1272 7.01576 17.7778C6.10918 17.4284 5.46061 16.56 5.43471 15.5369L5.4339 15.4733L5.43471 15.4096C5.4671 14.1303 6.47291 13.0929 7.73946 13.0096V12.0165C7.73946 11.9956 7.73991 11.9746 7.74091 11.9538L7.74653 11.8356C7.74766 11.812 7.74945 11.7884 7.75184 11.7649C7.87886 10.5182 8.93067 9.54733 10.2097 9.54733H11.2034C11.2882 8.26041 12.3591 7.2428 13.668 7.2428L13.7317 7.2436C14.7553 7.26949 15.624 7.91777 15.9736 8.82395C16.3304 7.89904 17.228 7.2428 18.2791 7.2428L18.3428 7.2436C19.3664 7.26949 20.2351 7.91777 20.5847 8.82395C20.9415 7.89904 21.8391 7.2428 22.8903 7.2428L22.9539 7.2436Z" fill="white"/>
<path d="M21.7375 30.4527V29.3004H19.4319V30.4527C19.4319 31.0891 18.9158 31.6049 18.2791 31.6049C17.6425 31.6049 17.1264 31.0891 17.1264 30.4527V29.3004H14.8208V30.4527C14.8208 31.0891 14.3047 31.6049 13.668 31.6049C13.0314 31.6049 12.5153 31.0891 12.5153 30.4527V29.3004H10.2097C9.57303 29.3004 9.05692 28.7845 9.05692 28.1481V25.8436H7.90414C7.26748 25.8436 6.75136 25.3277 6.75136 24.6914C6.75136 24.055 7.26748 23.5391 7.90414 23.5391H9.05692V21.2346H7.90414C7.26748 21.2346 6.75136 20.7187 6.75136 20.0823C6.75136 19.4459 7.26748 18.93 7.90414 18.93H9.05692V16.6255H7.90414C7.26748 16.6255 6.75136 16.1096 6.75136 15.4733C6.75136 14.8369 7.26748 14.321 7.90414 14.321H9.05692V12.0165L9.06255 11.8983C9.12172 11.3174 9.61293 10.8642 10.2097 10.8642H12.5153V9.71193C12.5153 9.07556 13.0314 8.55967 13.668 8.55967C14.3047 8.55967 14.8208 9.07556 14.8208 9.71193V10.8642H17.1264V9.71193C17.1264 9.07556 17.6425 8.55967 18.2791 8.55967C18.9158 8.55967 19.4319 9.07556 19.4319 9.71193V10.8642H21.7375V9.71193C21.7375 9.07556 22.2536 8.55967 22.8902 8.55967C23.5269 8.55967 24.043 9.07556 24.043 9.71193V10.8642H26.3486L26.4668 10.8698C27.0479 10.929 27.5014 11.42 27.5014 12.0165V14.321H28.6541C29.2908 14.321 29.8069 14.8369 29.8069 15.4733C29.8069 16.1096 29.2908 16.6255 28.6541 16.6255H27.5014V18.93H28.6541C29.2908 18.93 29.8069 19.4459 29.8069 20.0823C29.8069 20.7187 29.2908 21.2346 28.6541 21.2346H27.5014V23.5391H28.6541C29.2908 23.5391 29.8069 24.055 29.8069 24.6914C29.8069 25.3277 29.2908 25.8436 28.6541 25.8436H27.5014V28.1481C27.5014 28.7845 26.9852 29.3004 26.3486 29.3004H24.043V30.4527C24.043 31.0891 23.5269 31.6049 22.8902 31.6049C22.2536 31.6049 21.7375 31.0891 21.7375 30.4527ZM11.3625 26.9959H25.1958V13.1687H11.3625V26.9959ZM21.7375 15.4733C22.3741 15.4733 22.8902 15.9891 22.8902 16.6255V23.5391C22.8902 23.8447 22.7687 24.1377 22.5525 24.3538C22.3363 24.5699 22.0432 24.6914 21.7375 24.6914H14.8208C14.1841 24.6914 13.668 24.1755 13.668 23.5391V16.6255C13.668 15.9891 14.1841 15.4733 14.8208 15.4733H21.7375ZM15.9736 22.3868H20.5847V17.7778H15.9736V22.3868Z" fill="#001A72"/>
</svg>
