<svg width="37" height="40" viewBox="0 0 37 40" fill="none" xmlns="http://www.w3.org/2000/svg">
<path d="M25.0432 8.50099C28.1662 7.7764 33.7532 6.86428 35.7316 10.1945C37.7318 13.5605 34.0826 17.9594 31.9 20.2072C34.1635 22.524 37.9411 26.9035 36.0417 30.203C34.1532 33.4836 28.4503 32.4952 25.3725 31.7237C24.5194 34.7839 22.5136 40.0472 18.6085 39.9997C14.9871 39.9555 12.996 35.3793 11.9832 32.2581C12.4245 32.6697 13.0168 32.9218 13.668 32.9218C13.7821 32.9218 13.8943 32.9135 14.0043 32.8985C14.8579 35.2813 16.3066 38.2631 18.5834 38.2909C20.8885 38.319 22.365 35.2576 23.1823 32.9044C24.3552 32.7663 25.2765 31.807 25.3549 30.6173H26.3486C26.6854 30.6173 27.0064 30.5496 27.299 30.4276C29.8627 30.9673 33.3649 31.3559 34.5319 29.3287C35.9312 26.8978 32.3978 23.1539 30.7231 21.431C30.9767 21.0433 31.1244 20.5801 31.1244 20.0823C31.1244 19.6313 31.0031 19.2087 30.7918 18.8448C32.4292 17.1413 35.6939 13.4685 34.2453 11.0298C33.107 9.11372 29.8514 9.32739 27.3737 9.76915C27.134 9.65977 26.8738 9.58753 26.6003 9.5597L26.5295 9.55439L26.4113 9.54876L26.3486 9.54732H25.3549C25.3299 9.16889 25.2196 8.81381 25.0432 8.50099Z" fill="white"/>
<path d="M18.0233 0.000313786C21.8426 0.0468661 23.9559 5.22999 24.9208 8.30584C24.4861 7.67971 23.7692 7.26422 22.9539 7.24359L22.8902 7.24279C22.8451 7.24279 22.8002 7.24442 22.7556 7.24681C21.8776 4.84964 20.3474 1.73718 18.0482 1.7091C15.6796 1.6802 14.3431 4.76935 13.5598 7.2452C12.3005 7.29947 11.2858 8.29606 11.2034 9.54732H10.2097C9.99887 9.54732 9.79423 9.57371 9.59889 9.62335C7.04521 9.04496 3.39011 8.55591 2.20715 10.6108C0.795641 13.0629 4.25234 16.9461 5.9006 18.6378C5.61856 19.0279 5.44774 19.5037 5.4347 20.0186L5.4339 20.0823L5.4347 20.146C5.44563 20.5776 5.56771 20.9815 5.77291 21.3307C4.07136 23.0909 1.00308 26.5212 2.42185 28.909C3.50703 30.7352 6.67629 30.6854 9.0812 30.3451C9.41946 30.5191 9.8031 30.6173 10.2097 30.6173H11.2034C11.2278 30.9879 11.3341 31.3361 11.5042 31.6442C8.31651 32.3605 2.88547 33.0265 0.9352 29.7442C-1.05689 26.3901 2.52916 22.154 4.74702 19.8851C2.45759 17.5509 -1.21498 13.0588 0.697343 9.73668C2.61517 6.40509 8.25266 7.49529 11.4295 8.32545C12.2739 5.28069 14.1326 -0.0470584 18.0233 0.000313786Z" fill="white"/>
<path d="M21.7375 30.4527V29.3004H19.4319V30.4527C19.4319 31.089 18.9158 31.6049 18.2791 31.6049C17.6425 31.6049 17.1264 31.089 17.1264 30.4527V29.3004H14.8208V30.4527C14.8208 31.089 14.3047 31.6049 13.668 31.6049C13.0314 31.6049 12.5152 31.089 12.5152 30.4527V29.3004H10.2097C9.57302 29.3004 9.05691 28.7845 9.05691 28.1481V25.8436H7.90413C7.26747 25.8436 6.75135 25.3277 6.75135 24.6913C6.75135 24.055 7.26747 23.5391 7.90413 23.5391H9.05691V21.2346H7.90413C7.26747 21.2346 6.75135 20.7187 6.75135 20.0823C6.75135 19.4459 7.26747 18.93 7.90413 18.93H9.05691V16.6255H7.90413C7.26747 16.6255 6.75135 16.1096 6.75135 15.4732C6.75135 14.8369 7.26747 14.321 7.90413 14.321H9.05691V12.0164L9.06253 11.8983C9.12171 11.3174 9.61292 10.8642 10.2097 10.8642H12.5152V9.71192C12.5152 9.07554 13.0314 8.55965 13.668 8.55965C14.3047 8.55965 14.8208 9.07554 14.8208 9.71192V10.8642H17.1264V9.71192C17.1264 9.07554 17.6425 8.55965 18.2791 8.55965C18.9158 8.55965 19.4319 9.07554 19.4319 9.71192V10.8642H21.7375V9.71192C21.7375 9.07554 22.2536 8.55965 22.8902 8.55965C23.5269 8.55965 24.043 9.07554 24.043 9.71192V10.8642H26.3486L26.4668 10.8698C27.0479 10.929 27.5014 11.4199 27.5014 12.0164V14.321H28.6541C29.2908 14.321 29.8069 14.8369 29.8069 15.4732C29.8069 16.1096 29.2908 16.6255 28.6541 16.6255H27.5014V18.93H28.6541C29.2908 18.93 29.8069 19.4459 29.8069 20.0823C29.8069 20.7187 29.2908 21.2346 28.6541 21.2346H27.5014V23.5391H28.6541C29.2908 23.5391 29.8069 24.055 29.8069 24.6913C29.8069 25.3277 29.2908 25.8436 28.6541 25.8436H27.5014V28.1481C27.5014 28.7845 26.9852 29.3004 26.3486 29.3004H24.043V30.4527C24.043 31.089 23.5269 31.6049 22.8902 31.6049C22.2536 31.6049 21.7375 31.089 21.7375 30.4527ZM11.3625 26.9959H25.1958V13.1687H11.3625V26.9959ZM21.7375 15.4732C22.3741 15.4732 22.8902 15.9891 22.8902 16.6255V23.5391C22.8902 23.8447 22.7687 24.1377 22.5525 24.3538C22.3363 24.5699 22.0432 24.6913 21.7375 24.6913H14.8208C14.1841 24.6913 13.668 24.1755 13.668 23.5391V16.6255C13.668 15.9891 14.1841 15.4732 14.8208 15.4732H21.7375ZM15.9736 22.3868H20.5847V17.7778H15.9736V22.3868Z" fill="white"/>
</svg>
