<svg xmlns="http://www.w3.org/2000/svg" width="32" height="33" viewBox="0 0 32 33" fill="none">
<path d="M4 16.5H6.66667M4 16.5C4 13.1863 5.34315 10.1863 7.51472 8.01472M4 16.5C4 19.8137 5.34315 22.8137 7.51472 24.9853M16 4.5V7.16667M16 4.5C12.6863 4.5 9.68629 5.84315 7.51472 8.01472M16 4.5C19.3137 4.5 22.3137 5.84315 24.4853 8.01472M28 16.5H25.3333M28 16.5C28 13.1863 26.6569 10.1863 24.4853 8.01472M28 16.5C28 19.8137 26.6569 22.8137 24.4853 24.9853M7.51472 8.01472L9.33333 9.83333M24.4853 8.01472L22.6667 9.83333M16 16.5L19.3333 13.1667M7.51472 24.9853C9.68629 27.1569 12.6863 28.5 16 28.5C19.3137 28.5 22.3137 27.1569 24.4853 24.9853M7.51472 24.9853L9.33333 23.1667M24.4853 24.9853L22.6667 23.1667" stroke="#001A72" stroke-width="2" stroke-linecap="round" stroke-linejoin="round"/>
</svg>