<svg width="96" height="96" viewBox="0 0 96 96" fill="none" xmlns="http://www.w3.org/2000/svg">
<g id="techno icon/React">
<path id="Vector (Stroke)" fill-rule="evenodd" clip-rule="evenodd" d="M32.0876 48.0004C33.2094 50.3203 34.4537 52.6737 35.8165 55.0342C37.1794 57.3947 38.5954 59.6491 40.0436 61.7806C42.6137 61.969 45.274 62.0681 47.9997 62.0681C50.7255 62.0681 53.3858 61.969 55.9559 61.7806C57.4043 59.6489 58.8205 57.3942 60.1835 55.0334C61.5462 52.6732 62.7904 50.32 63.9121 48.0004C62.7902 45.6803 61.5459 43.3268 60.183 40.9662C58.8201 38.6056 57.4041 36.3513 55.9559 34.2198C53.3858 34.0313 50.7255 33.9322 47.9997 33.9322C45.274 33.9322 42.6137 34.0313 40.0437 34.2198C38.5956 36.351 37.1798 38.6052 35.8171 40.9655C34.454 43.3263 33.2095 45.6801 32.0876 48.0004ZM31.0014 50.3202C31.9527 52.2141 32.9812 54.1233 34.0845 56.0342C35.1877 57.9451 36.3269 59.7905 37.4915 61.5613C33.8509 61.2022 30.4184 60.6613 27.2704 59.9685C28.2444 56.8957 29.4922 53.6526 31.0014 50.3202ZM29.871 48.0004C27.9954 51.9718 26.4696 55.8508 25.3177 59.5103C23.1972 58.9805 21.2244 58.3792 19.4256 57.7165C15.7895 56.3769 12.9169 54.8056 10.9718 53.1113C9.02434 51.4149 8.10095 49.6848 8.10095 48.0002C8.10095 46.3155 9.02434 44.5854 10.9718 42.8891C12.9169 41.1948 15.7895 39.6235 19.4256 38.2838C21.2244 37.6212 23.1971 37.0198 25.3174 36.4901C26.4694 40.1497 27.9953 44.0288 29.871 48.0004ZM31.0014 45.6805C31.9528 43.7862 32.9815 41.8767 34.085 39.9655C35.1881 38.0548 36.3271 36.2096 37.4915 34.439C33.8509 34.7982 30.4183 35.339 27.2701 36.0319C28.2441 39.1048 29.4921 42.348 31.0014 45.6805ZM26.6906 34.1117C30.4358 33.2796 34.5581 32.6615 38.9354 32.3001C41.4369 28.69 44.0333 25.429 46.6265 22.6016C45.1076 21.0302 43.6005 19.6225 42.1273 18.3961C39.1491 15.9169 36.352 14.2149 33.9121 13.3775C31.4693 12.5391 29.5093 12.6045 28.0503 13.4468C26.5914 14.2891 25.5548 15.9539 25.0594 18.4886C24.5647 21.0203 24.6402 24.2936 25.2981 28.1124C25.6236 30.0015 26.0892 32.0106 26.6906 34.1117ZM47.9997 24.0636C45.8256 26.4435 43.6409 29.1458 41.5096 32.1192C43.6255 31.996 45.7932 31.9322 47.9997 31.9322C50.2063 31.9322 52.374 31.996 54.4899 32.1192C52.3585 29.1458 50.1738 26.4435 47.9997 24.0636ZM57.0642 32.3001C54.5625 28.69 51.9661 25.4289 49.3728 22.6016C50.892 21.0299 52.3993 19.6219 53.8727 18.3954C56.851 15.9162 59.648 14.2141 62.0879 13.3768C64.5307 12.5384 66.4907 12.6037 67.9497 13.4461C69.4086 14.2884 70.4452 15.9531 70.9406 18.4878C71.4353 21.0195 71.3598 24.2929 70.7019 28.1117C70.3764 30.001 69.9107 32.0103 69.3092 34.1118C65.5639 33.2796 61.4415 32.6615 57.0642 32.3001ZM58.508 34.439C59.6726 36.2099 60.8117 38.0552 61.915 39.9662C63.0183 41.8772 64.047 43.7865 64.9983 45.6806C66.5076 42.348 67.7556 39.1048 68.7297 36.032C65.5814 35.3391 62.1488 34.7982 58.508 34.439ZM70.6823 36.4902C69.5304 40.1497 68.0044 44.0288 66.1287 48.0004C68.0043 51.9718 69.5302 55.8508 70.682 59.5102C72.8024 58.9805 74.7751 58.3792 76.5738 57.7165C80.21 56.3769 83.0826 54.8056 85.0277 53.1112C86.9751 51.4149 87.8985 49.6848 87.8985 48.0002C87.8985 46.3155 86.9751 44.5854 85.0277 42.8891C83.0825 41.1948 80.21 39.6235 76.5739 38.2838C74.7752 37.6212 72.8026 37.0199 70.6823 36.4902ZM68.7294 59.9684C67.7554 56.8957 66.5075 53.6526 64.9983 50.3202C64.0471 52.2139 63.0187 54.1228 61.9156 56.0334C60.8121 57.9446 59.6728 59.7902 58.5081 61.5613C62.1487 61.2022 65.5813 60.6613 68.7294 59.9684ZM57.0642 63.7002C61.4415 63.3388 65.5637 62.7208 69.3089 61.8886C69.9103 63.9898 70.3759 65.9988 70.7014 67.8879C71.3593 71.7067 71.4348 74.9801 70.94 77.5118C70.4447 80.0465 69.4081 81.7112 67.9491 82.5535C66.4902 83.3959 64.5302 83.4612 62.0874 82.6228C59.6475 81.7855 56.8504 80.0834 53.8722 77.6042C52.3989 76.3778 50.8918 74.97 49.3729 73.3986C51.9661 70.5713 54.5626 67.3103 57.0642 63.7002ZM54.49 63.8812C52.374 64.0043 50.2063 64.0681 47.9997 64.0681C45.7932 64.0681 43.6255 64.0043 41.5095 63.8812C43.6409 66.8545 45.8256 69.5567 47.9997 71.9366C50.1738 69.5567 52.3585 66.8545 54.49 63.8812ZM46.6265 73.3985C44.0332 70.5712 41.4369 67.3103 38.9353 63.7002C34.5582 63.3388 30.436 62.7208 26.6909 61.8887C26.0896 63.9895 25.624 65.9983 25.2986 67.8872C24.6407 71.706 24.5652 74.9793 25.06 77.511C25.5553 80.0458 26.5919 81.7105 28.0509 82.5528C29.5098 83.3951 31.4698 83.4605 33.9126 82.6221C36.3525 81.7847 39.1496 80.0827 42.1278 77.6035C43.6009 76.3773 45.1078 74.9697 46.6265 73.3985ZM24.7426 61.428C22.5891 60.8869 20.5777 60.2723 18.7342 59.5932C14.9691 58.206 11.8522 56.5305 9.65817 54.6194C7.46645 52.7103 6.10095 50.4764 6.10095 48.0002C6.10095 45.5239 7.46644 43.2901 9.65817 41.381C11.8522 39.4699 14.9691 37.7943 18.7342 36.4072C20.5776 35.728 22.5889 35.1134 24.7423 34.5725C24.1341 32.4371 23.6607 30.3879 23.3271 28.452C22.6459 24.4978 22.5385 20.9606 23.0966 18.105C23.654 15.2524 24.9059 12.9529 27.0503 11.7148C29.1948 10.4766 31.8122 10.5423 34.5613 11.4858C37.3134 12.4303 40.323 14.2919 43.4068 16.859C44.9166 18.1158 46.4545 19.5503 47.9997 21.1446C49.5451 19.55 51.0832 18.1152 52.5932 16.8583C55.677 14.2912 58.6866 12.4296 61.4387 11.4851C64.1879 10.5415 66.8052 10.4759 68.9497 11.714C71.0942 12.9521 72.346 15.2516 72.9035 18.1043C73.4615 20.9599 73.3541 24.497 72.6729 28.4513C72.3393 30.3875 71.8658 32.4369 71.2575 34.5725C73.4108 35.1135 75.422 35.7281 77.2653 36.4072C81.0304 37.7943 84.1473 39.4699 86.3413 41.381C88.533 43.2901 89.8985 45.5239 89.8985 48.0002C89.8985 50.4764 88.533 52.7103 86.3413 54.6193C84.1473 56.5305 81.0303 58.206 77.2653 59.5932C75.4219 60.2723 73.4106 60.8869 71.2572 61.4279C71.8654 63.5632 72.3388 65.6124 72.6723 67.5483C73.3536 71.5026 73.461 75.0397 72.9029 77.8953C72.3455 80.748 71.0936 83.0475 68.9491 84.2856C66.8046 85.5237 64.1873 85.4581 61.4381 84.5145C58.6861 83.57 55.6765 81.7084 52.5927 79.1413C51.0828 77.8845 49.5449 76.4499 47.9997 74.8555C46.4547 76.4496 44.917 77.884 43.4074 79.1406C40.3235 81.7077 37.314 83.5693 34.5619 84.5138C31.8127 85.4574 29.1954 85.523 27.0509 84.2849C24.9064 83.0467 23.6546 80.7473 23.0971 77.8946C22.539 75.039 22.6464 71.5019 23.3277 67.5476C23.6612 65.6119 24.1345 63.563 24.7426 61.428ZM45.809 44.2057C43.7134 45.4156 42.9954 48.0953 44.2053 50.1909C45.4152 52.2865 48.0948 53.0045 50.1905 51.7946C52.2861 50.5847 53.0041 47.9051 51.7942 45.8095C50.5843 43.7139 47.9046 42.9958 45.809 44.2057ZM42.4733 51.1909C40.7111 48.1387 41.7568 44.2359 44.809 42.4737C47.8612 40.7115 51.764 41.7573 53.5262 44.8095C55.2884 47.8616 54.2426 51.7645 51.1905 53.5266C48.1383 55.2888 44.2355 54.2431 42.4733 51.1909Z" fill="#001A72"/>
</g>
</svg>
