<svg width="120" height="32" viewBox="0 0 120 32" fill="none" xmlns="http://www.w3.org/2000/svg">
<path d="M112.883 10.9797V0.839762H119.028V1.94067H114.014V9.87878H118.999V10.9797H112.883ZM113.405 6.31532V5.21441H118.217V6.31532H113.405Z" fill="#001A72"/>
<path d="M104.236 10.9797L100.309 0.839762H101.584L104.106 7.4452C104.222 7.74456 104.323 8.01013 104.41 8.2419C104.497 8.47367 104.574 8.69579 104.642 8.90824C104.719 9.11104 104.792 9.31384 104.859 9.51664C104.927 9.71943 105 9.94155 105.077 10.183L104.7 10.1975C104.797 9.86912 104.888 9.56492 104.975 9.28487C105.072 9.00481 105.169 8.71993 105.265 8.43022C105.371 8.13085 105.502 7.78319 105.656 7.38725L108.164 0.839762H109.439L105.396 10.9797H104.236Z" fill="#001A72"/>
<path d="M92.9276 10.9797V9.90775H94.5652V1.9117H92.9276V0.839762H97.3332V1.9117H95.6956V9.90775H97.3332V10.9797H92.9276Z" fill="#001A72"/>
<path d="M85.7552 10.9797V1.94067H82.8568V0.839762H89.8999V1.94067H86.8856V10.9797H85.7552Z" fill="#001A72"/>
<path d="M72.1609 10.9797L76.0448 0.839762H77.3346L81.1895 10.9797H79.9576L77.4795 4.40322C77.4119 4.21974 77.3346 4.00728 77.2476 3.76585C77.1703 3.51477 77.0834 3.25886 76.9868 2.99812C76.8998 2.72772 76.8129 2.46698 76.7259 2.21589C76.6486 1.96481 76.5762 1.7427 76.5085 1.54956H76.7984C76.7211 1.79098 76.639 2.03724 76.552 2.28832C76.4747 2.52975 76.3926 2.776 76.3056 3.02709C76.2187 3.26851 76.1317 3.50994 76.0448 3.75137C75.9578 3.99279 75.8709 4.23422 75.7839 4.47565L73.3203 10.9797H72.1609ZM73.813 8.18396L74.2333 7.08306H79.0302L79.4939 8.18396H73.813Z" fill="#001A72"/>
<path d="M60.2903 10.9797V0.839762H61.3192L67.9566 9.61803L67.7537 9.87878C67.7247 9.72426 67.7005 9.49249 67.6812 9.18347C67.6716 8.87444 67.6571 8.52679 67.6377 8.1405C67.6281 7.74456 67.6184 7.33414 67.6088 6.90923C67.5991 6.48432 67.5894 6.06906 67.5798 5.66347C67.5798 5.25787 67.5798 4.8909 67.5798 4.56256V0.839762H68.7102V10.9797H67.6522L61.0439 2.31729L61.2178 2.0131C61.2467 2.39938 61.2709 2.78083 61.2902 3.15746C61.3192 3.53408 61.3385 3.89622 61.3482 4.24388C61.3675 4.59153 61.382 4.91022 61.3917 5.19993C61.4013 5.48964 61.4062 5.73589 61.4062 5.93869C61.4158 6.14149 61.4207 6.28635 61.4207 6.37326V10.9797H60.2903Z" fill="#001A72"/>
<path d="M46.9838 10.9797V1.94067H44.0854V0.839762H51.1286V1.94067H48.1142V10.9797H46.9838Z" fill="#001A72"/>
<path d="M37.9583 11.1245C37.2337 11.1245 36.5671 10.999 35.9584 10.7479C35.3498 10.4872 34.8232 10.125 34.3788 9.66149C33.9344 9.18829 33.5866 8.63301 33.3354 7.99565C33.0938 7.35828 32.9731 6.66297 32.9731 5.90972C32.9731 5.16613 33.0938 4.4853 33.3354 3.86725C33.5866 3.23954 33.9392 2.69392 34.3933 2.23038C34.8474 1.75718 35.3739 1.39504 35.9729 1.14396C36.5719 0.892876 37.2289 0.767334 37.9438 0.767334C38.4173 0.767334 38.8858 0.844591 39.3496 0.999104C39.8133 1.14396 40.2384 1.34676 40.6249 1.6075C41.021 1.86824 41.3447 2.16761 41.5958 2.50561L40.8133 3.3168C40.5717 3.02709 40.2916 2.776 39.9727 2.56355C39.6636 2.35109 39.3351 2.18692 38.9873 2.07104C38.6395 1.95515 38.2917 1.89721 37.9438 1.89721C37.4028 1.89721 36.8956 1.99861 36.4222 2.20141C35.9584 2.39455 35.5575 2.66978 35.2193 3.02709C34.8812 3.3844 34.6155 3.80931 34.4223 4.30182C34.2387 4.79433 34.1469 5.3303 34.1469 5.90972C34.1469 6.50846 34.2387 7.05891 34.4223 7.56108C34.6155 8.06325 34.886 8.49782 35.2338 8.86478C35.5913 9.2221 36.0067 9.50215 36.4802 9.70495C36.9632 9.89809 37.4994 9.99466 38.0888 9.99466C38.4366 9.99466 38.7844 9.94637 39.1322 9.8498C39.48 9.74358 39.7988 9.59872 40.0887 9.41524C40.3785 9.23175 40.6249 9.02413 40.8278 8.79236L41.4075 9.73392C41.1852 10.0043 40.8857 10.2457 40.5089 10.4582C40.1418 10.661 39.736 10.8252 39.2916 10.9507C38.8472 11.0666 38.4028 11.1245 37.9583 11.1245Z" fill="#001A72"/>
<path d="M21.5632 10.9797L25.4471 0.839762H26.7368L30.5917 10.9797H29.3599L26.8818 4.40322C26.8141 4.21974 26.7368 4.00728 26.6499 3.76585C26.5726 3.51477 26.4856 3.25886 26.389 2.99812C26.3021 2.72772 26.2151 2.46698 26.1282 2.21589C26.0509 1.96481 25.9784 1.7427 25.9108 1.54956H26.2006C26.1233 1.79098 26.0412 2.03724 25.9543 2.28832C25.877 2.52975 25.7949 2.776 25.7079 3.02709C25.621 3.26851 25.534 3.50994 25.4471 3.75137C25.3601 3.99279 25.2731 4.23422 25.1862 4.47565L22.7225 10.9797H21.5632ZM23.2153 8.18396L23.6355 7.08306H28.4324L28.8962 8.18396H23.2153Z" fill="#001A72"/>
<path d="M12.4241 10.9797V0.839762H18.5687V1.94067H13.5545V9.87878H18.5398V10.9797H12.4241ZM12.9458 6.31532V5.21441H17.7572V6.31532H12.9458Z" fill="#001A72"/>
<path d="M1.263 10.9797V0.839762H5.23383C5.82317 0.839762 6.35454 0.97979 6.82795 1.25985C7.31102 1.53024 7.69265 1.90204 7.97283 2.37524C8.25301 2.84843 8.39309 3.3844 8.39309 3.98314C8.39309 4.54325 8.25784 5.05024 7.98732 5.50413C7.7168 5.95801 7.34967 6.32015 6.88592 6.59055C6.42218 6.85129 5.90046 6.98166 5.32078 6.98166H2.39338V10.9797H1.263ZM7.45111 10.9797L4.90051 6.51812L5.98741 6.14149L8.79887 10.9797H7.45111ZM2.39338 5.88075H5.42222C5.77969 5.88075 6.09369 5.79867 6.36421 5.6345C6.63472 5.47033 6.84727 5.24821 7.00186 4.96816C7.15644 4.67845 7.23373 4.35011 7.23373 3.98314C7.23373 3.5872 7.14195 3.23471 6.95838 2.92569C6.77481 2.61666 6.51879 2.37524 6.1903 2.20141C5.87148 2.02758 5.50434 1.94067 5.0889 1.94067H2.39338V5.88075Z" fill="#001A72"/>
<path d="M4.87932 31.2266L0.660156 17.1689H4.13595L6.24553 24.5592C6.33929 24.8939 6.41965 25.2353 6.48662 25.5834C6.56699 25.9181 6.62726 26.2395 6.66745 26.5474C6.72102 26.8553 6.76121 27.1432 6.78799 27.4109C6.81478 27.6653 6.84157 27.8795 6.86836 28.0536H6.42635C6.50672 27.5582 6.57369 27.1164 6.62726 26.7281C6.69423 26.3399 6.7679 25.9784 6.84827 25.6437C6.92863 25.2956 7.02909 24.9341 7.14964 24.5592L9.23913 18.9964H11.9715L14.0209 24.5592C14.1816 25.001 14.3155 25.4161 14.4227 25.8043C14.5298 26.1926 14.6102 26.5675 14.6638 26.9289C14.7307 27.277 14.7843 27.6251 14.8245 27.9732L14.4227 28.0335C14.4495 27.7925 14.4696 27.5716 14.4829 27.3708C14.4963 27.1565 14.5097 26.9557 14.5231 26.7683C14.5499 26.5675 14.5767 26.3599 14.6035 26.1457C14.6303 25.9315 14.6705 25.6972 14.724 25.4429C14.7776 25.1751 14.8513 24.8739 14.945 24.5391L17.0345 17.1689H20.43L16.2108 31.2266H13.5989L10.2638 23.1334L10.6455 23.1736L7.57155 31.2266H4.87932Z" fill="#001A72"/>
<path d="M26.272 31.4274C25.1603 31.4274 24.1691 31.1864 23.2985 30.7044C22.4412 30.2224 21.7581 29.5664 21.2492 28.7364C20.7536 27.9063 20.5058 26.9557 20.5058 25.8847C20.5058 24.8136 20.7536 23.863 21.2492 23.033C21.7581 22.2029 22.4412 21.5469 23.2985 21.0649C24.1691 20.5829 25.1603 20.3419 26.272 20.3419C27.3837 20.3419 28.3682 20.5829 29.2254 21.0649C30.096 21.5469 30.7791 22.2029 31.2747 23.033C31.7703 23.863 32.0181 24.8136 32.0181 25.8847C32.0181 26.9557 31.7703 27.9063 31.2747 28.7364C30.7791 29.5664 30.096 30.2224 29.2254 30.7044C28.3682 31.1864 27.3837 31.4274 26.272 31.4274ZM26.272 28.656C26.7542 28.656 27.1828 28.5355 27.5578 28.2945C27.9328 28.0536 28.2275 27.7255 28.4418 27.3105C28.6561 26.8955 28.7566 26.4202 28.7432 25.8847C28.7566 25.3491 28.6561 24.8739 28.4418 24.4588C28.2275 24.0304 27.9328 23.6957 27.5578 23.4547C27.1828 23.2137 26.7542 23.0932 26.272 23.0932C25.7898 23.0932 25.3545 23.2137 24.966 23.4547C24.591 23.6957 24.2963 24.0304 24.082 24.4588C23.8677 24.8739 23.7673 25.3491 23.7807 25.8847C23.7673 26.4202 23.8677 26.8955 24.082 27.3105C24.2963 27.7255 24.591 28.0536 24.966 28.2945C25.3545 28.5355 25.7898 28.656 26.272 28.656Z" fill="#001A72"/>
<path d="M33.9192 31.2266V20.5629H36.9731L37.1137 24.0371L36.511 23.3744C36.6717 22.7987 36.9329 22.2832 37.2945 21.828C37.6696 21.3728 38.1049 21.0114 38.6005 20.7436C39.0961 20.4758 39.6251 20.3419 40.1877 20.3419C40.4288 20.3419 40.6498 20.362 40.8507 20.4022C41.065 20.4424 41.2592 20.4892 41.4333 20.5428L40.5493 24.0973C40.402 24.0036 40.2011 23.93 39.9466 23.8764C39.7055 23.8095 39.451 23.776 39.1831 23.776C38.8885 23.776 38.6139 23.8296 38.3594 23.9367C38.1049 24.0304 37.8906 24.171 37.7165 24.3584C37.5423 24.5458 37.4017 24.7667 37.2945 25.0211C37.2008 25.2755 37.1539 25.5633 37.1539 25.8847V31.2266H33.9192Z" fill="#001A72"/>
<path d="M45.9554 28.0937L44.7701 25.6838L49.7527 20.5629H53.992L45.9554 28.0937ZM42.8614 31.2266V16.3657H46.076V31.2266H42.8614ZM50.0942 31.2266L46.3372 26.3666L48.6075 24.5994L53.8915 31.2266H50.0942Z" fill="#001A72"/>
<path d="M55.1591 31.2266V16.3657H58.3737V31.2266H55.1591Z" fill="#001A72"/>
<path d="M65.927 31.4274C64.7483 31.4274 63.7236 31.1931 62.853 30.7245C61.9824 30.2425 61.306 29.5932 60.8238 28.7765C60.3416 27.9464 60.1005 27.0026 60.1005 25.9449C60.1005 25.1282 60.2344 24.3785 60.5023 23.6957C60.7702 23.0129 61.1452 22.4238 61.6274 21.9284C62.1096 21.4197 62.6789 21.0314 63.3352 20.7637C64.0049 20.4825 64.7349 20.3419 65.5251 20.3419C66.2752 20.3419 66.9583 20.4758 67.5744 20.7436C68.204 21.0114 68.7464 21.3862 69.2018 21.8682C69.6572 22.3502 70.0055 22.9192 70.2466 23.5752C70.4877 24.2312 70.5948 24.9475 70.568 25.724L70.5479 26.5875H62.0493L61.5872 24.7801H67.9361L67.5945 25.1617V24.7601C67.5677 24.4253 67.4606 24.1308 67.2731 23.8764C67.0989 23.6087 66.8645 23.4012 66.5699 23.2539C66.2752 23.1066 65.9403 23.033 65.5653 23.033C65.0429 23.033 64.5942 23.1401 64.2192 23.3543C63.8576 23.5551 63.583 23.8563 63.3955 24.258C63.2079 24.6463 63.1142 25.1282 63.1142 25.7039C63.1142 26.293 63.2347 26.8084 63.4758 27.2503C63.7303 27.6787 64.0919 28.0134 64.5607 28.2544C65.0429 28.4954 65.6122 28.6159 66.2685 28.6159C66.7239 28.6159 67.1257 28.5489 67.474 28.415C67.8356 28.2812 68.2241 28.0536 68.6393 27.7322L70.1461 29.861C69.7309 30.2224 69.2889 30.517 68.8201 30.7446C68.3513 30.9722 67.8691 31.1395 67.3735 31.2466C66.8913 31.3671 66.4091 31.4274 65.927 31.4274Z" fill="#001A72"/>
<path d="M73.2992 31.2266V17.8718H76.5138V31.2266H73.2992ZM71.4106 23.3744V20.5629H78.5832V23.3744H71.4106Z" fill="#001A72"/>
<path d="M84.2081 31.4274C83.1634 31.4274 82.2392 31.26 81.4355 30.9253C80.6453 30.5906 80.0157 30.1421 79.547 29.5798L81.4958 27.8929C81.911 28.3079 82.3798 28.6159 82.9022 28.8167C83.4246 29.0041 83.9201 29.0978 84.3889 29.0978C84.5765 29.0978 84.7439 29.0777 84.8912 29.0376C85.0386 28.9974 85.1591 28.9439 85.2529 28.8769C85.36 28.7966 85.4404 28.7096 85.494 28.6159C85.5475 28.5088 85.5743 28.3883 85.5743 28.2544C85.5743 27.9866 85.4538 27.7791 85.2127 27.6318C85.0921 27.5649 84.8912 27.4846 84.6099 27.3908C84.3287 27.2971 83.967 27.19 83.525 27.0695C82.8955 26.9089 82.3463 26.7214 81.8775 26.5072C81.4221 26.2796 81.0471 26.0185 80.7524 25.724C80.4845 25.4429 80.2769 25.1349 80.1296 24.8002C79.9823 24.4521 79.9086 24.0639 79.9086 23.6354C79.9086 23.1401 80.0224 22.6916 80.2501 22.2899C80.4912 21.8883 80.806 21.5402 81.1944 21.2456C81.5963 20.9511 82.0517 20.7302 82.5606 20.5829C83.083 20.4223 83.6188 20.3419 84.1679 20.3419C84.7573 20.3419 85.3198 20.4089 85.8556 20.5428C86.3914 20.6767 86.887 20.8641 87.3424 21.1051C87.8111 21.3461 88.2264 21.6339 88.588 21.9686L86.9004 23.8563C86.6593 23.6287 86.3847 23.4279 86.0766 23.2539C85.7819 23.0664 85.4739 22.9192 85.1524 22.8121C84.8309 22.705 84.5363 22.6514 84.2684 22.6514C84.0675 22.6514 83.8867 22.6715 83.7259 22.7117C83.5786 22.7384 83.4513 22.792 83.3442 22.8723C83.237 22.9393 83.1567 23.0263 83.1031 23.1334C83.0495 23.2271 83.0227 23.3409 83.0227 23.4748C83.0227 23.6087 83.0562 23.7359 83.1232 23.8563C83.2036 23.9768 83.3107 24.0773 83.4447 24.1576C83.5786 24.2379 83.7929 24.3316 84.0876 24.4387C84.3822 24.5325 84.7841 24.6529 85.2931 24.8002C85.9226 24.9743 86.465 25.1684 86.9204 25.3826C87.3758 25.5968 87.7375 25.8512 88.0054 26.1457C88.2197 26.3733 88.3804 26.6411 88.4876 26.949C88.5947 27.2436 88.6483 27.5649 88.6483 27.913C88.6483 28.5958 88.4541 29.2049 88.0656 29.7405C87.6906 30.2626 87.1682 30.6776 86.4985 30.9856C85.8288 31.2801 85.0653 31.4274 84.2081 31.4274Z" fill="#001A72"/>
</svg>
