<svg width="400" height="330" viewBox="0 0 400 330" fill="none" xmlns="http://www.w3.org/2000/svg">
<path d="M313.608 68C310.408 66.8 304.275 64.8333 301.608 64L302.608 72.5C302.275 72 300.408 72.6 295.608 79C290.808 85.4 280.275 93.3333 275.608 96.5C277.208 96.5 279.275 96.1667 280.108 96C280.608 95.5 281.008 95.2 278.608 98C276.208 100.8 265.608 105.5 260.608 107.5L264.108 108.5C263.108 109 259.608 110.7 253.608 113.5C246.108 117 210.608 119 205.108 119.5C200.708 119.9 186.275 118 179.608 117C173.775 115.667 159.708 113.1 150.108 113.5C140.508 113.9 132.108 117 129.108 118.5C127.275 118.5 122.208 118.8 116.608 120C109.608 121.5 97.1079 124 83.1079 131.5C71.9079 137.5 61.4412 140 57.6079 140.5C58.4079 141.3 62.6079 141.5 64.6079 141.5L65.6079 142.5C63.6079 143.333 57.6079 144.5 49.6079 142.5C41.6079 140.5 39.6079 133.667 39.6079 130.5L37.1079 133.5C35.9412 135.333 34.0079 139.9 35.6079 143.5C37.2079 147.1 40.2746 151.667 41.6079 153.5C41.6079 154.7 40.2746 155 39.6079 155C39.7746 156.333 42.3079 159.5 51.1079 161.5C62.1079 164 68.1079 160 71.6079 159C74.4079 158.2 80.4412 153.667 83.1079 151.5C88.6079 151.5 90.6079 148.5 92.1079 147.5C93.6079 146.5 98.1079 142 100.108 141.5C102.108 141 104.108 140.5 106.108 139C107.708 137.8 112.775 131.5 115.108 128.5H117.108C116.608 129.167 115.308 131.7 114.108 136.5C112.608 142.5 113.108 150 116.108 155C119.108 160 124.608 168 122.608 168.5C120.608 169 96.6079 168 94.1079 168C92.1079 168 91.9412 169 92.1079 169.5V207C90.1079 208 90.6079 208.5 89.6079 209.5C88.8079 210.3 89.2746 213.833 89.6079 215.5C89.1079 215.5 87.2079 215.6 83.6079 216C80.0079 216.4 78.1079 221.5 77.6079 224C77.7746 225.833 78.3079 229.3 79.1079 228.5C79.9079 227.7 87.7746 225.167 91.6079 224L92.6079 220C93.6079 219.5 95.9079 218.4 97.1079 218C98.3079 217.6 99.2746 216.167 99.6079 215.5V189.5C99.6079 188.5 100.108 187 101.108 186C101.908 185.2 106.108 185.333 108.108 185.5C107.941 186.5 107.708 188.7 108.108 189.5C108.508 190.3 115.941 198.167 119.608 202L130.608 213.5C131.108 217.5 132.108 217 134.108 218C135.708 218.8 135.775 220.333 135.608 221C134.441 221.333 132.308 223.1 133.108 227.5C133.908 231.9 140.108 234.333 143.108 235L140.608 211.5C138.108 210 122.108 193.5 121.608 192C121.208 190.8 123.441 188.167 124.608 187C128.108 187.167 136.008 187.2 139.608 186C144.108 184.5 151.608 183.5 152.608 183C153.608 182.5 154.108 181.5 155.108 180.5C155.908 179.7 159.775 175.167 161.608 173C162.808 172.6 168.775 172.833 171.608 173C176.775 176.333 190.108 183.7 202.108 186.5C214.108 189.3 232.775 190.333 240.608 190.5C241.108 192.5 239.108 204 238.108 207.5C237.108 211 233.108 222.5 232.108 224C231.308 225.2 229.108 226.167 228.108 226.5C225.941 226.333 219.908 225.8 213.108 225C204.608 224 202.108 217.5 201.108 218C200.308 218.4 197.775 218.5 196.608 218.5C196.775 217.167 197.008 214.5 196.608 214.5C196.108 214.5 191.108 214.5 188.108 215.5C185.708 216.3 183.441 219.833 182.608 221.5L192.608 222.5C194.275 223.833 198.308 226.8 201.108 228C204.608 229.5 208.608 230.5 213.608 232C217.608 233.2 225.608 233.5 229.108 233.5V236.5V242C229.108 244.5 226.108 255 226.108 257.5V261H234.108V265.5H247.608V263C247.608 262 243.608 258 242.608 257.5C241.608 257 238.108 255.5 236.608 255C235.108 254.5 235.608 252 235.608 248.5C235.608 245.7 236.275 240 236.608 237.5C237.108 236.833 238.108 235.1 238.108 233.5C238.108 231.5 244.608 216.5 245.108 214.5C245.608 212.5 251.108 205 253.108 203C254.708 201.4 258.775 197 260.608 195C261.275 195.167 263.708 195.1 268.108 193.5C272.508 191.9 276.608 188.167 278.108 186.5C279.775 185.333 283.108 182.6 283.108 181C283.108 179 282.608 178 283.108 176C283.608 174 285.608 169 286.108 165.5C286.608 162 290.108 155.5 292.108 153.5C294.108 151.5 297.608 147 299.108 145.5C300.608 144 304.108 137 305.108 134.5C306.108 132 308.108 125.5 309.108 121.5C310.108 117.5 312.608 111 313.108 110C313.608 109 318.608 106 322.108 105C325.608 104 342.108 106 344.108 106C346.108 106 358.108 110 359.108 108.5C360.108 107 362.608 104 363.608 103.5C364.608 103 364.608 97 364.108 95C363.608 93 360.608 92.5 358.108 92C355.608 91.5 350.608 87 342.108 82C333.608 77 317.608 69.5 313.608 68Z"/>
</svg>
