<svg width="229" height="64" viewBox="0 0 229 64" fill="none" xmlns="http://www.w3.org/2000/svg">
<g clip-path="url(#clip0_411_1703)">
<path d="M30.5652 20.6678C31.0762 19.9146 31.6356 19.8188 32.0894 19.8188C32.5432 19.8188 33.2992 19.9146 33.8104 20.6678C37.8384 26.2004 44.4872 37.2216 49.3918 45.3514C52.5902 50.6532 55.0468 54.7252 55.5508 55.2434C57.4428 57.1888 60.0376 55.9764 61.5454 53.7698C63.0298 51.5974 63.4418 50.072 63.4418 48.4446C63.4418 47.3362 41.9364 7.3401 39.7706 4.01092C37.6878 0.808812 37.0094 0 33.4446 0H30.777C27.2228 0 26.7092 0.808812 24.6262 4.01092C22.4606 7.3401 0.955078 47.3362 0.955078 48.4446C0.955078 50.072 1.36717 51.5974 2.8516 53.7698C4.35939 55.9764 6.95417 57.1888 8.84611 55.2434C9.35017 54.7252 11.8068 50.6532 15.0052 45.3514C19.9097 37.2216 26.5372 26.2004 30.5652 20.6678Z" fill="black"/>
<path d="M78.3916 3.53516V52.6364H108.311V42.6758H88.7134V32.2944H106.149V22.334H88.7134V13.4957H108.311V3.53516H78.3916Z" fill="black"/>
<path d="M148.234 52.6363L135.82 34.8195L147.397 18.1953H135.68L129.961 26.3321L124.312 18.1953H112.456L124.033 34.8897L111.689 52.6363H123.406L129.892 43.3071L136.378 52.6363H148.234Z" fill="black"/>
<path d="M173.186 17.4941C168.443 17.4941 164.747 19.4582 162.376 23.0356V18.1956H152.542V64H162.376V47.7966C164.747 51.374 168.443 53.338 173.186 53.338C182.043 53.338 189.087 45.2714 189.087 35.381C189.087 25.4906 182.043 17.4941 173.186 17.4941ZM170.954 43.8686C166.142 43.8686 162.376 40.221 162.376 35.381C162.376 30.6112 166.142 26.8936 170.954 26.8936C175.696 26.8936 179.532 30.6814 179.532 35.381C179.532 40.1508 175.696 43.8686 170.954 43.8686Z" fill="black"/>
<path d="M210.537 17.4941C200.424 17.4941 192.752 25.21 192.752 35.4512C192.752 45.6922 200.424 53.338 210.537 53.338C220.579 53.338 228.321 45.6922 228.321 35.4512C228.321 25.21 220.579 17.4941 210.537 17.4941ZM210.537 26.9636C215.139 26.9636 218.697 30.541 218.697 35.4512C218.697 40.221 215.139 43.8686 210.537 43.8686C205.863 43.8686 202.377 40.221 202.377 35.4512C202.377 30.541 205.863 26.9636 210.537 26.9636Z" fill="black"/>
</g>
<defs>
<clipPath id="clip0_411_1703">
<rect width="228" height="64" fill="white" transform="translate(0.955078)"/>
</clipPath>
</defs>
</svg>
