<svg width="69" height="40" viewBox="0 0 69 42" fill="none" xmlns="http://www.w3.org/2000/svg">
<path d="M1 25.2059V24.4273L2.97086 22.9134C2.97086 22.9134 2.97086 21.3995 2.97086 21.2264C2.97086 21.0534 2.97086 20.1018 2.97086 20.1018L2.60268 19.4746C2.60268 19.4746 6.11124 17.074 6.2845 16.9226C6.45776 16.7496 9.10001 15.2357 9.10001 15.2357L11.1575 14.5868C11.1575 14.5868 13.5182 14.4787 13.908 14.5868C14.2979 14.695 17.6548 14.695 17.6548 14.695L18.7161 14.0894L22.4196 12.2943L26.5562 11.1697H29.6316L33.5083 11.9483H39.3776L44.3589 11.1697L46.0915 10.1749L47.9541 9.22326L46.1132 9.00698C46.1132 9.00698 46.5463 8.25003 46.5896 8.18514C46.633 8.12026 47.7592 7.51469 47.7592 7.51469L49.0803 6.75774H47.4343C47.4343 6.75774 48.4955 5.89264 48.6038 5.71962C48.7121 5.5466 49.4052 5.26545 49.4052 5.26545L50.683 5.00592L52.5888 4.05432L53.7584 2.43226C53.7584 2.43226 55.0578 1.97809 55.2744 1.97809C55.491 1.97809 56.0108 1.97809 56.2274 1.97809C56.4439 1.97809 57.6568 1.15625 57.6568 1.15625L58.6964 2.02134L60.9271 3.14597L63.2878 4.98429L64.0242 6.39007L67.0562 9.02861L67.8792 10.456L67.3378 12.0132L66.6664 12.2295L65.5402 12.5106L64.5656 11.9483L61.6635 11.2779L60.3207 10.4993L58.0899 10.3263L56.314 11.3427L54.4514 16.2522L54.1699 19.0421L53.715 20.8372L53.0437 21.9618L58.8263 23.9299L62.9629 26.8496L66.2766 29.1421L66.3849 30.0288L67.8792 31.1967L68.2691 32.4943L65.8218 32.8836L64.414 30.4613L63.0062 29.1204L58.9779 26.1575H57.007L56.4439 28.3418L54.2565 31.0236H53.1953L51.1161 32.2131V30.1153L51.6792 29.6179H53.022L54.1482 28.5581L54.8196 27.6065V26.1575L52.2423 25.3789L48.6038 26.2872L46.3947 25.8763L44.0124 26.9144C44.0124 26.9144 36.2805 25.4438 36.1073 25.3356C35.934 25.2275 33.53 24.4489 33.53 24.4489L32.4688 24.5571H31.8623L33.1185 27.3037L34.7862 29.7044L40.5688 32.5592L41.76 33.2513L41.9332 33.7271L43.7308 34.4408L44.099 35.068L42.1281 35.8465L40.5471 34.8733C40.5471 34.8733 38.4896 33.7054 38.338 33.6622C38.1648 33.5973 35.7607 32.0834 35.7607 32.0834C35.7607 32.0834 32.2522 31.4346 32.2522 31.2832C32.2522 31.1102 30.173 28.4932 30.0647 28.2986C29.9565 28.1039 28.0289 25.5303 28.0289 25.5303L26.8377 24.8382L25.6033 28.9258L22.961 32.8403L23.0693 34.2894L25.0835 38.4851L26.7728 40.2802L26.2746 40.8425H23.9139L22.8527 39.0474V38.1607L19.9072 33.0566V31.932L20.4704 30.9588L21.7698 28.0823L21.9864 26.244C21.9864 26.244 19.2359 23.1729 19.0626 22.935C18.8893 22.7187 17.9364 19.0205 17.9364 19.0205V16.7928C17.9364 16.7928 17.1567 16.7928 16.9834 16.728C16.8102 16.6631 14.7527 17.6147 14.7527 17.6147C14.4062 17.6147 14.4062 17.6147 14.4062 17.6147L11.9372 18.2202L10.1829 19.2367L8.40696 20.5344L6.50108 20.2532L5.09332 21.486L3.68557 23.9082L2.36444 25.1194L1 25.2059Z" fill="#F8F9FF"/>
<path d="M1.00002 40.8425H68.2691M1 25.2059V24.4273L2.97086 22.9134C2.97086 22.9134 2.97086 21.3995 2.97086 21.2264C2.97086 21.0534 2.97086 20.1018 2.97086 20.1018L2.60268 19.4746C2.60268 19.4746 6.11124 17.074 6.2845 16.9226C6.45776 16.7496 9.10001 15.2357 9.10001 15.2357L11.1575 14.5868C11.1575 14.5868 13.5182 14.4787 13.908 14.5868C14.2979 14.695 17.6548 14.695 17.6548 14.695L18.7161 14.0894L22.4196 12.2943L26.5562 11.1697H29.6316L33.5083 11.9483H39.3776L44.3589 11.1697L46.0915 10.1749L47.9541 9.22326L46.1132 9.00698C46.1132 9.00698 46.5463 8.25003 46.5896 8.18514C46.633 8.12026 47.7592 7.51469 47.7592 7.51469L49.0803 6.75774H47.4343C47.4343 6.75774 48.4955 5.89264 48.6038 5.71962C48.7121 5.5466 49.4052 5.26545 49.4052 5.26545L50.683 5.00592L52.5888 4.05432L53.7584 2.43226C53.7584 2.43226 55.0578 1.97809 55.2744 1.97809C55.491 1.97809 56.0108 1.97809 56.2274 1.97809C56.4439 1.97809 57.6568 1.15625 57.6568 1.15625L58.6963 2.02134L60.9271 3.14597L63.2878 4.98429L64.0242 6.39007L67.0562 9.02861L67.8792 10.456L67.3378 12.0132L66.6664 12.2295L65.5402 12.5106L64.5656 11.9483L61.6635 11.2779L60.3207 10.4993L58.0899 10.3263L56.314 11.3427L54.4514 16.2522L54.1699 19.0421L53.7151 20.8372L53.0437 21.9618L58.8263 23.9299L62.9629 26.8496L66.2766 29.1421L66.3849 30.0288L67.8792 31.1967L68.2691 32.4943L65.8218 32.8836L64.414 30.4613L63.0062 29.1204L58.9779 26.1575H57.007L56.4439 28.3418L54.2565 31.0236H53.1953L51.1161 32.2131V30.1153L51.6792 29.6179H53.022L54.1482 28.5581L54.8196 27.6065V26.1575L52.2423 25.3789L48.6038 26.2872L46.3947 25.8763L44.0124 26.9144C44.0124 26.9144 36.2805 25.4438 36.1073 25.3356C35.934 25.2275 33.53 24.4489 33.53 24.4489L32.4688 24.5571H31.8623L33.1185 27.3037L34.7862 29.7044L40.5688 32.5592L41.76 33.2513L41.9332 33.7271L43.7308 34.4408L44.099 35.068L42.1281 35.8465L40.5471 34.8733C40.5471 34.8733 38.4896 33.7054 38.338 33.6622C38.1648 33.5973 35.7608 32.0834 35.7608 32.0834C35.7608 32.0834 32.2522 31.4346 32.2522 31.2832C32.2522 31.1102 30.173 28.4932 30.0647 28.2986C29.9565 28.1039 28.0289 25.5303 28.0289 25.5303L26.8377 24.8382L25.6032 28.9258L22.961 32.8403L23.0693 34.2894L25.0835 38.4851L26.7728 40.2802L26.2746 40.8425H23.9139L22.8527 39.0474V38.1607L19.9072 33.0566V31.932L20.4704 30.9588L21.7698 28.0823L21.9864 26.244C21.9864 26.244 19.2359 23.1729 19.0626 22.935C18.8893 22.7187 17.9364 19.0205 17.9364 19.0205V16.7928C17.9364 16.7928 17.1567 16.7928 16.9834 16.728C16.8102 16.6631 14.7527 17.6147 14.7527 17.6147C14.4062 17.6147 14.4062 17.6147 14.4062 17.6147L11.9372 18.2202L10.1829 19.2367L8.40696 20.5344L6.50108 20.2532L5.09332 21.486L3.68557 23.9082L2.36444 25.1194L1 25.2059Z" stroke="#F8F9FF" stroke-width="0.711842"/>
</svg>
