<svg width="226" height="64" viewBox="0 0 226 64" fill="none" xmlns="http://www.w3.org/2000/svg">
<g clip-path="url(#clip0_533_3768)">
<path d="M49.0895 12.1457C49.0447 11.832 48.7758 11.6527 48.5517 11.6527C48.3276 11.6527 43.8906 11.5631 43.8906 11.5631C43.8906 11.5631 40.1707 7.97766 39.8122 7.5743C39.4537 7.21576 38.7366 7.30539 38.4677 7.39503C38.4677 7.39503 37.7506 7.61912 36.5853 7.97766C36.406 7.35021 36.0923 6.58831 35.689 5.78158C34.3892 3.27178 32.4173 1.92724 30.0867 1.92724C29.9074 1.92724 29.773 1.92724 29.5937 1.97206C29.5041 1.88243 29.4593 1.79279 29.3696 1.74797C28.3388 0.672343 27.0391 0.134528 25.4705 0.179346C22.4677 0.268982 19.4649 2.46506 16.9999 6.3194C15.2968 9.05329 13.9971 12.4595 13.5937 15.1037C10.1428 16.1793 7.72258 16.9412 7.63295 16.9412C5.88505 17.4791 5.84023 17.5239 5.61614 19.1821C5.5265 20.437 0.955078 55.7984 0.955078 55.7984L39.3192 62.4314L55.9467 58.3082C55.9018 58.3082 49.1343 12.4595 49.0895 12.1457ZM34.6581 8.60511C33.7618 8.87402 32.7758 9.18775 31.7002 9.54629C31.7002 8.02248 31.4761 5.87122 30.8038 4.0785C33.0895 4.43705 34.21 7.03649 34.6581 8.60511ZM29.6834 10.1289C27.6666 10.7564 25.4705 11.4286 23.2744 12.1009C23.9018 9.72556 25.0671 7.39503 26.5013 5.8264C27.0391 5.24377 27.801 4.61632 28.6525 4.25778C29.5489 6.00567 29.7282 8.47066 29.6834 10.1289ZM25.5601 2.19615C26.2772 2.19615 26.8598 2.33061 27.3528 2.68915C26.5461 3.09251 25.7394 3.71996 25.0223 4.52668C23.0951 6.58831 21.6161 9.77038 21.0335 12.8628C19.196 13.4454 17.4033 13.9833 15.7898 14.4763C16.8654 9.59111 20.9439 2.33061 25.5601 2.19615Z" fill="#919FCF"/>
<path d="M48.5513 11.6531C48.3272 11.6531 43.8903 11.5635 43.8903 11.5635C43.8903 11.5635 40.1704 7.97804 39.8118 7.57468C39.6774 7.44022 39.4981 7.35059 39.3188 7.35059V62.4318L55.9463 58.3086C55.9463 58.3086 49.1788 12.4598 49.134 12.1461C49.0443 11.8324 48.7754 11.6531 48.5513 11.6531Z" fill="#F8F9FF"/>
<path d="M30.0865 20.2129L28.1593 27.4286C28.1593 27.4286 26.0081 26.4426 23.4534 26.6218C19.6887 26.8459 19.6887 29.2213 19.6887 29.8039C19.9128 33.0308 28.3834 33.7479 28.8764 41.3221C29.235 47.2829 25.7392 51.3613 20.6299 51.675C14.5347 51.9888 11.1733 48.4033 11.1733 48.4033L12.4731 42.8907C12.4731 42.8907 15.8792 45.4454 18.5683 45.2661C20.3162 45.1764 20.9885 43.6975 20.8988 42.7115C20.6299 38.4986 13.728 38.7675 13.2798 31.8207C12.9212 25.9944 16.7308 20.1232 25.1565 19.5854C28.4282 19.3613 30.0865 20.2129 30.0865 20.2129Z" fill="#F8F9FF"/>
<path d="M78.4451 35.5852C76.518 34.5544 75.532 33.6581 75.532 32.448C75.532 30.9242 76.9213 29.9382 79.0726 29.9382C81.5824 29.9382 83.8233 30.969 83.8233 30.969L85.5712 25.5908C85.5712 25.5908 83.9577 24.3359 79.207 24.3359C72.574 24.3359 67.9577 28.1455 67.9577 33.4788C67.9577 36.5264 70.109 38.8121 72.9773 40.4704C75.3079 41.7701 76.1146 42.7113 76.1146 44.1006C76.1146 45.5348 74.9493 46.7001 72.7981 46.7001C69.616 46.7001 66.5684 45.0418 66.5684 45.0418L64.686 50.42C64.686 50.42 67.4647 52.3023 72.1706 52.3023C78.9829 52.3023 83.9129 48.941 83.9129 42.8906C83.8681 39.6188 81.4031 37.2883 78.4451 35.5852Z" fill="#F8F9FF"/>
<path d="M105.605 24.2464C102.243 24.2464 99.599 25.8598 97.5822 28.28L97.4925 28.2352L100.406 12.9971H92.8315L85.4365 51.8094H93.0107L95.5206 38.5433C96.5065 33.5237 99.106 30.4312 101.526 30.4312C103.229 30.4312 103.902 31.5965 103.902 33.2548C103.902 34.2856 103.812 35.5853 103.588 36.6161L100.719 51.8094H108.294L111.252 36.1231C111.565 34.4648 111.789 32.4929 111.789 31.1483C111.834 26.8458 109.593 24.2464 105.605 24.2464Z" fill="#F8F9FF"/>
<path d="M129 24.2461C119.857 24.2461 113.807 32.4926 113.807 41.6803C113.807 47.5514 117.437 52.3021 124.249 52.3021C133.213 52.3021 139.263 44.2797 139.263 34.8679C139.308 29.445 136.126 24.2461 129 24.2461ZM125.28 46.5206C122.681 46.5206 121.605 44.3245 121.605 41.5458C121.605 37.1985 123.846 30.1172 127.969 30.1172C130.658 30.1172 131.555 32.4478 131.555 34.6887C131.555 39.3497 129.269 46.5206 125.28 46.5206Z" fill="#F8F9FF"/>
<path d="M158.714 24.2461C153.605 24.2461 150.692 28.7727 150.692 28.7727H150.602L151.05 24.6943H144.327C144.014 27.4282 143.386 31.641 142.804 34.7783L137.515 62.5654H145.089L147.196 51.3161H147.375C147.375 51.3161 148.944 52.3021 151.812 52.3021C160.731 52.3021 166.557 43.1593 166.557 33.9268C166.557 28.8175 164.271 24.2461 158.714 24.2461ZM151.453 46.6102C149.482 46.6102 148.316 45.4898 148.316 45.4898L149.571 38.4086C150.468 33.6579 152.932 30.5206 155.577 30.5206C157.907 30.5206 158.624 32.6719 158.624 34.6887C158.624 39.6186 155.711 46.6102 151.453 46.6102Z" fill="#F8F9FF"/>
<path d="M177.403 13.3555C174.983 13.3555 173.056 15.2826 173.056 17.7476C173.056 19.9885 174.49 21.5571 176.641 21.5571H176.731C179.106 21.5571 181.123 19.9437 181.168 17.165C181.168 14.9689 179.689 13.3555 177.403 13.3555Z" fill="#F8F9FF"/>
<path d="M166.781 51.7638H174.355L179.51 24.873H171.89L166.781 51.7638Z" fill="#F8F9FF"/>
<path d="M198.826 24.8287H193.538L193.806 23.5738C194.255 20.9744 195.778 18.6887 198.333 18.6887C199.678 18.6887 200.753 19.092 200.753 19.092L202.232 13.1313C202.232 13.1313 200.933 12.459 198.109 12.459C195.42 12.459 192.731 13.2209 190.669 14.9688C188.07 17.1649 186.86 20.3469 186.277 23.5738L186.053 24.8287H182.512L181.392 30.5654H184.933L180.899 51.8091H188.473L192.507 30.5654H197.75L198.826 24.8287Z" fill="#F8F9FF"/>
<path d="M217.112 24.873C217.112 24.873 212.361 36.8394 210.255 43.3828H210.165C210.031 41.2764 208.283 24.873 208.283 24.873H200.305L204.877 49.5677C204.966 50.1055 204.921 50.4641 204.697 50.8226C203.801 52.5257 202.322 54.184 200.574 55.394C199.14 56.4249 197.526 57.0971 196.271 57.5453L198.378 63.9991C199.902 63.6854 203.129 62.3856 205.818 59.8758C209.269 56.6489 212.496 51.6293 215.767 44.817L225.045 24.873H217.112Z" fill="#F8F9FF"/>
</g>
<defs>
<clipPath id="clip0_533_3768">
<rect width="224.09" height="64" fill="white" transform="translate(0.955078)"/>
</clipPath>
</defs>
</svg>
