<svg viewBox="0 0 1342 304" fill="none" xmlns="http://www.w3.org/2000/svg">
<circle cx="779" cy="261" r="1" transform="rotate(180 779 261)" fill="white"/>
<circle cx="957" cy="288" r="1" transform="rotate(180 957 288)" fill="white"/>
<circle cx="1341" cy="197" r="1" transform="rotate(180 1341 197)" fill="white"/>
<circle cx="1195" cy="233" r="2" transform="rotate(180 1195 233)" fill="white"/>
<circle cx="891" cy="279" r="2" transform="rotate(180 891 279)" fill="white"/>
<circle cx="511.5" cy="207.5" r="3.5" transform="rotate(180 511.5 207.5)" fill="white"/>
<circle cx="324" cy="267" r="1" transform="rotate(180 324 267)" fill="white"/>
<path d="M1157 247.5C1160.41 247.5 1161.5 250.5 1161.5 252C1161.5 248.5 1164.33 247.5 1166 247.5C1162 247.5 1161.5 244.5 1161.5 243C1161.5 246.5 1158.5 247.5 1157 247.5Z" fill="white"/>
<path d="M1237 260.5C1240.41 260.5 1241.5 263.5 1241.5 265C1241.5 261.5 1244.33 260.5 1246 260.5C1242 260.5 1241.5 257.5 1241.5 256C1241.5 259.5 1238.5 260.5 1237 260.5Z" fill="white"/>
<path d="M733 272.5C736.406 272.5 737.5 275.5 737.5 277C737.5 273.5 740.333 272.5 742 272.5C738 272.5 737.5 269.5 737.5 268C737.5 271.5 734.5 272.5 733 272.5Z" fill="white"/>
<path d="M1062 247.5C1065.41 247.5 1066.5 250.5 1066.5 252C1066.5 248.5 1069.33 247.5 1071 247.5C1067 247.5 1066.5 244.5 1066.5 243C1066.5 246.5 1063.5 247.5 1062 247.5Z" fill="white"/>
<path d="M591 196.5C594.406 196.5 595.5 199.5 595.5 201C595.5 197.5 598.333 196.5 600 196.5C596 196.5 595.5 193.5 595.5 192C595.5 195.5 592.5 196.5 591 196.5Z" fill="white"/>
<path d="M461 247.5C464.406 247.5 465.5 250.5 465.5 252C465.5 248.5 468.333 247.5 470 247.5C466 247.5 465.5 244.5 465.5 243C465.5 246.5 462.5 247.5 461 247.5Z" fill="white"/>
<path d="M582 299.5C585.406 299.5 586.5 302.5 586.5 304C586.5 300.5 589.333 299.5 591 299.5C587 299.5 586.5 296.5 586.5 295C586.5 298.5 583.5 299.5 582 299.5Z" fill="white"/>
<path d="M812 147.5C815.405 147.5 816.5 150.5 816.5 152C816.5 148.5 819.333 147.5 821 147.5C817 147.5 816.5 144.5 816.5 143C816.5 146.5 813.5 147.5 812 147.5Z" fill="white"/>
<path d="M1238 187.5C1241.41 187.5 1242.5 190.5 1242.5 192C1242.5 188.5 1245.33 187.5 1247 187.5C1243 187.5 1242.5 184.5 1242.5 183C1242.5 186.5 1239.5 187.5 1238 187.5Z" fill="white"/>
<path d="M121 156.5C124.405 156.5 125.5 159.5 125.5 161C125.5 157.5 128.333 156.5 130 156.5C126 156.5 125.5 153.5 125.5 152C125.5 155.5 122.5 156.5 121 156.5Z" fill="white"/>
<path d="M940 212.5C943.405 212.5 944.5 215.5 944.5 217C944.5 213.5 947.333 212.5 949 212.5C945 212.5 944.5 209.5 944.5 208C944.5 211.5 941.5 212.5 940 212.5Z" fill="white"/>
</svg>
