<svg width="1021" height="113" viewBox="0 0 1021 113" fill="none" xmlns="http://www.w3.org/2000/svg">
<path id="1" d="M185 56.5195C181.594 56.5195 180.5 53.5195 180.5 52.0195C180.5 55.5195 177.667 56.5195 176 56.5195C180 56.5195 180.5 59.5195 180.5 61.0195C180.5 57.5195 183.5 56.5195 185 56.5195Z" fill="white"/>
<circle cx="563" cy="43.0195" r="1" fill="white"/>
<path id="2" d="M105 43.5195C101.594 43.5195 100.5 40.5195 100.5 39.0195C100.5 42.5195 97.6665 43.5195 96 43.5195C100 43.5195 100.5 46.5195 100.5 48.0195C100.5 44.5195 103.5 43.5195 105 43.5195Z" fill="white"/>
<circle cx="385" cy="16.0195" r="1" fill="white"/>
<path id="3" d="M609 31.5195C605.594 31.5195 604.5 28.5195 604.5 27.0195C604.5 30.5195 601.667 31.5195 600 31.5195C604 31.5195 604.5 34.5195 604.5 36.0195C604.5 32.5195 607.5 31.5195 609 31.5195Z" fill="white"/>
<circle cx="1" cy="107.02" r="1" fill="white"/>
<path id="4" d="M280 56.5195C276.594 56.5195 275.5 53.5195 275.5 52.0195C275.5 55.5195 272.667 56.5195 271 56.5195C275 56.5195 275.5 59.5195 275.5 61.0195C275.5 57.5195 278.5 56.5195 280 56.5195Z" fill="white"/>
<circle cx="147" cy="71.0195" r="2" fill="white"/>
<path id="5" d="M751 107.52C747.594 107.52 746.5 104.52 746.5 103.02C746.5 106.52 743.667 107.52 742 107.52C746 107.52 746.5 110.52 746.5 112.02C746.5 108.52 749.5 107.52 751 107.52Z" fill="white"/>
<circle cx="830.5" cy="96.5195" r="3.5" fill="white"/>
<path id="6" d="M881 56.5195C877.594 56.5195 876.5 53.5195 876.5 52.0195C876.5 55.5195 873.667 56.5195 872 56.5195C876 56.5195 876.5 59.5195 876.5 61.0195C876.5 57.5195 879.5 56.5195 881 56.5195Z" fill="white"/>
<circle cx="1018" cy="37.0195" r="1" fill="white"/>
<path id="7" d="M760 4.51953C756.594 4.51953 755.5 1.51953 755.5 0.0195312C755.5 3.51953 752.667 4.51953 751 4.51953C755 4.51953 755.5 7.51953 755.5 9.01953C755.5 5.51953 758.5 4.51953 760 4.51953Z" fill="white"/>
</svg>
