<svg xmlns="http://www.w3.org/2000/svg" xmlns:xlink="http://www.w3.org/1999/xlink" style="enable-background:new 0 0 600 900" id="Layer_1" x="0" y="0" version="1.1" viewBox="0 0 600 900" xml:space="preserve"><style type="text/css">.st1{clip-path:url(#SVGID_2_)}.st438{fill:#071577}.st441{fill:none;stroke:#001a72;stroke-width:2.6;stroke-miterlimit:10}.st456{fill:#001a72}.st509,.st510{stroke-width:2.6}.st509{fill:none;stroke:#001a72;stroke-miterlimit:10;stroke-dasharray:10}.st510{stroke-dasharray:9.5472,9.5472}.st510,.st511,.st512,.st514,.st515{fill:none;stroke:#001a72;stroke-miterlimit:10}.st511{stroke-width:2.6;stroke-dasharray:9.1383,9.1383}.st512{stroke-width:2.5275}.st514,.st515{stroke-width:2.6;stroke-dasharray:10.0415,10.0415}.st515{stroke-dasharray:10.9001,10.9001}</style><g><g><g><line x1="418.3" x2="418.3" y1="178.9" y2="110.2" class="st509"/><g><circle cx="418.3" cy="82.2" r="28" class="st441"/><g><g><g><path d="M419.8,68.1v25.2h-3V75.5c-0.4,0.3-0.9,0.5-1.7,0.5H411v-2.7h4.1c1.2,0,1.8-0.9,1.8-2.2v-3H419.8z" class="st438"/></g></g></g></g></g><g><g><g><line x1="429.4" x2="434.4" y1="716.2" y2="716.2" class="st441"/><line x1="443.9" x2="534.6" y1="716.2" y2="716.2" class="st510"/><polyline points="539.4 716.2 544.4 716.2 544.4 711.2" class="st441"/><line x1="544.4" x2="544.4" y1="702.1" y2="651.8" class="st511"/><line x1="544.4" x2="544.4" y1="647.2" y2="642.2" class="st441"/></g></g><g><circle cx="544.4" cy="614.2" r="28" class="st441"/><g><g><g><path d="M553.4,619.5c0,4.3-3.6,7.2-9.2,7.2s-9.1-3-9.1-8h3.1c0,3.3,2.6,5.3,6.2,5.3c3.3,0,5.9-1.8,5.9-4.7 c0-2.6-2.2-4.3-6.2-4.3h-2.2v-2.6h2c3.8,0,5.7-1.9,5.7-4.4s-2.2-4.1-5.3-4.1c-3.2,0-5.5,1.7-5.5,4.6h-3 c0-4.6,3.4-7.3,8.5-7.3c5.3,0,8.5,2.7,8.5,6.7c0,3.1-1.8,5.2-4.7,5.8C550.8,614,553.4,616,553.4,619.5z" class="st438"/></g></g></g></g></g><g><path d="M104.9,54.4l12.4-9c4.2-2.5,9.6-3,14.5-0.3l339.8,183.8c4,2.2,6.5,6.4,6.5,11v237.9c0,3.2-1.6,5.9-3.9,7.5 c-0.8,0.5-10.5,6.5-10.5,6.5" class="st441"/><path d="M454.2,492.3l-347-187.7c-4.7-2.6-7.7-7.5-7.7-12.9v-226c0-11.1,11.9-18.2,21.7-12.9l339.8,183.8 c4,2.2,6.5,6.4,6.5,11v236.8C467.6,491.2,460.3,495.6,454.2,492.3z" class="st441"/><path d="M412.2,456.5l-295-157.6c-4.4-2.4-7.2-7-7.2-12V73.7c0-5.5,5.8-9,10.6-6.4l293.4,156.8 c5.7,3,9.2,8.9,9.2,15.3v210.5C423.3,455.6,417.2,459.2,412.2,456.5z" class="st441"/><g><line x1="280.2" x2="280.2" y1="237.9" y2="369" class="st441"/><g><line x1="288.2" x2="288.2" y1="241.2" y2="373.3" class="st441"/></g></g><ellipse cx="445" cy="355" class="st512" rx="12" ry="19" transform="matrix(0.866 -0.5 0.5 0.866 -117.8917 270.0408)"/><g><g><g><path d="M390.9,741c6.1,0.2,11.8,2.1,16.4,5.8c15.8,12.6,13.5,41.6-5.1,64.8" class="st441"/><g><polygon points="394.6 745.5 377.2 743 393.5 736.5" class="st456"/></g></g></g><g><g><path d="M373.4,833.6c-12.4,4.7-24.6,4.1-33.2-2.8c-15.8-12.6-13.5-41.6,5.1-64.8" class="st441"/><g><polygon points="368.5 830.7 385.6 827.1 372.6 838.8" class="st456"/></g></g></g></g><polyline points="288.2 360.8 330.3 383.4 319 389.8 241.3 348.2 252.6 341.9 280.2 356.6" class="st441"/><line x1="252.6" x2="252.6" y1="341.9" y2="354.3" class="st441"/><g><defs><polygon id="SVGID_911_" points="79.9 333.1 118.7 310.8 454.2 492.3 486.9 507.8 486.9 856.7 79.9 856.7"/></defs><clipPath id="SVGID_2_"><use style="overflow:visible" xlink:href="#SVGID_911_"/></clipPath><g class="st1"><g><line x1="297.2" x2="352.2" y1="767.1" y2="812.7" class="st441"/><path d="M384.7,808.6c-10.9,9-24.4,11-32.5,4.1c-9.4-8.1-7.7-25.4,3.7-38.6c11.4-13.2,28.3-17.3,37.7-9.2 c6.9,6,7.8,17,3.2,27.7" class="st441"/><ellipse cx="241" cy="689.8" class="st441" rx="47.2" ry="88.5" transform="matrix(0.866 -0.5 0.5 0.866 -312.6247 212.9415)"/><ellipse cx="241.6" cy="687.5" class="st441" rx="31.7" ry="59.5" transform="matrix(0.866 -0.5 0.5 0.866 -311.3971 212.9027)"/><ellipse cx="248.7" cy="684.4" class="st441" rx="24.3" ry="48.2" transform="matrix(0.866 -0.5 0.5 0.866 -308.9019 216.0487)"/><path d="M284.1,768.4l25.8-12.6c1.4-0.7,2.6-1.6,3.6-2.7c3.8-4.3,12.5-16,11.8-33.4 C322.5,655.8,244,534,244,534" class="st441"/><path d="M203.6,525.1c29.2,32.5,91.2,168.7,91.2,168.7" class="st441"/><ellipse cx="218.1" cy="494.4" class="st441" rx="30.7" ry="46.3" transform="matrix(0.866 -0.5 0.5 0.866 -217.9833 175.2748)"/><polyline points="183.8 675.1 170.3 663.3 170.3 580.3 191.8 566.9 212.5 530.4" class="st441"/><line x1="219" x2="219" y1="546.4" y2="586" class="st441"/><path d="M207.2,609.4c0,0,4.1-28,30-31.7" class="st441"/><path d="M268.5,575.1c0,0,32.5,6.8,59.7,49.5c22.2,34.7,27.6,69,27.6,69l26-11.4L368,661.5v-11l18.3,16.6 l57.5-25.2l-0.3,36.5L357,735.3l36.6,29.7" class="st441"/><path d="M288.8,613c0,0,20.7,16.8,34.5,54.1c14.9,40.2,15.4,74.7,0,88.5C307.3,770,270,770,270,770" class="st441"/><path d="M313.9,761.7l30.9-15.4c0,0,18-13.2,11-52.8" class="st441"/><ellipse cx="390.5" cy="800.5" class="st441" rx="9.4" ry="6.2" transform="matrix(0.6292 -0.7772 0.7772 0.6292 -477.3324 600.3082)"/><path d="M396.5,793.1l-13-10.1c-2.2-0.8-4.5-1.4-6.7-0.9c-2.1,0.5-4.7,1.8-6.8,5.1c-0.1,0.2-0.3,0.4-0.4,0.7 c-2.3,4.4-0.7,9.9,3.4,12.7l11.7,8.1" class="st441"/><polyline points="288.6 583.9 333.9 525.1 366.4 526.7" class="st441"/><line x1="221.6" x2="367.6" y1="455.8" y2="527.5" class="st441"/><path d="M388.7,544.2l11.4,25.2c0,0-7.3,7.7-6.5,16.2c1.2,12.1,11.4,18.3,11.4,18.3l-4.9,32.1l-13.8,31.3" class="st441"/><line x1="400.1" x2="428.8" y1="569.3" y2="559.5" class="st441"/><line x1="404.9" x2="439.4" y1="603.8" y2="590" class="st441"/><line x1="400.1" x2="445.1" y1="635.9" y2="618" class="st441"/><polyline points="410.6 540.1 436.6 567.7 444.3 617.6 443.8 642.3" class="st441"/><ellipse cx="387.2" cy="508.3" class="st441" rx="27" ry="40.7" transform="matrix(0.866 -0.5 0.5 0.866 -202.2885 261.7124)"/><ellipse cx="391.3" cy="504.8" class="st441" rx="20.8" ry="32.9" transform="matrix(0.866 -0.5 0.5 0.866 -199.9692 263.2745)"/><ellipse cx="397" cy="501.5" class="st441" rx="14.3" ry="22.6" transform="matrix(0.866 -0.5 0.5 0.866 -197.575 265.6687)"/><ellipse cx="153.7" cy="338.3" class="st441" rx="27" ry="40.7" transform="matrix(0.866 -0.5 0.5 0.866 -148.5755 122.1717)"/><ellipse cx="157.8" cy="334.8" class="st441" rx="20.8" ry="32.9" transform="matrix(0.866 -0.5 0.5 0.866 -146.2561 123.7338)"/><ellipse cx="163.4" cy="331.5" class="st441" rx="14.3" ry="22.6" transform="matrix(0.866 -0.5 0.5 0.866 -143.8619 126.1281)"/><ellipse cx="224.1" cy="490.3" class="st441" rx="14.3" ry="22.6" transform="matrix(0.866 -0.5 0.5 0.866 -215.1194 177.7591)"/><path d="M241.2,534.5l25.9-16.1c6-3.8,9.9-10.2,10.5-17.2c0.3-3.7,0.5-7.7-0.3-10.7c-1.6-6.7-4.2-9.4-4.2-9.4" class="st441"/><path d="M360.7,514.8l-148-71.5c0,0-8.9-4.3-16,2.2c-3.8,3.5-5,10.7-5,10.7" class="st441"/><path d="M198.3,444.2l24.9-13.8c0,0,7.6-3,15.7,1.1c8.1,4.1,118,56.8,118,56.8" class="st441"/><path d="M410.6,542.1l24.4-16.5c0,0,16.7-13.4,4.2-42.2c-7-16.1-21.8-24.1-30.9-27.9 c-1.2-0.5-14.7-6.1-34.5-14.3c-62.4-25.9-189.5-78.6-189.5-78.6" class="st441"/><line x1="152.2" x2="388.8" y1="373.6" y2="473.6" class="st441"/><line x1="265.9" x2="320.3" y1="570.4" y2="542.7" class="st441"/><polyline points="170.3 580.3 189.4 596.5 189.4 618.7" class="st441"/><polyline points="191.8 566.9 211.4 581.2 219.4 574.6" class="st441"/><path d="M277.8,495.8c0,0,4.4,4.9,11.2,4.7c6.8-0.3,13.5-5.1,13.5-5.1" class="st441"/><polyline points="299 553.8 287.9 502.1 290.3 501.5 309 514.2 309.5 547.5" class="st441"/><line x1="206.4" x2="198.3" y1="439" y2="392.7" class="st441"/></g></g></g></g><g><g><g><line x1="55.6" x2="55.6" y1="374" y2="369" class="st441"/><line x1="55.6" x2="55.6" y1="359" y2="283.7" class="st514"/><polyline points="55.6 278.6 55.6 273.6 60.6 273.6" class="st441"/><line x1="71.5" x2="153.3" y1="273.6" y2="273.6" class="st515"/><line x1="158.7" x2="163.7" y1="273.6" y2="273.6" class="st441"/></g></g><g><circle cx="55.6" cy="402" r="28" class="st441"/><g><g><g><path d="M55.9,402.7c2.3-2,4.3-4,4.3-6.7c0-3.2-2.2-5-5.5-5c-3.2,0-5.4,2.2-5.4,5.6v0.5h-3v-0.6 c0-4.8,3.3-8.1,8.4-8.1c5.4,0,8.6,3,8.6,7.5c0,3.8-2.4,6.2-5.4,8.7l-7.6,6.4h13.2v2.8H46.1v-2.6L55.9,402.7z" class="st438"/></g></g></g></g></g><line x1="439.4" x2="439.4" y1="520.1" y2="582.2" class="st441"/><polyline points="457.1 494.4 457.1 572.2 439.4 582.2" class="st441"/></g><g><defs><path id="SVGID_913_" d="M196.6,550.5c0,0,7.8-6.4,7.8-6.4c7.6-13.4,7-12.9,7-12.9c-7.5-4.8-14.5-12.1-19.9-21.4 c-11.7-20.3-11.4-42.9,0.1-53c0.6-2.8,2.2-8.6,5.1-11.2c7-6.5,16-2.2,16-2.2l-6.2-4.3l-6.8-45.4L130,364.5l-5.2,1.3l3.3,177.9 l7.9,10.1l3.6,1.6c13.2,8.1,36.3,7.9,54.3-6.1C193.8,549.2,196.6,550.5,196.6,550.5z"/></defs><clipPath id="SVGID_4_"><use style="overflow:visible" xlink:href="#SVGID_913_"/></clipPath><g style="clip-path:url(#SVGID_4_)"><path d="M191.6,383.7c0,0-0.7,3.7-5.9,7.5" class="st441"/><path d="M198.3,391.3c0,0-1.7,3.7-6.8,7.5" class="st441"/><path d="M191.6,408.8c0,0-0.7,3.7-5.9,7.5" class="st441"/><path d="M198.3,416.4c0,0-1.7,3.7-6.8,7.5" class="st441"/><path d="M191.6,433.9c0,0-0.7,3.7-5.9,7.5" class="st441"/><path d="M198.3,441.5c0,0-1.7,3.7-6.8,7.5" class="st441"/><path d="M191.6,459c0,0-0.7,3.7-5.9,7.5" class="st441"/><path d="M198.3,466.6c0,0-1.7,3.7-6.8,7.5" class="st441"/><path d="M191.6,484.2c0,0-0.7,3.7-5.9,7.5" class="st441"/><path d="M198.3,491.7c0,0-1.7,3.7-6.8,7.5" class="st441"/><path d="M191.6,509.3c0,0-0.7,3.7-5.9,7.5" class="st441"/><path d="M198.3,516.9c0,0-1.7,3.7-6.8,7.5" class="st441"/><path d="M191.6,534.4c0,0-0.7,3.7-5.9,7.5" class="st441"/><path d="M198.3,542c0,0-1.7,3.7-6.8,7.5" class="st441"/><path d="M191.6,559.5c0,0-0.7,3.7-5.9,7.5" class="st441"/><path d="M198.3,567.1c0,0-1.7,3.7-6.8,7.5" class="st441"/><path d="M191.6,584.7c0,0-0.7,3.7-5.9,7.5" class="st441"/><path d="M198.3,592.2c0,0-1.7,3.7-6.8,7.5" class="st441"/><path d="M191.6,609.8c0,0-0.7,3.7-5.9,7.5" class="st441"/><path d="M198.3,617.4c0,0-1.7,3.7-6.8,7.5" class="st441"/><g><path d="M160,635c-8.2,0-15.3-1.9-19.8-5.5c-3.4-2.7-5.4-6.3-5.7-10.4c-0.4-4.1,1.2-8,4.5-11.1 c0.9-0.9,1.9-1.6,3-2.4c-0.6-0.4-1.2-0.8-1.8-1.2c-3.4-2.7-5.4-6.3-5.7-10.4c-0.4-4.1,1.2-8,4.5-11.1c0.9-0.9,1.9-1.6,3-2.4 c-0.6-0.4-1.2-0.8-1.8-1.2c-3.4-2.7-5.4-6.3-5.7-10.4c-0.4-4.1,1.2-8,4.5-11.1c0.9-0.9,1.9-1.6,3-2.4c-0.6-0.4-1.2-0.8-1.8-1.2 c-3.4-2.7-5.4-6.3-5.7-10.4c-0.4-4.1,1.2-8,4.5-11.1c0.9-0.9,1.9-1.6,3-2.4c-0.6-0.4-1.2-0.8-1.8-1.2c-3.4-2.7-5.4-6.3-5.7-10.4 c-0.4-4.1,1.2-8,4.5-11.1c0.9-0.9,1.9-1.6,3-2.4c-0.6-0.4-1.2-0.8-1.8-1.2c-3.4-2.7-5.4-6.3-5.7-10.4c-0.4-4.1,1.2-8,4.5-11.1 c0.9-0.9,1.9-1.6,3-2.4c-0.6-0.4-1.2-0.8-1.8-1.2c-3.4-2.7-5.4-6.3-5.7-10.4c-0.4-4.1,1.2-8,4.5-11.1c0.9-0.9,1.9-1.6,3-2.4 c-0.6-0.4-1.2-0.8-1.8-1.2c-3.4-2.7-5.4-6.3-5.7-10.4c-0.4-4.1,1.2-8,4.5-11.1c0.9-0.9,1.9-1.6,3-2.4c-0.6-0.4-1.2-0.8-1.8-1.2 c-3.4-2.7-5.4-6.3-5.7-10.4c-0.4-4.1,1.2-8,4.5-11.1c0.9-0.9,1.9-1.6,3-2.4c-0.6-0.4-1.2-0.8-1.8-1.2c-3.4-2.7-5.4-6.3-5.7-10.4 c-0.4-4.1,1.2-8,4.5-11.1c6.2-5.9,18.3-8.7,30.8-7.1c8.7,1.1,16.2,4.4,21.9,9c0.6-1.5,0.9-3.1,0.9-4.7h9.5 c0,4.3-1.3,8.5-3.8,12.2c2.4,3.9,3.8,8.3,3.8,12.9c0,4.3-1.3,8.5-3.8,12.2c2.4,3.9,3.8,8.3,3.8,12.9c0,4.3-1.3,8.5-3.8,12.2 c2.4,3.9,3.8,8.3,3.8,12.9c0,4.3-1.3,8.5-3.8,12.2c2.4,3.9,3.8,8.3,3.8,12.9c0,4.3-1.3,8.5-3.8,12.2c2.4,3.9,3.8,8.3,3.8,12.9 c0,4.3-1.3,8.5-3.8,12.2c2.4,3.9,3.8,8.3,3.8,12.9c0,4.3-1.3,8.5-3.8,12.2c2.4,3.9,3.8,8.3,3.8,12.9c0,4.3-1.3,8.5-3.8,12.2 c2.4,3.9,3.8,8.3,3.8,12.9c0,4.3-1.3,8.5-3.8,12.2c2.4,3.9,3.8,8.3,3.8,12.9c0,4.3-1.3,8.5-3.8,12.2c2.4,3.9,3.8,8.3,3.8,12.9 h-9.5c0-1.9-0.4-3.7-1.1-5.4c-6,4.8-14.1,8.2-23.4,9.6C165.3,634.8,162.6,635,160,635z M162.7,609.9c-8.2,0-14.5,2.3-17.2,4.9 c-1.6,1.5-1.6,2.7-1.6,3.4c0.1,1.5,0.8,2.7,2.2,3.7c3.8,3.1,11.9,4.2,20.6,3c7.7-1.1,14.4-4,19-7.7c-4.3-3.5-10.3-6.1-17.2-7 C166.5,610,164.5,609.9,162.7,609.9z M183.4,604.7c3,1.4,5.8,3.1,8.1,5.1c0.6-1.5,0.9-3.1,0.9-4.7c0-1.9-0.4-3.7-1.1-5.4 C189.1,601.6,186.4,603.3,183.4,604.7z M162.7,584.8c-8.2,0-14.4,2.3-17.2,4.9c-1.6,1.5-1.6,2.7-1.6,3.4 c0.1,1.5,0.8,2.7,2.2,3.7c3.8,3.1,11.9,4.2,20.6,3c7.7-1.1,14.4-4,19-7.7c-4.3-3.5-10.3-6.1-17.2-7 C166.5,584.9,164.5,584.8,162.7,584.8z M183.4,579.6c3,1.4,5.8,3.1,8.1,5.1c0.6-1.5,0.9-3.1,0.9-4.7c0-1.9-0.4-3.7-1.1-5.4 C189.1,576.5,186.4,578.2,183.4,579.6z M162.7,559.6c-8.2,0-14.5,2.3-17.2,4.9c-1.6,1.5-1.6,2.7-1.6,3.4 c0.1,1.5,0.8,2.7,2.2,3.7c3.8,3.1,11.9,4.2,20.6,3c7.7-1.1,14.4-4,19-7.7c-4.3-3.5-10.3-6.1-17.2-7 C166.5,559.8,164.5,559.6,162.7,559.6z M183.4,554.5c3,1.4,5.8,3.1,8.1,5.1c0.6-1.5,0.9-3.1,0.9-4.7c0-1.9-0.4-3.7-1.1-5.4 C189.1,551.4,186.4,553,183.4,554.5z M162.7,534.5c-8.2,0-14.5,2.3-17.2,4.9c-1.6,1.5-1.6,2.7-1.6,3.4c0.1,1.5,0.8,2.7,2.2,3.7 c3.8,3.1,11.9,4.2,20.6,3c7.7-1.1,14.4-4,19-7.7c-4.3-3.5-10.3-6.1-17.2-7C166.5,534.6,164.5,534.5,162.7,534.5z M183.4,529.3 c3,1.4,5.8,3.1,8.1,5.1c0.6-1.5,0.9-3.1,0.9-4.7c0-1.9-0.4-3.7-1.1-5.4C189.1,526.2,186.4,527.9,183.4,529.3z M162.7,509.4 c-8.2,0-14.4,2.3-17.2,4.9c-1.6,1.5-1.6,2.7-1.6,3.4c0.1,1.5,0.8,2.7,2.2,3.7c3.8,3.1,11.9,4.2,20.6,3c7.7-1.1,14.4-4,19-7.7 c-4.3-3.5-10.3-6.1-17.2-7C166.5,509.5,164.5,509.4,162.7,509.4z M183.4,504.2c3,1.4,5.8,3.1,8.1,5.1c0.6-1.5,0.9-3.1,0.9-4.7 c0-1.9-0.4-3.7-1.1-5.4C189.1,501.1,186.4,502.8,183.4,504.2z M162.7,484.3c-8.2,0-14.5,2.3-17.2,4.9c-1.6,1.5-1.6,2.7-1.6,3.4 c0.1,1.5,0.8,2.7,2.2,3.7c3.8,3.1,11.9,4.2,20.6,3c7.7-1.1,14.4-4,19-7.7c-4.3-3.5-10.3-6.1-17.2-7 C166.5,484.4,164.5,484.3,162.7,484.3z M183.4,479.1c3,1.4,5.8,3.1,8.1,5.1c0.6-1.5,0.9-3.1,0.9-4.7c0-1.9-0.4-3.7-1.1-5.4 C189.1,476,186.4,477.7,183.4,479.1z M162.7,459.2c-8.2,0-14.5,2.3-17.2,4.9c-1.6,1.5-1.6,2.7-1.6,3.4c0.1,1.5,0.8,2.7,2.2,3.7 c3.8,3.1,11.9,4.2,20.6,3c7.7-1.1,14.4-4,19-7.7c-4.3-3.5-10.3-6.1-17.2-7C166.5,459.3,164.5,459.2,162.7,459.2z M183.4,454 c3,1.4,5.8,3.1,8.1,5.1c0.6-1.5,0.9-3.1,0.9-4.7c0-1.9-0.4-3.7-1.1-5.4C189.1,450.9,186.4,452.5,183.4,454z M162.7,434 c-8.2,0-14.4,2.3-17.2,4.9c-1.6,1.5-1.6,2.7-1.6,3.4c0.1,1.5,0.8,2.7,2.2,3.7c3.8,3.1,11.9,4.2,20.6,3c7.7-1.1,14.4-4,19-7.7 c-4.3-3.5-10.3-6.1-17.2-7C166.5,434.1,164.5,434,162.7,434z M183.4,428.8c3,1.4,5.8,3.1,8.1,5.1c0.6-1.5,0.9-3.1,0.9-4.7 c0-1.9-0.4-3.7-1.1-5.4C189.1,425.7,186.4,427.4,183.4,428.8z M162.7,408.9c-8.2,0-14.5,2.3-17.2,4.9c-1.6,1.5-1.6,2.7-1.6,3.4 c0.1,1.5,0.8,2.7,2.2,3.7c3.8,3.1,11.9,4.2,20.6,3c7.7-1.1,14.4-4,19-7.7c-4.3-3.5-10.3-6.1-17.2-7 C166.5,409,164.5,408.9,162.7,408.9z M183.4,403.7c3,1.4,5.8,3.1,8.1,5.1c0.6-1.5,0.9-3.1,0.9-4.7c0-1.9-0.4-3.7-1.1-5.4 C189.1,400.6,186.4,402.3,183.4,403.7z M162.7,383.8c-8.2,0-14.5,2.3-17.2,4.9c-1.6,1.5-1.6,2.7-1.6,3.4 c0.1,1.5,0.8,2.7,2.2,3.7c3.8,3.1,11.9,4.2,20.6,3c7.7-1.1,14.4-4,19-7.7c-4.3-3.5-10.3-6.1-17.2-7 C166.5,383.9,164.5,383.8,162.7,383.8z" class="st441"/></g><path d="M141.9,404.6c0,0,18.3,9.8,41.5-0.9" class="st441"/><path d="M141.9,429.7c0,0,18.3,9.8,41.5-0.9" class="st441"/><path d="M141.9,454.8c0,0,18.3,9.8,41.5-0.9" class="st441"/><path d="M141.9,480c0,0,18.3,9.8,41.5-0.9" class="st441"/><path d="M141.9,505.1c0,0,18.3,9.8,41.5-0.9" class="st441"/><path d="M141.9,530.2c0,0,18.3,9.8,41.5-0.9" class="st441"/><path d="M141.9,555.3c0,0,18.3,9.8,41.5-0.9" class="st441"/><path d="M141.9,580.5c0,0,18.3,9.8,41.5-0.9" class="st441"/><path d="M141.9,605.6c0,0,18.3,9.8,41.5-0.9" class="st441"/></g></g><path d="M203.6,546l-48.5,31.1l0.1,8.1c0,1.6-1.8,2.6-3.2,1.7l-44.2-30.4c-0.4-0.3-0.4-0.9,0-1.2l26.8-15.4" class="st441"/><path d="M170.3,651.7l-44.8-32.4l-15.9-28.5c-1.4-2.4-2.1-5.2-2.1-8V556" class="st441"/><line x1="155.1" x2="170.1" y1="577.1" y2="587.3" class="st441"/><path d="M170.3,226.9l0.1-3.1l6.1-3.2c0,0,0.2-5.9,0.3-6.6c0-0.7,0.2-4.4,0.2-4.4l-1-3c0,0,10.8-4.5,11.3-5 c0.5-0.4,8.6-2.7,8.6-2.7l6.2,0.3c0,0,7,2.8,8.2,3.8s11.1,5.6,11.1,5.6l3.2-0.9l11.3-1.9l12.5,1.3l9.2,4.3l11.4,8.4l8,3.7l9.5,4.4 l15,3.8l5.3-1.5l5.7-1.2l-5.5-3.4c0,0,1.4-2.3,1.5-2.6s3.6-1,3.6-1l4.1-1.2l-4.9-2.3c0,0,3.3-1.9,3.7-2.4c0.4-0.5,2.5-0.7,2.5-0.7 l3.8,0.7l5.8-1.1l3.8-4.7c0,0,3.9,0,4.6,0.3c0.7,0.3,2.2,1,2.8,1.3c0.7,0.3,4.4-1.2,4.4-1.2l3,4.9l6.5,7.5l6.7,10.5l1.9,6.5 l8.6,14.5l2.2,6.7l-1.9,5.3l-2-0.1l-3.4-0.5l-2.8-3.5l-8.5-6.6l-3.9-4.9l-6.6-3.8l-5.4,1.6l-6.4,16.7l-1.3,10.6l-1.6,6.4l-2.2,3.6 l16.9,15.7l11.9,17.1l9.5,13.6l0.2,3.7l4.3,6.7l1,5.6l-7.3-1.8l-3.8-11.4l-4-7.2l-11.5-17.2l-5.8-2.7l-2,7.8l-6.9,7.5l-3.2-1.5 l-6.4,1.8l0.3-8.2l1.8-1.2l4,1.9l3.5-2.6l2.2-2.8l0.2-5.7l-7.5-6.6l-11-1.5l-6.5-4.7L298,293c0,0-22.8-16.5-23.2-17.1 c-0.5-0.7-7.5-7.1-7.5-7.1l-3.2-1l-1.8-0.9l3.3,12.5l4.5,11.7l16.7,19.1l3.4,4.3l0.4,2.1l5.2,5.2l1,3l-6,0.4l-4.5-6 c0,0-5.9-7.4-6.4-7.8c-0.5-0.5-7.4-9.7-7.4-9.7s-10.3-7.3-10.3-8c0-0.7-5.7-13.8-6-14.8s-5.6-13.7-5.6-13.7l-3.4-4.3l-4.3,14.4 l-8.5,11.7l0.1,5.9l5.3,19.2l4.7,9.3L243,323l-7-3.3l-2.9-8.5l0.1-3.5l-7.9-24l0.2-4.4l1.8-3l4.3-9.5l1-6.9c0,0-7.7-15.9-8.1-17 c-0.5-1.1-2.7-16.9-2.7-16.9l0.4-8.8c0,0-2.3-1.1-2.8-1.5c-0.5-0.5-6.8,0.4-6.8,0.4c-1-0.5-1-0.5-1-0.5l-7.4-1l-5.4,1.5l-5.5,2.6 l-5.6-3.7l-4.4,2.9l-4.5,7.5l-4.2,2.9L170.3,226.9z" class="st456"/></g></svg>