<svg xmlns="http://www.w3.org/2000/svg" xmlns:xlink="http://www.w3.org/1999/xlink" id="Layer_1" x="0" y="0" version="1.1" viewBox="0 0 372 294" xml:space="preserve" style="enable-background:new 0 0 372 294"><style type="text/css">.st0{fill:none;stroke:#001a72;stroke-width:2.6;stroke-miterlimit:10}.st1{fill:#001a72}</style><g><g><polyline points="193.2 264.1 254.2 264.1 276.4 275.4 103.8 275.4 126.1 264.1 181.5 264.1" class="st0"/><polyline points="193.2 273.7 193.2 121.3 181.5 121.3 181.5 273.7" class="st0"/></g><path d="M10.7,126v-3.6l9.1-7c0,0,0-7,0-7.8s0-5.2,0-5.2l-1.7-2.9c0,0,16.2-11.1,17-11.8c0.8-0.8,13-7.8,13-7.8l9.5-3 c0,0,10.9-0.5,12.7,0s17.3,0.5,17.3,0.5l4.9-2.8l17.1-8.3l19.1-5.2h14.2l17.9,3.6h12.4h14.7l23-3.6l8-4.6l8.6-4.4l-8.5-1 c0,0,2-3.5,2.2-3.8s5.4-3.1,5.4-3.1l6.1-3.5h-7.6c0,0,4.9-4,5.4-4.8s3.7-2.1,3.7-2.1l5.9-1.2l8.8-4.4l5.4-7.5c0,0,6-2.1,7-2.1 s3.4,0,4.4,0s6.6-3.8,6.6-3.8l4.8,4l10.3,5.2l10.9,8.5l3.4,6.5l14,12.2l3.8,6.6L317,65l-3.1,1l-5.2,1.3l-4.5-2.6l-13.4-3.1 l-6.2-3.6l-10.3-0.8l-8.2,4.7l-8.6,22.7l-1.3,12.9l-2.1,8.3L251,111l26.7,9.1l19.1,13.5l15.3,10.6l0.5,4.1l6.9,5.4l1.8,6l-11.3,1.8 l-6.5-11.2l-6.5-6.2l-18.6-13.7h-9.1l-2.6,10.1l-10.1,12.4h-4.9l-9.6,5.5v-9.7l2.6-2.3h6.2l5.2-4.9l3.1-4.4v-6.7l-11.9-3.6 l-16.8,4.2l-10.2-1.9l-11,4.8c0,0-35.7-6.8-36.5-7.3s-11.9-4.1-11.9-4.1L156,123h-2.8l5.8,12.7l7.7,11.1l26.7,13.2l5.5,3.2l0.8,2.2 l8.3,3.3l1.7,2.9l-9.1,3.6l-7.3-4.5c0,0-9.5-5.4-10.2-5.6c-0.8-0.3-11.9-7.3-11.9-7.3s-16.2-3-16.2-3.7c0-0.8-9.6-12.9-10.1-13.8 s-9.4-12.8-9.4-12.8l-5.5-3.2l-5.7,18.9l-12.2,18.1l0.5,6.7l9.3,19.4l7.8,8.3l-2.3,2.6h-10.9l-4.9-8.3v-4.1L98,162.3v-5.2l2.6-4.5 l6-13.3l1-8.5c0,0-12.7-14.2-13.5-15.3c-0.8-1-5.2-18.1-5.2-18.1V87.1c0,0-3.6,0-4.4-0.3s-10.3,4.1-10.3,4.1c-1.6,0-1.6,0-1.6,0 l-11.4,2.8l-8.1,4.7l-8.2,6l-8.8-1.3l-6.5,5.7L23.1,120l-6.1,5.6L10.7,126z" class="st1"/></g></svg>