<svg xmlns="http://www.w3.org/2000/svg" xmlns:xlink="http://www.w3.org/1999/xlink" width="155" height="83" version="1.1" viewBox="0 0 155 83"><title>logo-desktop-hover</title><desc>Created with Sketch.</desc><g id="Page-1" fill="none" fill-rule="evenodd" stroke="none" stroke-width="1"><g id="logo-desktop-hover" transform="translate(1.000000, 1.000000)"><g id="Group" stroke="#FFF" stroke-width="2"><polygon id="Path" fill="#071577" fill-rule="nonzero" points="24.1 80.6 153 80.6 153 24.2 128.9 0 0 0 0 56.4"/><polyline id="Path" points="153 24.2 24.1 24.2 24.1 80.6"/><line id="Path" x1="24.1" x2="0" y1="24.2" y2="0"/></g><g id="Group" fill="#FFF" fill-rule="nonzero" transform="translate(40.000000, 32.000000)"><g><path id="Path" d="M7.9,14.7 C7.9,16.6 6.6,18.3 3.5,18.3 C2.1,18.3 1.1,18 0.1,17.6 L0.1,14.9 C1.1,15.4 2.4,15.8 3.4,15.8 C4.4,15.8 4.9,15.5 4.9,14.9 C4.9,13.1 0,13.7 0,10 C0,7.8 1.8,6.4 4.3,6.4 C5.3,6.4 6.3,6.6 7.3,7.3 L7.3,10 C6,9.1 5,8.9 4.2,8.9 C3.3,8.9 2.8,9.2 2.8,9.8 C2.9,11.4 7.9,10.8 7.9,14.7 Z"/><path id="Shape" d="M10.4,12.3 C10.4,9 13.1,6.3 16.4,6.3 C19.7,6.3 22.4,9 22.4,12.3 C22.4,15.6 19.7,18.3 16.4,18.3 C13.1,18.3 10.4,15.6 10.4,12.3 Z M19.4,12.3 C19.4,10.5 18,9.1 16.4,9.1 C14.8,9.1 13.4,10.5 13.4,12.3 C13.4,14.1 14.8,15.5 16.4,15.5 C18,15.5 19.4,14.1 19.4,12.3 Z"/><path id="Path" d="M29,5.6 L29,6.5 L32.8,6.5 L31.5,9.2 L29,9.2 L29,18 L26.2,18 L26.2,9.2 L24.3,9.2 L24.3,6.5 L26.2,6.5 L26.2,5.4 C26.2,1.9 28,0.2 30.9,0.2 C31.6,0.2 32.3,0.3 32.8,0.4 L32.8,3.1 C32.3,2.9 31.7,2.9 31.1,2.9 C29.6,2.9 29,3.9 29,5.6 Z"/><path id="Path" d="M38.6,9.2 L38.6,13.8 C38.6,15 39.3,15.6 40.4,15.6 C41.1,15.6 41.8,15.4 42.4,15 L42.4,17.8 C41.6,18.1 40.9,18.3 39.9,18.3 C37.4,18.3 35.8,17 35.8,14.2 L35.8,9.3 L34.1,9.3 L34.1,6.6 L35.8,6.6 L35.8,3.7 L38.6,3 L38.6,6.7 L42.4,6.7 L42.4,9.4 L38.6,9.4 L38.6,9.2 Z"/><polygon id="Path" points="62.4 6.6 58.7 18 55.9 18 53.4 10.1 50.8 18 48 18 44.3 6.6 47.5 6.6 49.5 14.3 51.9 6.6 54.7 6.6 57.1 14.3 59.1 6.6"/><path id="Shape" d="M63.9,12.3 C63.9,9 66.3,6.3 69.6,6.3 C70.9,6.3 71.9,6.7 72.7,7.3 L72.7,6.5 L75.5,6.5 L75.5,18 L72.8,18 L72.8,17.1 C72,17.8 70.9,18.3 69.6,18.3 C66.3,18.3 63.9,15.6 63.9,12.3 Z M72.9,12.3 C72.9,10.5 71.5,9.1 69.9,9.1 C68.2,9.1 66.9,10.4 66.9,12.3 C66.9,14.1 68.3,15.5 69.9,15.5 C71.5,15.5 72.9,14.1 72.9,12.3 Z"/><path id="Path" d="M79.3,6.6 L82,6.6 L82,8.2 C82.8,6.6 84.4,6.4 85.7,6.4 L85.7,9.7 C83.8,9.2 82,10.3 82,12.7 L82,18 L79.2,18 L79.2,6.6 L79.3,6.6 Z"/><path id="Shape" d="M94.5,15.6 C95.6,15.6 96.9,15.4 98.2,14.9 L96.8,17.8 C96.1,18 95.2,18.3 94,18.3 C89.9,18.3 87.5,15.8 87.5,12.3 C87.5,9 89.9,6.3 93.5,6.3 C95.9,6.3 97.8,7.5 98.6,9.1 L98.6,13.2 L90.5,13.2 C90.8,14.6 92.2,15.6 94.5,15.6 Z M90.4,11.1 L96.4,11.1 C96,9.8 94.9,8.9 93.4,8.9 C91.9,8.9 90.8,9.8 90.4,11.1 Z"/><path id="Path" d="M16.1,27.7 L16.1,35.2 L13.3,35.2 L13.3,28.1 C13.3,26.9 12.4,26.2 11.5,26.2 C10.5,26.2 9.7,26.9 9.7,28.1 L9.7,35.2 L6.9,35.2 L6.9,28.1 C6.9,26.9 6,26.2 5.1,26.2 C4.1,26.2 3.3,26.9 3.3,28.1 L3.3,35.2 L0.5,35.2 L0.5,23.8 L3.2,23.8 L3.2,24.7 C4,23.9 4.9,23.6 6,23.6 C7.2,23.6 8.3,24.1 8.9,25.1 C9.8,24.1 11,23.6 12.4,23.6 C14.5,23.6 16.1,25.3 16.1,27.7 Z"/><path id="Shape" d="M19.1,29.5 C19.1,26.2 21.5,23.5 24.8,23.5 C26.1,23.5 27.1,23.9 27.9,24.5 L27.9,23.7 L30.7,23.7 L30.7,35.1 L28,35.1 L28,34.2 C27.2,34.9 26.1,35.4 24.8,35.4 C21.5,35.5 19.1,32.8 19.1,29.5 Z M28.1,29.5 C28.1,27.7 26.7,26.3 25.1,26.3 C23.4,26.3 22.1,27.6 22.1,29.5 C22.1,31.3 23.5,32.7 25.1,32.7 C26.7,32.7 28.1,31.3 28.1,29.5 Z"/><path id="Path" d="M34.4,23.8 L37,23.8 L37,24.7 C37.8,23.9 38.9,23.6 40,23.6 C42.4,23.6 44.3,25.4 44.3,27.9 L44.3,35.3 L41.5,35.3 L41.5,28.5 C41.5,27.3 40.5,26.3 39.3,26.3 C38.1,26.3 37.1,27.3 37.1,28.5 L37.1,35.3 L34.3,35.3 L34.3,23.8 L34.4,23.8 Z"/><path id="Path" d="M55.5,31.9 C55.5,33.8 54.2,35.5 51.1,35.5 C49.7,35.5 48.7,35.2 47.7,34.8 L47.7,32.1 C48.7,32.6 50,33 51,33 C52,33 52.5,32.7 52.5,32.1 C52.5,30.3 47.6,30.9 47.6,27.2 C47.6,25 49.4,23.6 51.9,23.6 C52.9,23.6 53.9,23.8 54.9,24.5 L54.9,27.3 C53.6,26.4 52.6,26.2 51.8,26.2 C50.9,26.2 50.4,26.5 50.4,27.1 C50.5,28.7 55.5,28 55.5,31.9 Z"/><polygon id="Path" points="61.5 23.8 61.5 35.2 58.7 35.2 58.7 23.8"/><path id="Shape" d="M64.4,29.5 C64.4,26.2 67.1,23.5 70.4,23.5 C73.7,23.5 76.4,26.2 76.4,29.5 C76.4,32.8 73.7,35.5 70.4,35.5 C67.1,35.5 64.4,32.8 64.4,29.5 Z M73.4,29.5 C73.4,27.7 72,26.3 70.4,26.3 C68.8,26.3 67.4,27.7 67.4,29.5 C67.4,31.3 68.8,32.7 70.4,32.7 C72,32.7 73.4,31.3 73.4,29.5 Z"/><path id="Path" d="M79.3,23.8 L82,23.8 L82,24.7 C82.8,23.9 83.9,23.6 85,23.6 C87.4,23.6 89.3,25.4 89.3,27.9 L89.3,35.3 L86.5,35.3 L86.5,28.5 C86.5,27.3 85.5,26.3 84.3,26.3 C83.1,26.3 82.1,27.3 82.1,28.5 L82.1,35.3 L79.3,35.3 L79.3,23.8 L79.3,23.8 Z"/></g><g id="Path" transform="translate(92.000000, 32.000000)"><polygon points="1.6 3.3 1.2 3.3 1.2 .5 .2 .5 .2 .1 2.6 .1 2.6 .5 1.6 .5"/><path d="M4.6,3.3 L3.9,1.4 C3.8,1.2 3.7,1 3.7,0.7 C3.7,0.9 3.7,1.2 3.7,1.4 L3.7,3.3 L3.3,3.3 L3.3,0.1 L3.9,0.1 L4.7,2.1 C4.8,2.4 4.8,2.4 4.9,2.7 C5,2.4 5,2.3 5.1,2.2 L5.9,0.2 L6.5,0.2 L6.5,3.3 L6.1,3.3 L6.1,1.4 C6.1,1.2 6.1,1 6.1,0.7 C6,1 6,1.1 5.9,1.4 L5.2,3.3 L4.6,3.3 L4.6,3.3 Z"/></g></g></g></g></svg>