<svg width="400" height="330" viewBox="0 0 400 330" fill="none" xmlns="http://www.w3.org/2000/svg">
<path d="M314.5 72.5L317.5 76C316.5 76.3333 314 77.5 312 79.5C310 81.5 306.833 83.6667 305.5 84.5C301.9 85.3 298.333 84.1667 297 83.5C297.4 84.3 300.167 85.1667 301.5 85.5C299.1 85.9 295.167 84.3333 293.5 83.5C293.5 85.5 296.167 87.3333 297.5 88C297.9 89.6 296.667 91 296 91.5C293.2 93.1 285.833 93.8333 282.5 94C286.1 96 290.667 95.8333 292.5 95.5C291.5 96.1667 289 97.9 287 99.5C285 101.1 269.5 104.5 262 106C265.6 107.2 275.5 106.5 280 106C276.8 108 264 111.833 258 113.5C260 114.3 263.167 114.5 264.5 114.5C244.667 119.167 201.3 127.1 186.5 121.5C168 114.5 147.5 117 144 117C140.5 117 123.5 120.5 119.5 121C115.5 121.5 104 125.5 101.5 126C99.5 126.4 92 126.833 88.5 127L91 129C89.8 129 84.5 130 82 130.5C83.5 131 86.8 131.5 86 131.5C85.2 131.5 77.3333 133.167 73.5 134C73.1667 134.167 71.5 134.6 67.5 135C62.5 135.5 49 134 44 131.5C40 129.5 33 129.333 30 129.5C36.4 134.3 41.6667 144.167 43.5 148.5C42.7 149.3 39.5 148.833 38 148.5C38.4 150.1 45.1667 153.833 48.5 155.5H44C50 159.1 54.8333 159.667 56.5 159.5C65.3333 158.5 85.1 154.7 93.5 147.5C101.9 140.3 113.667 133.167 118.5 130.5V132.5C108.5 146.9 116.667 163.5 122 170C120 171 117 171 113.5 171C110 171 90 170 89.5 171C89 172 86.5 176.5 85.5 179C84.5 181.5 72 202 70.5 203.5C69 205 69 204 67.5 205C66 206 65.5 208.5 64.5 208.5C63.5 208.5 63.5 208.5 63 207.5C62.5 206.5 63.5 207 62 206C60.5 205 57 207 55 207.5C53.4 207.9 50.6667 213 49.5 215.5C50.3333 216.333 52.5 217.9 54.5 217.5C57 217 57 216.5 58.5 216C60 215.5 63.5 214.5 67.5 214.5C71.5 214.5 73.5 213.5 74 213C74.5 212.5 76.5 208.5 77 207C77.4 205.8 85.5 193.833 89.5 188C89.6667 187.667 90.7 186.8 93.5 186C97 185 99.5 187 100.5 188C101.5 189 109 202.5 110 203.5C111 204.5 111 206.5 110 207.5C109 208.5 109 211.5 110 212C111 212.5 112 214 111 215C110 216 108 215 106.5 216C105 217 105.5 226.5 105.5 227C105.5 227.5 108 230.5 109 230C110 229.5 113.5 226.5 114 225.5C114.5 224.5 114.5 220.5 116 218.5C117.5 216.5 119.5 212.5 119.5 211C119.5 209.5 117 205 116 203.5C115.2 202.3 111.667 192.667 110 188H132.5C134 188 147 187.5 148 186C149 184.5 151.5 182.5 152.5 182.5C153.5 182.5 156.5 181 161.5 177C166.5 173 170.5 175 172.5 175.5C174.5 176 174.5 178.5 190.5 185C203.3 190.2 226.5 191.833 236.5 192C237 192 237.9 192.3 237.5 193.5C237 195 234 203 233 205L224.5 222C217 232 211 232 208 232.5C205 233 192 231.5 191.5 231.5C191.1 231.5 190.667 232.5 190.5 233H186.5C185 233 185.5 231.5 184.5 230C183.7 228.8 181.833 228.5 181 228.5C174 229.5 169.5 237.5 169.5 238C169.5 238.5 173.5 238 180 239.5C185.2 240.7 191.833 240.333 194.5 240C196.5 239.5 202.5 238.3 210.5 237.5C218.5 236.7 225.833 234.5 228.5 233.5C229.833 232.167 232.6 228.8 233 226C233.5 222.5 238.5 217.5 240 216.5C241.2 215.7 249.833 206.167 254 201.5C254.333 201.167 255.2 200.7 256 201.5C257 202.5 258.5 215 258.5 216.5C258.5 218 258 228 258.5 229.5C259 231 260.5 233 261 234C261.5 235 263.5 247.5 264 254C264.4 259.2 265.5 261.5 266 262C267.167 263.333 269.9 266.1 271.5 266.5C273.1 266.9 285.167 266.333 291 266C290.167 264.5 288.3 261.3 287.5 260.5C286.5 259.5 285.5 258 283.5 257.5C281.5 257 276.5 258 275 257.5C273.5 257 270.5 249 269.5 247.5C268.5 246 268 230 268.5 229C269 228 268.5 224.5 268 223C267.5 221.5 268.5 210 270 207.5C271.5 205 272 193.5 273.5 191.5C275 189.5 288.5 178 289 177C289.5 176 290.5 164 291 160C291.5 156 299.5 150 301 148.5C302.5 147 308.5 134.5 312 127C315.5 119.5 319.5 115 321.5 114C323.5 113 332 114 336.5 114C341 114 352.5 120 355 121.5C357.5 123 362.5 123.5 363.5 122.5C364.5 121.5 367.5 120 368 118C368.5 116 367.5 116 368.5 114.5C369.5 113 369 111 368.5 110.5C368 110 353 100.5 349 94.5C345 88.5 333 79 332 78.5C331 78 327 76.5 326.5 76C326 75.5 324.5 74.5 322.5 73.5C320.5 72.5 316 72 315.5 72C315.1 72 314.667 72.3333 314.5 72.5Z"/>
</svg>
