<svg width="1018" height="177" viewBox="0 0 1018 177" fill="none" xmlns="http://www.w3.org/2000/svg">
<path d="M176.328 80.5705C140.828 74.0705 137.328 72.5705 87.328 103.571C74.828 119.071 32.828 119.571 7.82797 123.571C-17.172 127.571 18.828 174.071 99.828 176.071C180.828 178.071 319.828 165.571 394.328 143.071C468.828 120.571 485.328 143.071 543.828 163.571C602.328 184.071 742.828 168.071 912.828 143.071C1082.83 118.071 997.828 103.571 987.328 93.0706C976.828 82.5706 844.328 103.571 838.328 66.0705C832.328 28.5705 773.828 66.0705 692.828 43.5706C611.828 21.0706 585.328 2.0705 497.828 0.0705015C410.328 -1.9295 392.328 39.0705 329.828 66.0705C267.328 93.0705 211.828 87.0705 176.328 80.5705Z" fill="url(#paint0_linear_61_380)" fill-opacity="0.5"/>
<defs>
<linearGradient id="paint0_linear_61_380" x1="80" y1="124" x2="970.5" y2="66.4999" gradientUnits="userSpaceOnUse">
<stop stop-color="white"/>
<stop offset="1" stop-color="white" stop-opacity="0"/>
</linearGradient>
</defs>
</svg>
