<svg width="29" height="42" viewBox="0 0 29 42" fill="none" xmlns="http://www.w3.org/2000/svg">
<path d="M3.19096 26.3723C2.29927 24.4865 1.86935 22.3483 2.02327 20.1187C2.46912 13.7631 7.53792 8.86879 13.6629 8.56793" stroke="#001A72" stroke-width="1.4" stroke-linecap="round" stroke-linejoin="round"/>
<path d="M25.414 15.6327C26.3057 17.5184 26.7303 19.6567 26.5817 21.8862C26.1358 28.2365 21.067 33.1308 14.942 33.437" stroke="#001A72" stroke-width="1.4" stroke-linecap="round" stroke-linejoin="round"/>
<path d="M14.1576 13.9672L15.9569 10.9049C16.4399 10.0883 16.5248 9.0783 16.1215 8.2402C15.5642 7.069 15.4792 5.91929 16.0047 5.03284C16.2064 4.689 16.4877 4.40426 16.8327 4.18399L16.8698 4.1625L17.1989 3.98521L22.5703 1.04648C22.8887 0.869184 23.2125 1.23451 23.032 1.54611L21.047 4.92539C20.6701 5.56471 21.323 6.66607 22.5119 7.3806C23.7008 8.09514 24.964 8.15424 25.3462 7.50954L27.3312 4.13027C27.517 3.81329 27.9841 3.93686 27.9894 4.30218L28 10.4698V10.8458V10.8942C27.9734 11.3079 27.862 11.6947 27.655 12.0385C27.4798 12.334 27.2516 12.5865 26.9703 12.7907C26.413 13.199 25.6646 13.4246 24.8101 13.4622C23.8919 13.5052 23.0533 14.0639 22.5756 14.8806L21.2009 17.2283C19.0354 17.9429 16.4452 17.4056 14.285 16.8415C10.9784 15.9765 9.20029 13.9887 11.525 12.6725" stroke="#001A72" stroke-width="1.4" stroke-linecap="round" stroke-linejoin="round"/>
<path d="M18.563 28.3063C18.6692 26.9901 17.597 25.8189 15.6969 26.1734C14.5027 26.4797 13.2023 26.3346 11.4667 26.0875C9.98054 25.878 8.65363 25.4428 7.71948 24.9163C7.31079 25.6093 6.42442 27.119 6.42442 27.119C5.94142 27.9356 5.10812 28.4943 4.1899 28.5373C3.33536 28.5803 2.58699 28.8006 2.02968 29.2089C1.74838 29.413 1.52015 29.6655 1.345 29.961C1.14331 30.3049 1.03185 30.6917 1 31.1054V31.1537V31.5298L1.01062 37.6974C1.01062 38.0627 1.483 38.1863 1.66876 37.8693L3.65382 34.49C4.03067 33.8507 5.29919 33.9044 6.48811 34.6189C7.67702 35.3335 8.32986 36.4348 7.95302 37.0742L5.96796 40.4534C5.78219 40.7704 6.11126 41.1304 6.42972 40.9531L11.7958 38.0251L12.1248 37.8478L12.162 37.8263C12.507 37.606 12.7883 37.3213 12.99 36.9775C13.5154 36.091 13.4305 34.9413 12.8732 33.7701C12.4751 32.932 12.5601 31.922 13.0377 31.1054L14.5929 28.4621" stroke="#001A72" stroke-width="1.4" stroke-linecap="round" stroke-linejoin="round"/>
<path d="M11.1376 19.0979C12.077 19.6567 13.4411 20.1133 14.9962 20.3336C16.7955 20.5861 18.4409 20.4679 19.513 20.0757" stroke="#001A72" stroke-width="1.4" stroke-linecap="round" stroke-linejoin="round"/>
<path d="M9.42853 21.9991C10.368 22.547 11.7055 22.9876 13.2288 23.2079C15.0812 23.4765 16.769 23.3422 17.8465 22.9177" stroke="#001A72" stroke-width="1.4" stroke-linecap="round" stroke-linejoin="round"/>
</svg>
