<svg width="156" height="40" viewBox="0 0 156 40" fill="none" xmlns="http://www.w3.org/2000/svg">
<path d="M1.854 13.3814V0.099055H7.05572C7.82969 0.099055 8.52273 0.279155 9.1437 0.648358C9.77368 0.999551 10.2776 1.48581 10.6466 2.10716C11.0156 2.7285 11.1955 3.43089 11.1955 4.21432C11.1955 4.95272 11.0156 5.61008 10.6646 6.20441C10.3136 6.79874 9.82765 7.276 9.22467 7.62719C8.62169 7.96938 7.93769 8.14048 7.17272 8.14048H3.33886V13.3814H1.8629H1.854ZM9.95369 13.3814L6.61475 7.53714L8.03676 7.04187L11.7176 13.3814H9.95369ZM3.32985 6.69969H7.29873C7.76671 6.69969 8.18069 6.59163 8.53168 6.37551C8.88266 6.15939 9.1617 5.87123 9.36869 5.50203C9.56669 5.12382 9.67465 4.69158 9.67465 4.21432C9.67465 3.69203 9.55763 3.23278 9.31464 2.82755C9.07165 2.42233 8.73867 2.10716 8.30669 1.88203C7.8927 1.65691 7.40674 1.53985 6.86676 1.53985H3.33886V6.69969H3.32985ZM16.4604 13.3814V0.099055H24.5061V1.53985H17.9453V11.9406H24.47V13.3814H16.4694H16.4604ZM17.1444 7.267V5.8262H23.4442V7.267H17.1444ZM28.4299 13.3814L33.5147 0.099055H35.2067L40.2555 13.3814H38.6445L35.4046 4.76362C35.3146 4.52049 35.2157 4.24133 35.0987 3.92616C34.9997 3.59298 34.8827 3.25979 34.7567 2.9176C34.6397 2.56641 34.5317 2.22422 34.4147 1.89104C34.3157 1.55786 34.2168 1.2697 34.1268 1.01756H34.5047C34.4057 1.33273 34.2977 1.65691 34.1807 1.99009C34.0817 2.30527 33.9737 2.62944 33.8567 2.95362C33.7397 3.2688 33.6317 3.58397 33.5147 3.89915C33.3977 4.21432 33.2897 4.52949 33.1727 4.84466L29.9509 13.3633H28.4299V13.3814ZM30.5898 9.71634L31.1388 8.27555H37.4205L38.0236 9.71634H30.5898ZM49.8852 13.5705C48.9402 13.5705 48.0672 13.4084 47.2662 13.0752C46.4653 12.733 45.7812 12.2557 45.1963 11.6524C44.6113 11.0311 44.1613 10.3017 43.8283 9.47321C43.5133 8.63575 43.3514 7.72624 43.3514 6.7357C43.3514 5.74515 43.5133 4.87168 43.8283 4.06123C44.1613 3.24178 44.6203 2.52138 45.2143 1.91805C45.8083 1.29671 46.5013 0.819446 47.2842 0.495268C48.0672 0.162085 48.9312 0 49.8671 0C50.4881 0 51.1 0.0990512 51.703 0.306165C52.306 0.495269 52.864 0.765417 53.368 1.10761C53.89 1.44979 54.3129 1.83701 54.6369 2.28726L53.6109 3.34984C53.2959 2.97163 52.927 2.63845 52.513 2.35929C52.108 2.08014 51.6761 1.86403 51.2261 1.71094C50.7671 1.55786 50.3171 1.48582 49.8581 1.48582C49.1472 1.48582 48.4901 1.62089 47.8691 1.88203C47.2662 2.13417 46.7352 2.49437 46.2942 2.96263C45.8532 3.43089 45.5023 3.98919 45.2503 4.62854C45.0073 5.2769 44.8903 5.97928 44.8903 6.7357C44.8903 7.49212 45.0073 8.23953 45.2503 8.89689C45.5023 9.55425 45.8532 10.1216 46.3122 10.6078C46.7802 11.0761 47.3202 11.4453 47.9412 11.7064C48.5712 11.9586 49.2731 12.0846 50.0471 12.0846C50.5061 12.0846 50.9561 12.0216 51.4151 11.8955C51.874 11.7605 52.288 11.5624 52.666 11.3282C53.044 11.0851 53.368 10.8149 53.6379 10.5088L54.3939 11.7425C54.1059 12.0937 53.71 12.4088 53.215 12.688C52.738 12.9581 52.207 13.1652 51.622 13.3363C51.0371 13.4894 50.4611 13.5615 49.8762 13.5615L49.8852 13.5705ZM61.7017 13.3814V1.53985H57.9038V0.099055H67.1194V1.53985H63.1776V13.3814H61.7017ZM79.116 13.3814V0.099055H80.466L89.1507 11.5984L88.8806 11.9406C88.8446 11.7425 88.8086 11.4363 88.7816 11.0311C88.7726 10.6258 88.7456 10.1666 88.7276 9.66231C88.7186 9.14002 88.7007 8.60874 88.6917 8.05043C88.6827 7.49212 88.6646 6.95182 88.6556 6.42053V0.099055H90.1316V13.3814H88.7456L80.097 2.03512L80.3219 1.6389C80.3579 2.14318 80.3939 2.64745 80.4209 3.14273C80.4569 3.638 80.4839 4.10626 80.4929 4.56551C80.5199 5.02476 80.5379 5.43899 80.5469 5.8172C80.5559 6.19541 80.565 6.51958 80.565 6.78073C80.574 7.05088 80.583 7.23998 80.583 7.34804V13.3814H79.107H79.116ZM94.6494 13.3814L99.7342 0.099055H101.426L106.475 13.3814H104.864L101.624 4.76362C101.534 4.52049 101.435 4.24133 101.318 3.92616C101.219 3.59298 101.102 3.25979 100.976 2.9176C100.859 2.56641 100.751 2.22422 100.634 1.89104C100.535 1.55786 100.436 1.2697 100.346 1.01756H100.724C100.625 1.33273 100.517 1.65691 100.4 1.99009C100.301 2.30527 100.193 2.62944 100.076 2.95362L99.7342 3.89915C99.6172 4.21432 99.5092 4.52949 99.3922 4.84466L96.1703 13.3633H94.6494V13.3814ZM96.8183 9.71634L97.3672 8.27555H103.649L104.252 9.71634H96.8183ZM112.442 13.3814V1.53985H108.644V0.099055H117.859V1.53985H113.918V13.3814H112.442ZM121.837 13.3814V11.9766H123.979V1.50383H121.837V0.099055H127.606V1.50383H125.464V11.9766H127.606V13.3814H121.837ZM136.633 13.3814L131.494 0.099055H133.159L136.462 8.75281C136.615 9.14903 136.75 9.49122 136.858 9.79738C136.975 10.1036 137.074 10.3917 137.164 10.6709C137.263 10.941 137.362 11.2022 137.452 11.4723C137.542 11.7425 137.632 12.0306 137.74 12.3458L137.245 12.3638C137.371 11.9316 137.488 11.5353 137.605 11.1661C137.731 10.7969 137.857 10.4277 137.983 10.0495C138.118 9.6533 138.289 9.20306 138.496 8.68077L141.781 0.099055H143.446L138.154 13.3814H136.633ZM147.954 13.3814V0.099055H156V1.53985H149.439V11.9406H155.964V13.3814H147.963H147.954ZM148.638 7.267V5.8262H154.938V7.267H148.638Z" fill="#001A72"/>
<path d="M5.43583 39.7298L0 21.6119H4.4728L7.19072 31.1391C7.30771 31.5713 7.41568 32.0126 7.49667 32.4628C7.59567 32.8951 7.67668 33.3093 7.73067 33.7055C7.80267 34.1017 7.84771 34.4709 7.88371 34.8221C7.91971 35.1463 7.95569 35.4255 7.98269 35.6506H7.41571C7.5147 35.0112 7.60474 34.4439 7.67673 33.9396C7.76673 33.4354 7.85668 32.9761 7.96467 32.5439C8.06367 32.0936 8.19871 31.6254 8.35171 31.1481L11.0426 23.9802H14.5615L17.1983 31.1481C17.4053 31.7154 17.5764 32.2557 17.7114 32.751C17.8464 33.2553 17.9543 33.7325 18.0173 34.2008C18.1073 34.651 18.1703 35.1013 18.2243 35.5425L17.7114 35.6236C17.7474 35.3174 17.7743 35.0292 17.7923 34.7681C17.8103 34.4889 17.8283 34.2368 17.8463 33.9937C17.8823 33.7325 17.9183 33.4714 17.9453 33.1922C17.9813 32.9131 18.0353 32.6159 18.0983 32.2827C18.1703 31.9405 18.2604 31.5533 18.3863 31.1211L21.0772 21.6209H25.4511L20.0152 39.7388H16.6494L12.3565 29.3111L12.8515 29.3651L8.89166 39.7478H5.42682L5.43583 39.7298ZM33.2358 39.991C31.8048 39.991 30.5269 39.6848 29.4109 39.0635C28.304 38.4421 27.431 37.5957 26.774 36.5241C26.135 35.4525 25.82 34.2278 25.82 32.85C25.82 31.4723 26.135 30.2476 26.774 29.176C27.431 28.1044 28.313 27.258 29.4109 26.6366C30.5359 26.0153 31.8048 25.7091 33.2358 25.7091C34.6667 25.7091 35.9356 26.0153 37.0336 26.6366C38.1586 27.258 39.0315 28.1044 39.6704 29.176C40.3094 30.2476 40.6245 31.4723 40.6245 32.85C40.6245 34.2278 40.3094 35.4525 39.6704 36.5241C39.0315 37.5957 38.1496 38.4421 37.0336 39.0635C35.9266 39.6848 34.6667 39.991 33.2358 39.991ZM33.2358 36.416C33.8568 36.416 34.4057 36.2629 34.8917 35.9477C35.3777 35.6416 35.7557 35.2183 36.0256 34.6781C36.3046 34.1468 36.4306 33.5344 36.4126 32.841C36.4306 32.1477 36.3046 31.5353 36.0256 31.004C35.7467 30.4547 35.3687 30.0225 34.8917 29.7073C34.4057 29.4011 33.8568 29.2391 33.2358 29.2391C32.6148 29.2391 32.0568 29.3921 31.5528 29.7073C31.0669 30.0135 30.6889 30.4457 30.4189 31.004C30.1399 31.5353 30.0138 32.1477 30.0318 32.841C30.0138 33.5344 30.1399 34.1468 30.4189 34.6781C30.6979 35.2093 31.0759 35.6326 31.5528 35.9477C32.0568 36.2539 32.6148 36.416 33.2358 36.416ZM43.3424 39.7298V25.9883H47.2752L47.4552 30.4637L46.6812 29.6083C46.8882 28.8699 47.2212 28.2035 47.6892 27.6182C48.1751 27.0328 48.7331 26.5646 49.3721 26.2224C50.0111 25.8802 50.6951 25.7091 51.415 25.7091C51.721 25.7091 52.009 25.7361 52.27 25.7902C52.549 25.8442 52.792 25.8982 53.017 25.9703L51.883 30.5538C51.694 30.4367 51.4331 30.3377 51.1091 30.2656C50.8031 30.1756 50.47 30.1396 50.128 30.1396C49.7501 30.1396 49.3991 30.2116 49.0661 30.3467C48.7422 30.4637 48.4631 30.6528 48.2381 30.887C48.0131 31.1301 47.8332 31.4093 47.6982 31.7424C47.5812 32.0666 47.5182 32.4448 47.5182 32.859V39.7478H43.3514L43.3424 39.7298ZM59.0918 35.6956L57.5618 32.5889L63.9785 25.9883H69.4324L59.0828 35.6956H59.0918ZM55.1139 39.7298V20.5763H59.2537V39.7298H55.1139ZM64.4195 39.7298L59.5867 33.4624L62.5116 31.1841L69.3154 39.7208H64.4285L64.4195 39.7298ZM71.2053 39.7298V20.5763H75.3451V39.7298H71.2053ZM85.3258 39.991C83.8048 39.991 82.4909 39.6848 81.3659 39.0815C80.241 38.4601 79.377 37.6227 78.756 36.5691C78.135 35.4975 77.829 34.2818 77.829 32.9221C77.829 31.8685 78.0001 30.905 78.342 30.0225C78.684 29.14 79.17 28.3836 79.791 27.7442C80.412 27.0869 81.1409 26.5916 81.9868 26.2404C82.8508 25.8802 83.7868 25.7001 84.8037 25.7001C85.8207 25.7001 86.6487 25.8712 87.4407 26.2134C88.2507 26.5556 88.9526 27.0419 89.5376 27.6632C90.1225 28.2845 90.5725 29.0139 90.8785 29.8604C91.1845 30.7069 91.3285 31.6254 91.2925 32.6339L91.2655 33.7505H80.3219L79.7279 31.4183H87.8997L87.4587 31.9135V31.4002C87.4227 30.968 87.2876 30.5898 87.0446 30.2656C86.8197 29.9234 86.5227 29.6533 86.1357 29.4642C85.7577 29.2751 85.3258 29.176 84.8398 29.176C84.1648 29.176 83.5888 29.3111 83.1028 29.5903C82.6348 29.8514 82.2839 30.2386 82.0409 30.7519C81.7979 31.2562 81.6809 31.8775 81.6809 32.6159C81.6809 33.3543 81.8339 34.0387 82.1489 34.606C82.4729 35.1553 82.9408 35.5875 83.5438 35.9027C84.1647 36.2089 84.8938 36.371 85.7397 36.371C86.3247 36.371 86.8467 36.2809 87.2877 36.1098C87.7556 35.9387 88.2507 35.6416 88.7906 35.2273L90.7345 37.9739C90.2035 38.4421 89.6276 38.8203 89.0246 39.1085C88.4217 39.4056 87.8006 39.6218 87.1616 39.7568C86.5407 39.9099 85.9197 39.991 85.2988 39.991H85.3258ZM95.0724 39.7298V22.5214H99.2122V39.7298H95.0724ZM92.6424 29.6083V25.9883H101.876V29.6083H92.6424ZM109.382 39.991C108.041 39.991 106.844 39.7749 105.809 39.3426C104.792 38.9104 103.982 38.3341 103.379 37.6047L105.89 35.4345C106.421 35.9658 107.024 36.362 107.699 36.6231C108.374 36.8663 109.013 36.9833 109.616 36.9833C109.859 36.9833 110.075 36.9563 110.264 36.9023C110.453 36.8482 110.606 36.7852 110.732 36.6952C110.867 36.5961 110.975 36.479 111.038 36.362C111.11 36.2269 111.137 36.0648 111.137 35.8937C111.137 35.5515 110.984 35.2814 110.669 35.0923C110.516 35.0022 110.255 34.9032 109.895 34.7861C109.535 34.669 109.067 34.525 108.5 34.3719C107.69 34.1648 106.979 33.9216 106.376 33.6515C105.791 33.3543 105.305 33.0211 104.927 32.6429C104.585 32.2827 104.315 31.8865 104.126 31.4543C103.937 31.004 103.838 30.5088 103.838 29.9505C103.838 29.3111 103.982 28.7348 104.279 28.2125C104.585 27.6992 104.999 27.249 105.494 26.8708C106.007 26.4925 106.601 26.2044 107.249 26.0153C107.924 25.8082 108.608 25.7091 109.319 25.7091C110.075 25.7091 110.804 25.7992 111.488 25.9703C112.181 26.1414 112.82 26.3845 113.405 26.6907C114.008 26.9968 114.539 27.375 115.007 27.8073L112.838 30.2386C112.532 29.9414 112.172 29.6893 111.776 29.4642C111.398 29.221 111.002 29.0319 110.588 28.8969C110.174 28.7618 109.796 28.6898 109.454 28.6898C109.193 28.6898 108.959 28.7168 108.752 28.7708C108.563 28.8068 108.401 28.8699 108.257 28.9779C108.122 29.068 108.014 29.176 107.951 29.3111C107.879 29.4282 107.852 29.5812 107.852 29.7523C107.852 29.9234 107.897 30.0855 107.978 30.2476C108.077 30.4007 108.221 30.5358 108.392 30.6348C108.563 30.7339 108.842 30.8599 109.22 30.995C109.598 31.1121 110.12 31.2742 110.768 31.4633C111.578 31.6884 112.28 31.9405 112.865 32.2107C113.45 32.4898 113.918 32.814 114.26 33.1922C114.539 33.4894 114.746 33.8316 114.881 34.2278C115.016 34.606 115.088 35.0202 115.088 35.4705C115.088 36.353 114.836 37.1364 114.341 37.8298C113.855 38.5052 113.189 39.0364 112.325 39.4327C111.461 39.8109 110.48 40 109.373 40L109.382 39.991Z" fill="#001A72"/>
</svg>
