<svg width="156" height="40" viewBox="0 0 156 40" fill="none" xmlns="http://www.w3.org/2000/svg">
<path d="M1.854 13.94V0.103176H7.05572C7.82969 0.103176 8.52273 0.290808 9.1437 0.675424C9.77368 1.04128 10.2776 1.54784 10.6466 2.19512C11.0156 2.8424 11.1955 3.5741 11.1955 4.39024C11.1955 5.15947 11.0156 5.84426 10.6646 6.4634C10.3136 7.08254 9.82765 7.57974 9.22467 7.94559C8.62169 8.30207 7.93769 8.48031 7.17272 8.48031H3.33886V13.94H1.8629H1.854ZM9.95369 13.94L6.61475 7.85178L8.03676 7.33584L11.7176 13.94H9.95369ZM3.32985 6.97937H7.29873C7.76671 6.97937 8.18069 6.86678 8.53168 6.64164C8.88266 6.4165 9.1617 6.11631 9.36869 5.7317C9.56669 5.3377 9.67465 4.88742 9.67465 4.39024C9.67465 3.84615 9.55763 3.36772 9.31464 2.94558C9.07165 2.52344 8.73867 2.19512 8.30669 1.9606C7.8927 1.72608 7.40674 1.60412 6.86676 1.60412H3.33886V6.97937H3.32985ZM16.4604 13.94V0.103176H24.5061V1.60412H17.9453V12.439H24.47V13.94H16.4694H16.4604ZM17.1444 7.57037V6.06942H23.4442V7.57037H17.1444ZM28.4299 13.94L33.5147 0.103176H35.2067L40.2555 13.94H38.6445L35.4046 4.96249C35.3146 4.7092 35.2157 4.41837 35.0987 4.09004C34.9997 3.74295 34.8827 3.39586 34.7567 3.03939C34.6397 2.67354 34.5317 2.31708 34.4147 1.96999C34.3157 1.6229 34.2168 1.32271 34.1268 1.06004H34.5047C34.4057 1.38837 34.2977 1.72607 34.1807 2.07316C34.0817 2.40149 33.9737 2.73921 33.8567 3.07692C33.7397 3.40525 33.6317 3.73357 33.5147 4.0619C33.3977 4.39023 33.2897 4.71858 33.1727 5.04691L29.9509 13.9212H28.4299V13.94ZM30.5898 10.122L31.1388 8.62102H37.4205L38.0236 10.122H30.5898ZM49.8852 14.137C48.9402 14.137 48.0672 13.9681 47.2662 13.621C46.4653 13.2645 45.7812 12.7674 45.1963 12.1388C44.6113 11.4916 44.1613 10.7317 43.8283 9.86866C43.5133 8.99624 43.3514 8.04876 43.3514 7.01687C43.3514 5.98497 43.5133 5.07503 43.8283 4.23075C44.1613 3.37709 44.6203 2.62665 45.2143 1.99813C45.8083 1.35085 46.5013 0.853647 47.2842 0.515936C48.0672 0.168844 48.9312 0 49.8671 0C50.4881 0 51.1 0.103186 51.703 0.318946C52.306 0.515944 52.864 0.797355 53.368 1.15383C53.89 1.5103 54.3129 1.9137 54.6369 2.38275L53.6109 3.48968C53.2959 3.09569 52.927 2.74859 52.513 2.45778C52.108 2.16698 51.6761 1.94183 51.2261 1.78236C50.7671 1.62288 50.3171 1.54784 49.8581 1.54784C49.1472 1.54784 48.4901 1.68855 47.8691 1.9606C47.2662 2.22326 46.7352 2.59851 46.2942 3.08631C45.8532 3.57412 45.5023 4.15571 45.2503 4.82175C45.0073 5.49717 44.8903 6.22888 44.8903 7.01687C44.8903 7.80486 45.0073 8.5835 45.2503 9.2683C45.5023 9.9531 45.8532 10.5441 46.3122 11.0507C46.7802 11.5385 47.3202 11.9231 47.9412 12.1951C48.5712 12.4578 49.2731 12.5891 50.0471 12.5891C50.5061 12.5891 50.9561 12.5234 51.4151 12.3921C51.874 12.2514 52.288 12.045 52.666 11.8011C53.044 11.5478 53.368 11.2664 53.6379 10.9475L54.3939 12.2327C54.1059 12.5985 53.71 12.9268 53.215 13.2176C52.738 13.4991 52.207 13.7148 51.622 13.8931C51.0371 14.0525 50.4611 14.1276 49.8762 14.1276L49.8852 14.137ZM61.7017 13.94V1.60412H57.9038V0.103176H67.1194V1.60412H63.1776V13.94H61.7017ZM79.116 13.94V0.103176H80.466L89.1507 12.0826L88.8806 12.439C88.8446 12.2326 88.8086 11.9137 88.7816 11.4916C88.7726 11.0694 88.7456 10.591 88.7276 10.0657C88.7186 9.52156 88.7007 8.96811 88.6917 8.3865C88.6827 7.80488 88.6646 7.24203 88.6556 6.68856V0.103176H90.1316V13.94H88.7456L80.097 2.12006L80.3219 1.70732C80.3579 2.23265 80.3939 2.75797 80.4209 3.27391C80.4569 3.78986 80.4839 4.27768 80.4929 4.75611C80.5199 5.23453 80.5379 5.66604 80.5469 6.06003C80.5559 6.45403 80.565 6.79175 80.565 7.06379C80.574 7.34522 80.583 7.54222 80.583 7.65479V13.94H79.107H79.116ZM94.6494 13.94L99.7342 0.103176H101.426L106.475 13.94H104.864L101.624 4.96249C101.534 4.7092 101.435 4.41837 101.318 4.09004C101.219 3.74295 101.102 3.39586 100.976 3.03939C100.859 2.67354 100.751 2.31708 100.634 1.96999C100.535 1.6229 100.436 1.32271 100.346 1.06004H100.724C100.625 1.38837 100.517 1.72607 100.4 2.07316C100.301 2.40149 100.193 2.73921 100.076 3.07692L99.7342 4.0619C99.6172 4.39023 99.5092 4.71858 99.3922 5.04691L96.1703 13.9212H94.6494V13.94ZM96.8183 10.122L97.3672 8.62102H103.649L104.252 10.122H96.8183ZM112.442 13.94V1.60412H108.644V0.103176H117.859V1.60412H113.918V13.94H112.442ZM121.837 13.94V12.4765H123.979V1.56659H121.837V0.103176H127.606V1.56659H125.464V12.4765H127.606V13.94H121.837ZM136.633 13.94L131.494 0.103176H133.159L136.462 9.1182C136.615 9.53096 136.75 9.88744 136.858 10.2064C136.975 10.5253 137.074 10.8255 137.164 11.1163C137.263 11.3978 137.362 11.6698 137.452 11.9512C137.542 12.2326 137.632 12.5328 137.74 12.8612L137.245 12.8799C137.371 12.4296 137.488 12.0169 137.605 11.6323C137.731 11.2477 137.857 10.863 137.983 10.4691C138.118 10.0563 138.289 9.58723 138.496 9.04314L141.781 0.103176H143.446L138.154 13.94H136.633ZM147.954 13.94V0.103176H156V1.60412H149.439V12.439H155.964V13.94H147.963H147.954ZM148.638 7.57037V6.06942H154.938V7.57037H148.638Z" fill="white"/>
<path d="M5.43583 39.7186L0 20.8443H4.4728L7.19072 30.7692C7.30771 31.2195 7.41568 31.6792 7.49667 32.1482C7.59567 32.5985 7.67668 33.03 7.73067 33.4428C7.80267 33.8555 7.84771 34.2401 7.88371 34.606C7.91971 34.9437 7.95569 35.2345 7.98269 35.469H7.41571C7.5147 34.803 7.60474 34.212 7.67673 33.6867C7.76673 33.1614 7.85668 32.6829 7.96467 32.2326C8.06367 31.7636 8.19871 31.2758 8.35171 30.7786L11.0426 23.3115H14.5615L17.1983 30.7786C17.4053 31.3696 17.5764 31.9325 17.7114 32.4484C17.8464 32.9737 17.9543 33.4709 18.0173 33.9587C18.1073 34.4278 18.1703 34.8968 18.2243 35.3565L17.7114 35.4409C17.7474 35.122 17.7743 34.8218 17.7923 34.5497C17.8103 34.2589 17.8283 33.9963 17.8463 33.743C17.8823 33.4709 17.9183 33.1989 17.9453 32.9081C17.9813 32.6173 18.0353 32.3077 18.0983 31.9606C18.1703 31.6041 18.2604 31.2008 18.3863 30.7505L21.0772 20.8536H25.4511L20.0152 39.728H16.6494L12.3565 28.8649L12.8515 28.9212L8.89166 39.7373H5.42682L5.43583 39.7186ZM33.2358 39.9906C31.8048 39.9906 30.5269 39.6717 29.4109 39.0244C28.304 38.3771 27.431 37.4953 26.774 36.379C26.135 35.2627 25.82 33.9869 25.82 32.5516C25.82 31.1163 26.135 29.8405 26.774 28.7242C27.431 27.6079 28.313 26.7261 29.4109 26.0788C30.5359 25.4315 31.8048 25.1126 33.2358 25.1126C34.6667 25.1126 35.9356 25.4315 37.0336 26.0788C38.1586 26.7261 39.0315 27.6079 39.6704 28.7242C40.3094 29.8405 40.6245 31.1163 40.6245 32.5516C40.6245 33.9869 40.3094 35.2627 39.6704 36.379C39.0315 37.4953 38.1496 38.3771 37.0336 39.0244C35.9266 39.6717 34.6667 39.9906 33.2358 39.9906ZM33.2358 36.2664C33.8568 36.2664 34.4057 36.1069 34.8917 35.7786C35.3777 35.4597 35.7557 35.0188 36.0256 34.4559C36.3046 33.9024 36.4306 33.2645 36.4126 32.5422C36.4306 31.8199 36.3046 31.182 36.0256 30.6285C35.7467 30.0563 35.3687 29.606 34.8917 29.2777C34.4057 28.9587 33.8568 28.7899 33.2358 28.7899C32.6148 28.7899 32.0568 28.9493 31.5528 29.2777C31.0669 29.5966 30.6889 30.0469 30.4189 30.6285C30.1399 31.182 30.0138 31.8199 30.0318 32.5422C30.0138 33.2645 30.1399 33.9024 30.4189 34.4559C30.6979 35.0094 31.0759 35.4503 31.5528 35.7786C32.0568 36.0976 32.6148 36.2664 33.2358 36.2664ZM43.3424 39.7186V25.4034H47.2752L47.4552 30.0657L46.6812 29.1745C46.8882 28.4053 47.2212 27.7111 47.6892 27.1013C48.1751 26.4915 48.7331 26.0038 49.3721 25.6473C50.0111 25.2908 50.6951 25.1126 51.415 25.1126C51.721 25.1126 52.009 25.1407 52.27 25.197C52.549 25.2533 52.792 25.3096 53.017 25.3846L51.883 30.1595C51.694 30.0375 51.4331 29.9343 51.1091 29.8593C50.8031 29.7655 50.47 29.728 50.128 29.728C49.7501 29.728 49.3991 29.803 49.0661 29.9437C48.7422 30.0657 48.4631 30.2627 48.2381 30.5066C48.0131 30.7598 47.8332 31.0507 47.6982 31.3978C47.5812 31.7355 47.5182 32.1295 47.5182 32.561V39.7373H43.3514L43.3424 39.7186ZM59.0918 35.5159L57.5618 32.2796L63.9785 25.4034H69.4324L59.0828 35.5159H59.0918ZM55.1139 39.7186V19.7655H59.2537V39.7186H55.1139ZM64.4195 39.7186L59.5867 33.1895L62.5116 30.8161L69.3154 39.7092H64.4285L64.4195 39.7186ZM71.2053 39.7186V19.7655H75.3451V39.7186H71.2053ZM85.3258 39.9906C83.8048 39.9906 82.4909 39.6717 81.3659 39.0432C80.241 38.3959 79.377 37.5234 78.756 36.4259C78.135 35.3096 77.829 34.0432 77.829 32.6266C77.829 31.5291 78.0001 30.5253 78.342 29.606C78.684 28.6867 79.17 27.8987 79.791 27.2326C80.412 26.5478 81.1409 26.0319 81.9868 25.666C82.8508 25.2908 83.7868 25.1032 84.8037 25.1032C85.8207 25.1032 86.6487 25.2814 87.4407 25.6379C88.2507 25.9944 88.9526 26.5009 89.5376 27.1482C90.1225 27.7955 90.5725 28.5554 90.8785 29.4372C91.1845 30.319 91.3285 31.2758 91.2925 32.3265L91.2655 33.4897H80.3219L79.7279 31.06H87.8997L87.4587 31.576V31.0413C87.4227 30.591 87.2876 30.197 87.0446 29.8593C86.8197 29.5028 86.5227 29.2214 86.1357 29.0244C85.7577 28.8274 85.3258 28.7242 84.8398 28.7242C84.1648 28.7242 83.5888 28.8649 83.1028 29.1557C82.6348 29.4278 82.2839 29.8311 82.0409 30.3659C81.7979 30.8912 81.6809 31.5385 81.6809 32.3077C81.6809 33.0769 81.8339 33.7899 82.1489 34.3809C82.4729 34.9531 82.9408 35.4034 83.5438 35.7317C84.1647 36.0507 84.8938 36.2195 85.7397 36.2195C86.3247 36.2195 86.8467 36.1257 87.2877 35.9475C87.7556 35.7692 88.2507 35.4597 88.7906 35.0281L90.7345 37.8893C90.2035 38.3771 89.6276 38.7711 89.0246 39.0713C88.4217 39.3809 87.8006 39.606 87.1616 39.7467C86.5407 39.9062 85.9197 39.9906 85.2988 39.9906H85.3258ZM95.0724 39.7186V21.7917H99.2122V39.7186H95.0724ZM92.6424 29.1745V25.4034H101.876V29.1745H92.6424ZM109.382 39.9906C108.041 39.9906 106.844 39.7655 105.809 39.3152C104.792 38.8649 103.982 38.2645 103.379 37.5047L105.89 35.2439C106.421 35.7974 107.024 36.2101 107.699 36.4822C108.374 36.7355 109.013 36.8574 109.616 36.8574C109.859 36.8574 110.075 36.8293 110.264 36.773C110.453 36.7167 110.606 36.651 110.732 36.5572C110.867 36.454 110.975 36.3321 111.038 36.2101C111.11 36.0694 111.137 35.9006 111.137 35.7223C111.137 35.3658 110.984 35.0844 110.669 34.8874C110.516 34.7936 110.255 34.6904 109.895 34.5685C109.535 34.4465 109.067 34.2964 108.5 34.137C107.69 33.9212 106.979 33.6679 106.376 33.3865C105.791 33.0769 105.305 32.7298 104.927 32.3358C104.585 31.9606 104.315 31.5478 104.126 31.0976C103.937 30.6285 103.838 30.1126 103.838 29.5309C103.838 28.8649 103.982 28.2645 104.279 27.7204C104.585 27.1857 104.999 26.7167 105.494 26.3227C106.007 25.9287 106.601 25.6285 107.249 25.4315C107.924 25.2158 108.608 25.1126 109.319 25.1126C110.075 25.1126 110.804 25.2064 111.488 25.3846C112.181 25.5629 112.82 25.8161 113.405 26.1351C114.008 26.454 114.539 26.848 115.007 27.2983L112.838 29.8311C112.532 29.5216 112.172 29.2589 111.776 29.0244C111.398 28.7711 111.002 28.5741 110.588 28.4334C110.174 28.2927 109.796 28.2176 109.454 28.2176C109.193 28.2176 108.959 28.2458 108.752 28.3021C108.563 28.3396 108.401 28.4053 108.257 28.5178C108.122 28.6116 108.014 28.7242 107.951 28.8649C107.879 28.9869 107.852 29.1464 107.852 29.3246C107.852 29.5028 107.897 29.6717 107.978 29.8405C108.077 30 108.221 30.1407 108.392 30.2439C108.563 30.3471 108.842 30.4784 109.22 30.6191C109.598 30.7411 110.12 30.91 110.768 31.107C111.578 31.3415 112.28 31.6041 112.865 31.8856C113.45 32.1764 113.918 32.5141 114.26 32.9081C114.539 33.2176 114.746 33.5741 114.881 33.9869C115.016 34.3809 115.088 34.8124 115.088 35.2814C115.088 36.2007 114.836 37.0169 114.341 37.7392C113.855 38.4428 113.189 38.9963 112.325 39.409C111.461 39.803 110.48 40 109.373 40L109.382 39.9906Z" fill="white"/>
</svg>
