<svg width="400" height="330" viewBox="0 0 400 330" fill="none" xmlns="http://www.w3.org/2000/svg">
<path fill-rule="evenodd" clip-rule="evenodd" d="M316 67.5C318 68.1667 322.8 70 326 72C326.258 72.161 326.536 72.3344 326.833 72.5193C331.145 75.2062 339.354 80.322 344.5 85C350 90 358 96 361 97C363.4 97.8 365 99 365.5 99.5C365.5 100.333 365.3 102.2 364.5 103C363.914 103.586 363.843 104.686 363.784 105.598C363.743 106.243 363.707 106.793 363.5 107C363.25 107.25 362.75 107.875 362.25 108.5C361.75 109.125 361.25 109.75 361 110C361 110.667 360.3 112.1 359.5 112.5C358.5 113 353.5 112 352.5 111C351.5 110 343 107.5 337 107C336.395 106.95 335.703 106.889 334.948 106.823L334.947 106.823C328.216 106.233 316.45 105.202 316 107C314.833 108.667 312.1 113.8 310.5 121C308.5 130 304.5 140.5 303.5 142C302.5 143.5 294 156.5 293.5 157.5C293.318 157.865 293.268 159.36 293.206 161.233C293.099 164.498 292.953 168.912 292 170.5C290.761 172.565 288.84 174.288 287.927 175.108C287.735 175.28 287.587 175.413 287.5 175.5C287.167 175.833 287.278 176.611 287.389 177.389C287.444 177.778 287.5 178.167 287.5 178.5C287.5 179.5 286 182 285 183C284.2 183.8 279.667 187 277.5 188.5C277.068 188.726 276.518 188.969 275.852 189.22L277.5 189C279.5 192.5 283.9 199.8 285.5 201C287.319 202.364 292.861 210.761 294.601 213.397L294.603 213.399C294.775 213.66 294.91 213.865 295 214C296 215.5 291 221 290 221.5C289.551 221.725 287.588 222.05 285.291 222.431C282.473 222.898 279.152 223.449 277.5 224C274.5 225 262.5 228 260.5 228C258.5 228 247 225 245.5 224C244.364 223.243 242.541 223.322 241.643 223.474C238.145 228.914 234.529 234.678 234 236C233.2 238 230 238.167 228.5 238C222.333 238.5 209.5 239.8 207.5 241C205 242.5 196 242.5 194.5 242C193.334 241.611 186.131 241.827 182.273 241.942C181.166 241.975 180.334 242 180 242C180.167 239.333 181.9 233.6 187.5 232C188.5 231.833 191.4 231.9 195 233.5C195.5 233.833 196.7 234.5 197.5 234.5C198.3 234.5 198.167 233.833 198 233.5C198.333 233.167 199.6 232.7 202 233.5C202.683 233.728 203.859 233.8 205.328 233.758C204.085 232.445 201.975 230.487 200 229.5C197 228 181.5 221 177 220C175.388 219.642 172.879 219.669 170.275 219.804C170.37 220.196 170.446 220.594 170.5 221V232.5C170.5 233.788 169.049 235.075 167.749 236.229C167.03 236.868 166.356 237.466 166 238L164 241C163.333 240.833 161.9 240 161.5 238C161.371 237.357 161.11 236.582 160.819 235.716C159.978 233.218 158.886 229.971 160 227C161.2 223.8 163.167 224 164 224.5C164.333 224 164.8 222.8 164 222C163.721 221.721 162.859 221.093 161.675 220.288C160.799 220.277 160.197 220.197 160 220C159.835 219.835 159.765 219.493 159.766 219.02C156.744 217.053 152.847 214.674 150.5 213.5C149.011 212.755 146.413 211.318 143.635 209.781C138.951 207.189 133.755 204.314 132.5 204C130.5 203.5 124 199 124 197.5C124 196.3 125.667 194 126.5 193C130.667 190.667 139.2 185.7 140 184.5C140.454 183.818 141.426 182.62 142.397 181.421C143.562 179.983 144.727 178.545 145 178C145.253 177.494 145.253 176.562 145.176 175.734C144.314 175.008 143.693 174.333 143.265 173.777C134.142 170.162 128.721 166.221 127 164.5C125.167 163.333 121.8 159 123 151C124.2 143 125.167 140 125.5 139.5C122.333 139.667 115.4 140.3 113 141.5C110 143 99.5 149.5 97.5 151.5C95.5 153.5 90.5 158.5 88.5 159.5C86.9 160.3 85.5 161.5 85 162C85.276 160.758 85.9179 158.418 86.5847 157.424C85.6358 158.205 83.4056 159.923 80.8887 161.861L80.8872 161.862C78.1764 163.95 75.133 166.294 73 168C72.0645 168.748 71.3041 169.392 70.6369 169.956C67.7375 172.409 66.5968 173.374 60.5 175C53 177 41.5 169 41 168.5C40.5 168 38 165.5 37.5 164C38.8333 165 42.1 167 44.5 167H45C42.6666 165.333 37.6 160.8 36 156C34.4 151.2 35.3333 148.333 36 147.5C36.1666 148.5 36.8999 150.8 38.4999 152C38.6666 151 39.4999 148.6 41.4999 147C43.4999 145.4 44.6666 145 45 145C45.8333 147.667 49.2999 153.1 56.4999 153.5C63.6999 153.9 68.1666 150.333 69.4999 148.5C72.1666 146.5 79 141.9 85 139.5C86.5946 138.862 87.9633 138.269 89.2164 137.727C93.8569 135.717 96.9136 134.394 104 134C111.2 133.6 121.333 130.833 125.5 129.5L129 128.5C136.667 123.667 152.4 113.9 154 113.5C156 113 172 114.5 179.5 116.5C185.5 118.1 200 118.5 206.5 118.5C221.5 118.333 253.4 117.1 261 113.5C265.333 111.272 274 106.734 274 106.408C265.5 107.908 263 102.5 263 102.5C263 102.5 266.5 104 274 100.5C277.617 98.8121 280.007 97.9689 281.494 97.4442C283.299 96.8074 283.774 96.6397 283.5 96C283.195 95.3901 281.817 95.3382 280.195 95.277C279.158 95.2379 278.021 95.195 277 95C277.262 94.8826 277.759 94.7376 278.374 94.5587C280.375 93.9753 283.617 93.0304 284 91.5C284.205 90.6798 282.708 90.6201 281.52 90.5727C281.119 90.5567 280.753 90.5421 280.5 90.5C281.167 89.6667 284.6 87.3 287 86.5C288.268 86.0773 289.089 85.8333 289.691 85.6547C290.512 85.4107 290.923 85.2887 291.5 85C292.3 84.6 293.333 83.8333 293.5 83.5C291.5 82.3333 287 80 285 80C285.833 78.3333 288.4 74.7 292 73.5C295.07 72.4766 296.977 72.1514 298.513 71.8893C299.229 71.7673 299.864 71.6589 300.5 71.5C300.333 70.5 299.117 69.5 298 69C299.617 68.5 304.1 67.4 306.5 69V66.5C306.5 65.8401 306.757 64.902 306.908 64.3466C306.948 64.2008 306.981 64.081 307 64C307.117 63.5 308 63.5 309.5 64C310.522 64.3407 312.705 65.6098 314.308 66.5421C315.058 66.9782 315.681 67.3407 316 67.5ZM161.245 190.001C155.818 190.039 144.969 191.275 143 196C141 200.8 148.833 204.333 153 205.5C155.333 206.167 160.3 207.8 161.5 209C161.594 209.053 161.692 209.11 161.793 209.17C161.879 208.747 161.95 208.353 162 208C162.5 204.5 162.5 192.5 162 191C161.937 190.812 161.67 190.466 161.245 190.001ZM232.5 217.5C232.5 216.981 233.762 216.294 235.059 215.738C235.716 214.121 236.216 212.516 236.5 211C238 203 241 198.5 241.5 198C241.518 197.982 241.539 197.963 241.561 197.942C241.599 197.908 241.643 197.87 241.692 197.828C242.413 197.206 244.198 195.667 242.653 191.859C241.464 191.758 240.246 191.638 239 191.5C217.4 189.1 196 179.833 188 175.5C187.209 175.658 186.316 175.822 185.336 175.987L185.5 176C183.167 178 178.4 182.2 178 183C177.81 183.381 177.619 184.847 177.374 186.739C176.975 189.818 176.429 194.022 175.5 196.5C174 200.5 172.5 205.5 172.5 208C172.5 210.5 194.5 218.5 197 219C199.5 219.5 205 222.5 206 224C207 225.5 212.5 232 214 232.5C214.251 232.584 214.186 232.698 213.896 232.831C217.241 232.293 220.482 231.606 222.5 231C225.974 229.958 230.654 224.571 233.691 218.697C232.961 218.153 232.5 217.722 232.5 217.5ZM249 216C249.311 216 249.303 215.826 247.022 215.152C248.343 213.05 251.049 208.986 254.5 204.5C256.248 202.227 259.206 199.744 262.372 197.461C262.917 197.797 263.32 198 263.5 198C263.893 198 264.21 198.232 264.966 198.788C266.132 199.645 268.345 201.271 273.5 204C282 208.5 283.5 214 283.5 216C283.5 217.6 273.5 219.333 268.5 220C265.333 220.333 258.7 220.8 257.5 220C256.3 219.2 255.333 219 255 219C249.633 219 249.467 218.6 249.134 217.8C249.11 217.742 249.085 217.683 249.057 217.621C249.039 217.581 249.02 217.541 249 217.5V216Z"/>
</svg>
