<svg width="400" height="330" viewBox="0 0 400 330" fill="none" xmlns="http://www.w3.org/2000/svg">
<path fill-rule="evenodd" clip-rule="evenodd" d="M303.5 65.7071C303.1 66.1071 303 69.5404 303 71.2071C302.333 71.3738 300.8 71.9071 300 72.7071C299.2 73.5071 299.333 74.3738 299.5 74.7071C299.5 74.8738 298.8 75.4071 296 76.2071C293.2 77.0071 290 77.7071 287.5 78.2071C288 78.5 291 79.2071 293 81.7071C294.117 83.1027 293.863 83.2574 292.262 84.232C291.683 84.5842 290.929 85.0435 290 85.7071C285 87.7071 279.333 90.8738 278 92.2071C278.199 92.2569 278.421 92.3098 278.658 92.3662C280.321 92.7627 282.708 93.3316 283 94.2071C282.6 98.2071 266.833 102.374 259 103.707C265.5 106 274 103.54 277 102.207C275.167 103.374 271.1 105.907 269.5 106.707C267.9 107.507 260.5 109.707 257 110.707C258 111 264.667 110.54 266.5 110.207C266.833 110.04 266.9 110.107 264.5 111.707C261.5 113.707 224.5 117.207 212.5 117.707C206.969 117.938 195.809 116.787 184.551 115.627C171.383 114.269 158.082 112.898 153.5 113.707C146.7 114.907 132 125.874 125.5 131.207L124 132.207C119.833 132.54 109.4 133.507 101 134.707C92.8657 135.869 86.832 138.532 82.6663 140.37C81.4551 140.904 80.401 141.369 79.5 141.707C76.0417 143.004 72.2097 146.917 69.2965 149.892C68.8403 150.358 68.4061 150.801 68 151.207C65.6 153.607 59 155.874 56 156.707C56.8 157.507 59 157.707 60 157.707C59.6667 158.874 58.2 160.607 55 158.207C54.115 157.543 53.3034 156.88 52.5381 156.254C49.8448 154.051 47.7256 152.318 45 152.707C42.2 153.107 37.8333 157.207 36 159.207C36.8333 159.207 39.1 159.507 41.5 160.707C43.9 161.907 44.1667 164.207 44 165.207C43.2 164.407 39.6667 164.54 38 164.707C39.2 165.507 41.8333 167.707 43 168.707C50.8411 174.37 51.8508 174.34 55.2873 174.239C55.7952 174.224 56.3562 174.207 57 174.207C61 174.207 70.6667 165.207 75 160.707C78 157.54 85.1 151.207 89.5 151.207C93.9 151.207 98 152.874 99.5 153.707C110.7 156.107 117.167 153.04 119 151.207C120.167 149.874 121.5 147.707 121.5 147.707C121.5 147.707 118.5 147.874 117.5 147.707C116.333 147.04 114.2 145.207 115 143.207C115.8 141.207 121.333 140.04 124 139.707L126.5 140.207C125.167 143.207 123.6 151.707 128 161.707C132.4 171.707 146.167 175.207 152.5 175.707L154.282 175.777C154.752 176.578 155.256 177.744 155.5 179.207C156 182.207 154 190.207 153.5 191.207C153.366 191.475 152.728 192.355 151.857 193.556C149.481 196.835 145.366 202.512 145 204.707C144.6 207.107 145.167 208.374 145.5 208.707C149.167 209.207 157.1 210.207 159.5 210.207C161.614 210.207 170.431 212.442 176.33 213.936C178.802 214.563 180.762 215.059 181.5 215.207C182.238 215.355 183.18 215.779 184.15 216.314C184.849 218.056 185.565 219.99 186 221.207C187.5 221.707 191.5 222.207 193.5 222.207C194.291 222.207 196.583 221.962 199.14 221.655C198.702 221.862 198.313 222.051 198 222.207C198 222.54 198.7 223.307 201.5 223.707C203.25 223.957 206.75 225.332 210.25 226.707C213.75 228.082 217.25 229.457 219 229.707C221.8 230.107 222.833 231.54 223 232.207C223.333 233.207 224.3 235.307 225.5 235.707C226.265 235.962 228.069 235.567 230.118 235.119C232.088 234.688 234.284 234.207 236 234.207C237.64 234.207 239.61 234.317 241.703 234.434C244.076 234.566 246.609 234.707 249 234.707C252.6 234.707 253.167 230.707 253 228.707C252.833 225.374 252.9 217.707 254.5 213.707C256.1 209.707 258.167 201.04 259 197.207C260.28 196.858 261.76 196.134 263.285 195.217C264.737 195.444 266.018 195.618 267 195.707C272.5 196.207 284.5 196.207 289.5 196.207C294.5 196.207 300.5 199.207 301.5 200.207C302.5 201.207 301 207.207 300.5 209.207C300.1 210.807 290.333 215.874 285.5 218.207C284 218.54 281 219.107 281 218.707C281 218.307 279.667 217.207 279 216.707C275 215.707 271 218.707 269 220.207C267.4 221.407 267.667 224.707 268 226.207H288.5L290.5 224.207C291.3 223.407 299.5 216.207 303.5 212.707L310 207.207C311.833 204.207 314.7 197.907 311.5 196.707C308.427 195.555 294.659 184.475 287.371 178.431C288.159 177.848 289.484 176.884 290.5 176.207C291.791 175.346 294.194 170.411 295.475 167.777C295.683 167.351 295.861 166.986 296 166.707C296.59 165.527 296.658 161.217 296.717 157.469V157.468C296.758 154.862 296.795 152.527 297 151.707C297.4 150.107 301.167 143.374 303 140.207C303.833 137.874 305.6 132.707 306 130.707C306.5 128.207 310 118.207 311 116.207C311.8 114.607 314 112.207 315 111.207C315.5 110.54 317.1 109.007 319.5 108.207C321.836 107.428 326.293 107.559 329.569 107.655C330.5 107.683 331.336 107.707 332 107.707C335 107.707 338.5 108.207 346 111.207C352 113.607 356.167 114.54 357.5 114.707L359 113.207C359.25 112.957 360.125 112.332 361 111.707C361.875 111.082 362.75 110.457 363 110.207C363.4 109.807 363.167 107.04 363 105.707C363.8 104.507 364 103.207 364 102.707C364 101.874 363.4 100.107 361 99.7071C358.977 99.3699 358.091 98.5781 353.436 94.4192C351.188 92.4103 348.06 89.6156 343.5 85.7071C332.3 76.1071 319.833 71.3738 315 70.2071L312.5 68.7071C310.833 67.7071 307.3 65.6071 306.5 65.2071C305.5 64.7071 304 65.2071 303.5 65.7071ZM201.948 217.464C204.197 216.711 206.836 214.726 208 213.707C208.333 213.374 208.8 212.607 208 212.207C207 211.707 200 209.707 197 209.207C196.38 209.104 195.204 208.958 193.684 208.782C192.274 207.042 191.097 205.402 190.5 204.207C188.984 201.176 189.742 185.94 190.393 177.542C190.493 177.472 190.593 177.403 190.693 177.335C197.618 181.889 216.382 190.977 239.09 193.018C240.697 193.798 242.221 194.733 243 195.707C244.6 197.707 244.667 204.207 244.5 207.207C244.667 212.207 244.7 222.707 243.5 224.707C242.3 226.707 236.333 226.54 233.5 226.207C230.5 225.874 224.6 224.907 225 223.707C225.4 222.507 224.833 221.874 224.5 221.707L217 222.207L217.5 219.207C217 218.707 215.6 217.607 214 217.207C212.705 216.883 210.57 217.608 208.548 218.295C207.448 218.668 206.381 219.031 205.5 219.207C205.308 219.245 205.099 219.297 204.876 219.358C204.323 218.958 203.679 218.547 203 218.207C202.746 218.08 202.386 217.823 201.948 217.464ZM172.866 189.6C172.911 189.636 172.955 189.671 173 189.707C175 191.307 177.833 196.707 179 199.207C179.165 202.839 179.494 205.381 179.896 207.211C177.033 206.858 174.513 206.51 173 206.207C168.833 205.374 166.403 204.54 163.972 203.707C163.486 203.54 163 203.374 162.5 203.207C160.1 202.407 160.167 201.874 160.5 201.707C162.833 198.874 168.1 192.807 170.5 191.207C170.932 190.919 171.759 190.357 172.866 189.6Z"/>
</svg>
