<svg width="400" height="330" viewBox="0 0 400 330" fill="none" xmlns="http://www.w3.org/2000/svg">
<path d="M325.5 71.0781C329.1 71.4781 332.333 73.2448 333.5 74.0781C333.333 74.4114 331.8 74.9781 327 74.5781C322.2 74.1781 305.5 76.0781 300 75.0781C301.5 80.0781 305.333 83.0781 307 83.5781C304.2 86.3781 288.5 89.0781 281 90.0781C283 90.8781 288.5 91.0781 291 91.0781C287.8 93.0781 275.667 94.9115 270 95.5781C272 96.7781 274.167 97.7448 275 98.0781C273.4 99.2781 264.333 102.578 260 104.078C262 104.5 270.333 101.911 273.5 101.078C243.5 120.578 200 120.578 185.5 117.078C171 113.578 150.5 113.078 147.5 113.578C144.5 114.078 123 115.578 121 115.578C119 115.578 101 121.578 92 124.078C84.8 126.078 76.6667 126.245 73.5 126.078L74.5 128.078C75.1667 128.245 76.1 128.578 74.5 128.578H57C58 129.5 62.1667 130.911 63 132.078C52 133.078 28.9159 140.835 31.5 140.078C33.4746 139.5 38 139.745 40 140.078C33.2 141.278 18.5 149.578 12 153.578C16.5 153.5 27.7 151.778 26.5 152.578C25.3 153.378 23.6667 156.578 23 158.078C29.5 155.078 43.5 148.978 47.5 148.578C52.5 148.078 68 144.078 76.5 142.078C83.3 140.478 107 132.078 118 128.078C118.833 127.578 120.4 126.878 120 128.078C119.5 129.578 115 140.578 114 144.078C113 147.578 110.5 166.078 110.5 167.078C110.5 168.078 89.5 183.578 84.5 184.578C80.5 185.378 76.1667 188.245 74.5 189.578C63.5 208.078 53.5 210.578 52.5 211.578C51.5 212.578 44.5 213.578 43 214.078C41.5 214.578 41.5 215.578 41.5 216.078C41.5 216.578 39 218.578 37.5 219.078C36 219.578 33 217.078 32 217.078C31 217.078 28.5 218.078 27 219.078C25.5 220.078 20.5 227.578 21.5 227.578C22.5 227.578 37.5 225.578 38.5 225.078C39.5 224.578 52 219.578 53.5 219.078C55 218.578 72 204.578 73 203.578C74 202.578 88.5 193.078 93.5 191.078C97.5 189.478 109.5 184.745 115 182.578C116.2 186.578 112.5 190.578 110.5 192.078C105.833 194.578 96.6 200.578 97 204.578C97.4 208.578 96.1667 231.911 95.5 243.078C95.1667 245.578 94.9 250.878 96.5 252.078C98.5 253.578 102.5 252.078 103 252.078C103.4 252.078 105.5 254.411 106.5 255.578C107.5 256.245 109.9 257.778 111.5 258.578C113.1 259.378 118.5 258.245 121 257.578C119.167 254.411 115.1 248.078 113.5 248.078C111.9 248.078 105.833 244.745 103 243.078C102.833 240.245 102.6 232.378 103 223.578C103.5 212.578 112 205.078 113.5 204.578C115 204.078 123 199.078 124 197.578C124.8 196.378 137.667 185.078 144 179.578C144.833 177.411 147.5 172.378 151.5 169.578C155.5 166.778 165.833 168.411 170.5 169.578C232.5 192.578 278 179.578 280 179.578C281.6 179.578 290 189.245 294 194.078C297.667 198.078 305.3 206.878 306.5 210.078C308 214.078 313.5 219.078 315 220.078C316.5 221.078 325.5 234.578 327 236.578C328.5 238.578 330.5 245.078 331.5 245.578C332.5 246.078 336.5 246.578 338 247.078C339.2 247.478 340.5 251.578 341 253.578C341 254.411 341.4 256.178 343 256.578C345 257.078 356 257.078 356 256.078C356 255.078 353 251.078 352 250.078C351.2 249.278 351 248.078 351 247.578C350.5 247.078 348.1 245.478 342.5 243.078C335.5 240.078 321 218.078 321 217.578C321 217.078 319 211.078 315 206.078C311.8 202.078 305 186.745 302 179.578H311.5C322 179.578 339 184.078 341 184.078C343 184.078 361.5 197.078 363 198.078C364.5 199.078 364 202.078 364.5 203.078C365 204.078 366 204.078 367 204.078C368 204.078 372.5 205.078 372.5 206.078C372.5 207.078 372.5 212.578 374 213.078C375.2 213.478 381.833 213.911 385 214.078C385.833 213.411 387.4 211.878 387 211.078C386.5 210.078 376.5 201.578 375.5 201.078C374.5 200.578 373 198.078 372.5 197.078C372 196.078 370 194.578 368.5 194.078C367 193.578 350.5 182.078 349.5 181.578C348.5 181.078 348 179.578 347 178.578C346 177.578 338.5 173.578 337.5 173.078C336.5 172.578 326 172.078 321 169.578C317 167.578 306 163.411 301 161.578C300.833 161.078 300.8 159.678 302 158.078C303.2 156.478 303.5 148.411 303.5 144.578C303 141.411 303.3 134.278 308.5 131.078C315 127.078 323 113.078 323.5 112.578C324 112.078 330.5 104.578 331.5 105.578C332.5 106.578 346 108.078 347 109.078C348 110.078 362.5 117.578 364 119.078C365.5 120.578 364 122.578 365 123.078C366 123.578 369.5 124.078 370.5 124.078C371.5 124.078 377 122.578 378 121.578C379 120.578 379 119.078 380 117.578C381 116.078 380.5 112.578 380 112.078C379.5 111.578 377 107.578 376 106.578C375 105.578 356.5 80.0781 355 79.5781C353.8 79.1781 352.167 77.7448 351.5 77.0781C350 74.0781 344 69.5781 340 69.0781C336.8 68.6781 328.667 69.9114 325 70.5781C323.667 70.5781 321.9 70.6781 325.5 71.0781Z"/>
</svg>
