<svg width="400" height="330" viewBox="0 0 400 330" fill="none" xmlns="http://www.w3.org/2000/svg">
<path d="M326 78.5C327.2 78.5 329.5 79.5 330.5 80C327.3 82.6923 327 82.5 319 83.5C308.5 80 298.5 80.5 296 81C300.8 83.8 302.667 89.5 303 92C300.6 93.2 293.333 93.1667 290 93V97.5C284 102 266 106.5 268 106.5H273.5C274 106.333 274.7 106.3 273.5 107.5C272 109 236.5 126.5 217 128C197.5 129.5 168.5 120.5 161 119C153.5 117.5 120 119.5 119 119C118 118.5 112 119.5 108 120.5C104 121.5 80 132 74 134C69.2 135.6 56.6667 134.667 51 134C52 135 56.1667 135.333 58 136C54.5 137.5 35 137.5 31 137.5H15.5C17 138.5 24 139.167 27 140C23.4 140.8 12.1667 142 7 142.5C8.2 145.3 15.1667 148.333 18.5 149.5C16.9 150.3 13.1667 150.833 11.5 151C14.5 152.5 24.6 154.4 35 156C48 158 71.5 150 75.5 149C79.5 148 100 134.5 108 130C114.4 126.4 116.667 127.167 117 128C111 135 107 143 106.5 151.5C106 160 105 166 104 168.5C103 171 93 176.5 90.5 178C88 179.5 73.5 181.5 71.5 183C69.5 184.5 65 188.5 63.5 190C62.3 191.2 46.3333 199.5 38.5 203.5C36.8333 203.667 32.9 204.3 30.5 205.5C27.5 207 27 206 26.5 205.5C26 205 24 203 22.5 203C21.3 203 15 208.333 12 211C11.6667 212 11.4 214 13 214C15 214 35 214.5 38 213.5C41 212.5 54 204 55.5 203C57 202 61.5 199.5 68 197.5C73.2 195.9 84.5 193.5 89.5 192.5C89.8333 192.833 90.3 193.7 89.5 194.5C88.5 195.5 84.5 198 81.5 200.5C78.5 203 79 206 78.5 208C78 210 61.5 229.5 60.5 231.5C59.5 233.5 55.5 234.5 54.5 235C53.5 235.5 53.5 237.5 53 239C52.5 240.5 46.5 239 44.5 240C42.5 241 41.5 247 41 248C40.6 248.8 41.1667 250.667 41.5 251.5C44.8333 250.333 51.8 247.8 53 247C54.5 246 61.5 241.5 63.5 239C65.5 236.5 82.5 215 83 214.5C83.5 214 86 212 87.5 211.5C89 211 91.5 207 95.5 205C98.7 203.4 111.167 193 117 188C121 187.5 140 175.5 143 175C146 174.5 158.5 173.5 161 173C163.5 172.5 173 178.5 184.5 184C196 189.5 238.5 191 243 191H265.5C270 191 270 200 270 203C270 206 271.5 227.5 272 229C272.5 230.5 276 233 276.5 237C277 241 279 260 279.5 261C280 262 284 261.5 286 262C288 262.5 287.5 262.5 287.5 263.5C287.5 264.5 290.5 265.5 296.5 265.5H305.5C305.5 265 305 263.2 303 260C301 256.8 298.833 255.333 298 255C295 255.333 288.7 255.8 287.5 255C286 254 282 236 282 234.5C282 233.3 281.667 218 281.5 210.5C282.167 204.167 283.7 191 284.5 189C285.5 186.5 287 187 292 188C297 189 302.5 190.5 308.5 192C314.5 193.5 334 205.5 335 206C336 206.5 336.5 206.5 340 207C343.5 207.5 357.5 214.5 359.5 216C361.5 217.5 364.5 219.5 365.5 219.5C366.5 219.5 369.5 218 372 217.5C374 217.1 377.167 218.667 378.5 219.5C379.333 220.167 381.7 221.5 384.5 221.5C388 221.5 392 216 393 214.5C393.8 213.3 392.667 212.333 392 212C392.333 212 390.2 211.9 379 211.5C365 211 355.5 206 353 205C350.5 204 323.5 188.5 322 187C320.5 185.5 311 177.5 307.5 175C304.7 173 302.667 171.167 302 170.5V161C302 160 299 155 299.5 152C300 149 306.5 144 311 135C315.5 126 324 118.5 325.5 117C327 115.5 337.5 115.5 341 116.5C344.5 117.5 349 122.5 355 125C361 127.5 361.5 130 364.5 131.5C367.5 133 371.5 132 373 131.5C374.2 131.1 374.833 128.667 375 127.5C376.333 126.667 378.7 124.6 377.5 123C376 121 366.5 111 365 108.5C363.5 106 355.5 94 352.5 90.5C349.5 87 339 79.5 338 78.5C337 77.5 334 76 330.5 76C327 76 324.5 78.5 326 78.5Z"/>
</svg>
