<svg width="400" height="330" viewBox="0 0 400 330" fill="none" xmlns="http://www.w3.org/2000/svg">
<path fill-rule="evenodd" clip-rule="evenodd" d="M323.5 76.5L320.5 74H329.5C334.5 74 340 75.5 341.5 76.5C343 77.5 353 84.5 357.5 92.5C361.1 98.9 371.333 107.833 376 111.5C378.333 113 382.8 116.8 382 120C381.359 122.565 380.512 123.691 379.855 124.564C379.487 125.053 379.179 125.462 379 126C378.5 127.5 377 128.5 375.5 129C374 129.5 369.5 129.5 366.5 126C363.5 122.5 349.5 117 345.5 116L345.3 115.95C341.191 114.921 331.918 112.598 327 118.5C323 123.3 315 136.167 311.5 142C307.833 146.833 300.2 156.8 299 158C297.5 159.5 299 177.5 299.5 178.5C299.655 178.81 300.768 179.934 302.351 181.533C305.88 185.096 311.739 191.013 314.5 195.5C318.5 202 326 210 327.5 211C328.41 211.607 332.266 215.895 335.716 219.733C337.951 222.22 340.017 224.517 341 225.5C341.252 225.752 341.535 226.04 341.844 226.355C344.595 229.155 349.404 234.05 353 234.5C354 235.833 356.3 238.6 357.5 239C357.833 239.111 358.338 239.419 359.032 239.842C361.465 241.325 366.219 244.222 374 245C375 245.667 376.6 247.4 375 249C373 251 366.5 254.5 364.5 254.5C362.5 254.5 360 253 360 251C360 250.517 360.058 250.092 360.112 249.704C360.279 248.487 360.396 247.637 358.5 246.5C356 245 349 245 347.5 245C346.5 245 345.944 243.222 345.389 241.444C345.111 240.556 344.833 239.667 344.5 239C343.5 237 335 227.5 332 226C329 224.5 323 221 315.5 213.5C314.965 212.965 314.431 212.428 313.895 211.89C306.915 204.877 299.751 197.679 290 193.5C281.6 189.9 278.167 189.333 277.5 189.5C276 190.5 272.2 192.6 269 193C265.8 193.4 264.333 193.5 264 193.5C260.5 199.333 252.3 211.7 247.5 214.5C242.7 217.3 240.5 223.667 240 226.5C239.5 227.333 238.1 229.1 236.5 229.5C234.5 230 226.5 245 226 246.5C225.5 248 227.5 254 229 255C229.913 255.609 231.754 256.033 233.28 256.384C234.259 256.609 235.109 256.805 235.5 257C236.5 257.5 241 261 241 263.5C241 265.5 239.667 266.333 239 266.5H228C227.333 266.167 226.1 265.1 226.5 263.5C226.794 262.323 226.569 261.838 226.333 261.333C226.169 260.98 226 260.617 226 260C226 259.05 223.793 258.501 221.667 257.972C220.437 257.666 219.233 257.367 218.5 257C216.5 256 215.5 255.5 216 252.5C216.5 249.5 221 238.5 223 237C225 235.5 229.5 227.5 230 225.5C230.227 224.59 230.041 223.681 229.864 222.818C229.653 221.784 229.455 220.818 230 220C230.51 219.234 232.323 217.296 234.176 215.317C235.953 213.417 237.766 211.479 238.5 210.5C239.223 209.536 239.83 207.409 240.433 205.297C241.081 203.029 241.723 200.777 242.5 200C244 198.5 244.5 194 244 193.5C243.842 193.342 241.079 193.183 236.932 192.946C227.977 192.433 212.569 191.55 203 189.5C194.429 187.663 185.858 182.266 179.467 178.242C175.419 175.692 172.245 173.694 170.5 173.5C170.021 173.447 169.554 173.388 169.089 173.329C165.187 172.838 161.489 172.372 153 175.5C147.128 177.663 144.504 181.164 142.647 183.64C141.5 185.17 140.646 186.309 139.5 186.5C136.5 187 125 188 118.5 188.5C114.181 188.832 99.4833 195.789 89.0815 200.712C83.8305 203.197 79.6741 205.165 78.5 205.5C75 206.5 63.5 213 61 215.5C58.5 218 47.5 222 45 222C42.5 222 29.5 219 27.5 218.5C25.9 218.1 23.8333 216.333 23 215.5C25.5 213.5 31.2 209.4 34 209C34.2377 208.966 34.4731 208.937 34.7058 208.911L34.5 208.5C35.1667 207.833 36.6 206.3 37 205.5C37.4 204.7 41.5 203.5 43.5 203C43.8333 203.5 44.7 204.7 45.5 205.5C46.5 206.5 48 206 48.5 205.5C48.6861 205.314 48.9416 204.92 49.2147 204.498C49.6753 203.788 50.1861 203 50.5 203C51 203 55.5 202.5 58.5 201C60.2963 200.102 62.989 196.694 65.29 193.782C66.8317 191.83 68.1976 190.102 69 189.5C71 188 74.5 182 75 181C75.1396 180.721 75.3182 180.169 75.5357 179.496C76.0974 177.76 76.9188 175.221 78 174.5C79.2 173.7 80.5 171.5 81 170.5C82.3333 170.167 85.5 169.7 87.5 170.5C89.3415 171.237 102.345 171.464 110.119 171.496L112 170C109.833 162 107.6 143.9 116 135.5C116.833 134 118 130.8 116 130C113.833 130 108.4 130.6 104 133C102.122 134.024 99.6031 136.156 96.6219 138.679C90.8719 143.545 83.4028 149.866 75.5 152.5V150.5C70.6667 153.167 58.2 157.8 47 155C35.8 152.2 31.3333 148.833 30.5 147.5C32.3333 147.833 36.4 148.5 38 148.5C38.4344 148.5 37.7603 148.193 36.4233 147.585C31.6045 145.394 18.1742 139.285 17 129.5C18.5 131.5 24 134 24.5 132.5C24.75 131.75 25 130.375 25.25 129C25.5 127.625 25.75 126.25 26 125.5C26.6677 126.35 27.306 127.191 27.9264 128.008C32.4162 133.924 35.9712 138.609 43 136.5C41.8333 135.667 40.5 134 40.5 130.5C48.5 134.333 66.5 140.6 74.5 135C84.5 128 102 119.5 103 119.5C103.192 119.5 103.513 119.463 103.97 119.411C105.894 119.19 110.228 118.692 117.5 119.5C117.699 119.5 118.155 119.376 118.885 119.178C123.644 117.886 140.053 113.431 173 119.5C189.833 125 232.6 131.6 269 114L274.5 110.5C272.333 110.167 264.5 108.5 262 107C269 106.667 284.3 105.1 289.5 101.5C286.5 101.667 277.5 102 273.5 100C279.167 99.6667 291.4 98.4 295 96C294 96 291.5 95.7 289.5 94.5C293.667 93.8333 302.7 92.1 305.5 90.5C305.056 90.4013 304.393 90.3173 303.641 90.2219C301.851 89.995 299.556 89.704 298.5 89C303.105 88.079 302.196 86.3098 300.852 83.6923C300.737 83.4678 300.618 83.237 300.5 83C307.5 83.5 311 81.9 313 79.5C310.833 79.5 305.9 79.2 303.5 78C305.167 77.8333 309.7 77.3 314.5 76.5C319.3 75.7 322.5 76.1667 323.5 76.5ZM92.7427 185.318C89.5366 185.61 84.9531 185.877 82.5 186C82 186.333 80.8 187.3 80 188.5C79.3994 189.401 79.5127 190.546 79.7476 191.343C83.0316 190.14 87.5337 188.44 90 187.5L92.7427 185.318Z"/>
</svg>
