<svg width="400" height="330" viewBox="0 0 400 330" fill="none" xmlns="http://www.w3.org/2000/svg">
<path fill-rule="evenodd" clip-rule="evenodd" d="M311.5 69V72L306 76.5C303.833 76.6667 298.4 78.1 294 82.5C289.6 86.9 286.833 88 286 88C286.8 88.8 289.333 89 290.5 89C289.7 91 286.167 93.5 284.5 94.5C284.9 95.3 287.667 95.8333 289 96C285.8 100.4 274.667 104.5 269.5 106C271.5 106.5 277.667 105.667 279.5 105C275.1 108.6 263.667 111.167 258.5 112C257.5 112.167 256.1 112.5 258.5 112.5H270.5C251.5 117.833 208.2 126.7 187 119.5C165.8 112.3 150.833 115.5 146 118L122 126C116.833 128.167 104 132.1 94 130.5C84 128.9 78.1667 128.833 76.5 129C74.872 130.047 74.2014 129.925 70.2764 129.212C68.5759 128.903 66.2646 128.484 63 128C52.2 126.4 37.5 133.5 35 135.5C39.4 135.9 42.5 139.667 43.5 141.5C41.1 141.1 33.5 142.667 30 143.5C32.8333 144.333 39 146.3 41 147.5C43 148.7 48.5 154 51 156.5C48 156.5 39.5 162 40 162C40.0849 162 40.2997 161.971 40.6198 161.928C42.1841 161.718 46.2643 161.17 50 162C54.5 163 66 163.5 67.5 163C68.7 162.6 72.3333 160.5 74 159.5C86.5432 157.072 92.8652 152.68 96.6755 150.033C97.5737 149.409 98.3323 148.882 99 148.5C102.063 146.75 107.805 144.617 111.872 143.106C112.453 142.891 113 142.688 113.5 142.5C116.7 141.3 123.5 135.333 126.5 132.5C124 136.667 119.4 146.7 121 153.5C122.6 160.3 129.667 166 133 168C133.372 168.053 133.914 168.184 134.544 168.416C134.529 168.443 134.514 168.471 134.5 168.5C133 171.5 132 172.5 128 175C125.633 176.479 121.341 176.908 117.195 177.322C114.334 177.608 111.542 177.887 109.5 178.5C105.276 179.767 105.691 182.105 105.922 183.403C105.964 183.642 106 183.845 106 184C106 185 112.5 191 114.5 192.5C115.604 193.328 118.994 197.661 122.23 201.797C124.856 205.153 127.38 208.38 128.5 209.5C130.39 211.39 129.994 213.281 129.688 214.739C129.589 215.209 129.5 215.634 129.5 216C129.5 217.2 131.167 218.167 132 218.5C133 219.333 134.5 221.1 132.5 221.5C130.5 221.9 129.333 223.667 129 224.5C127.4 230.5 135 236 139 238C139.167 237.5 139.4 236.1 139 234.5C138.829 233.816 138.892 231.142 138.969 227.88C139.117 221.607 139.316 213.158 138 212.5C136.997 211.999 135.618 209.486 134.428 206.917C136.139 207.278 138.352 207.725 140 208C143 208.5 156.5 213.5 161.5 216C165.5 218 167.833 221.167 168.5 222.5H172.5C172.5 222.833 172.7 223.7 173.5 224.5C174.5 225.5 173 227 172.5 227C172 227 171 230 171 231C171 231.8 177.333 234.667 180.5 236C181.333 236 183.1 235.8 183.5 235C183.9 234.2 183.333 229.333 183 227C182.5 226.833 181.2 226.1 180 224.5C178.8 222.9 177.5 217.5 177 215L176 213.5C174.333 213.167 170.7 212.5 169.5 212.5C168.3 212.5 157.333 206.167 152 203C151 202 150 199.5 150.5 198C151 196.5 154 193 156 191.5C158 190 170 179.5 171 178.5C172 177.5 177 177.5 179.5 177.5C181.195 177.5 190.25 180.719 198.709 183.727C202.723 185.155 206.604 186.535 209.5 187.5C214.932 189.311 225.283 190.211 232.745 190.86C237.646 191.286 241.302 191.604 241.5 192C242 193 239.5 198 238 199.5C237.791 199.709 237.407 200.063 236.89 200.542L236.889 200.543C234.943 202.34 231.105 205.887 227.525 210.036L227.5 210C227.167 209.833 226.1 209.5 224.5 209.5C222.5 209.5 216.5 210.5 215.5 211C214.7 211.4 213.5 212.5 213 213C214.167 213.667 216.8 215.1 218 215.5C218.576 215.692 219.961 216.988 221.478 218.541C217.413 226.19 209.316 233.425 207.395 235.142C207.185 235.329 207.049 235.451 207 235.5C206.5 236 205 237.5 205 238.5C205 239.038 202.396 241.023 199.833 242.975C197.632 244.653 195.462 246.307 195 247C194.25 248.125 194.625 248.406 195.281 248.898C195.5 249.062 195.75 249.25 196 249.5C197 250.5 196 255.5 195 257.5L192.5 262.5C192 263.333 191.3 265.2 192.5 266C194 267 207.5 266.5 207.5 266C207.5 265.64 206.465 263.729 205.698 262.312C205.399 261.759 205.14 261.281 205 261C204.743 260.487 204.092 260.369 203.383 260.24C202.711 260.118 201.987 259.987 201.5 259.5C200.5 258.5 201 254.5 201.5 253.5C202 252.5 203.5 250.5 205 248.5C206.5 246.5 207 245.5 207.5 244.5C208 243.5 220.5 230.5 221.5 229.5L226.759 224.241C226.877 224.371 226.96 224.46 227 224.5C227.333 224.833 230.111 225.389 232.518 225.87L232.519 225.871C233.723 226.111 234.833 226.333 235.5 226.5C236.336 226.709 238.134 227.443 240.053 228.226C242.723 229.315 245.627 230.5 246.5 230.5C247.022 230.5 248.572 230.682 250.415 230.897C253.869 231.302 258.348 231.826 259 231.5C259.8 231.1 263.333 229.667 265 229C265.667 227.5 266.8 224.1 266 222.5C265 220.5 265 212.5 265 209C265 206.204 265.665 197.528 265.998 193.519C272.637 190.557 284.78 184.627 286 183C287.2 181.4 290.167 171 291.5 166C293 162.667 296.8 155.3 300 152.5C303.367 149.553 307.798 139.874 309.712 135.693L309.713 135.691C310.072 134.907 310.342 134.316 310.5 134C310.823 133.353 311.252 131.921 311.818 130.026L311.819 130.025C313.004 126.062 314.794 120.073 317.5 115C321.5 107.5 329.5 108.5 332.5 109C334.038 109.256 338.99 110.563 343.588 111.777C347.961 112.931 352.013 114 352.5 114C353.5 114 356 116 357.5 117.5C359 119 363 117.5 364 116.5C364.586 115.914 365.515 115.328 366.284 114.843C366.828 114.5 367.293 114.207 367.5 114C368 113.5 369 109.5 369 108C369 106.5 368 104.5 366 103C364 101.5 349 88 347 86C345 84 335 75.5 331 73.5C327 71.5 317 69 315.5 69H311.5ZM132.081 201.236C132.129 200.492 132.255 199.867 132.5 199.5C133.02 198.719 135.573 196.72 137.971 194.84C140.181 193.109 142.26 191.48 142.5 191C142.9 190.2 143 188.667 143 188C142.982 187.841 142.963 187.675 142.943 187.503L124.5 188.5C124.5 189.667 124.6 192.1 125 192.5C125.5 193 131.5 199.5 132 201C132.022 201.065 132.049 201.144 132.081 201.236ZM239 221.5C237.32 220.828 235.405 219.251 233.588 217.412L242.5 208.5C244.942 206.668 248.671 203.935 252.303 201.394C252.327 201.847 252.364 202.316 252.4 202.766C252.451 203.419 252.5 204.032 252.5 204.5C252.5 205.7 254.167 210.667 255 213C255.833 214.667 257.4 218.7 257 221.5C256.6 224.3 252.167 224.333 250 224C248 223.833 243 223.1 239 221.5Z"/>
</svg>
