<svg width="400" height="330" viewBox="0 0 400 330" fill="none" xmlns="http://www.w3.org/2000/svg">
<path d="M312.5 66.0512C311.7 66.4512 312.167 69.3845 312.5 70.0512C312.1 71.6512 301.667 71.7178 296.5 71.5512C295.7 73.5512 300.167 76.3845 302.5 77.5512C292.1 86.3512 284.833 85.5512 282.5 84.0512C283.5 86 290.667 88.3845 293 89.0512C285.4 94.6512 275.833 95.7178 272 95.5512L275 97.5512C277.8 99.5512 282.167 99.7178 284 99.5512C282.4 100.751 271.667 104.384 266.5 106.051C268 106.5 278.333 103.384 281.5 102.051L261 113.051C223 125.051 173.5 109.551 161 110.051C148.5 110.551 141 117.551 131.5 123.051C122 128.551 109.5 129.551 95 130.051C80.5 130.551 61 135.5 63 135.051C64.8896 134.627 74.5 134.051 73 134.551C69.6667 135.718 62 139.151 58 143.551C53 149.051 47 158.051 39.5 161.051C33.5 163.451 30 161.384 29 160.051C29 162 35.5 168.384 37 169.051C50.2 174.651 72.8333 157.718 82.5 148.551C80.5 150.951 79 154.5 79 155.551C83.8 148.751 91.6667 146.051 95 145.551C98.2 148.751 110.333 150.218 116 150.551C114.5 149 113.2 147.951 114 141.551C114.8 135.151 121.333 135.551 124.5 136.551C122.5 143.351 123.667 151.051 124.5 154.051C127.667 159.551 136.8 171.951 148 177.551C162 184.551 165.5 192.551 168 198.051C170.5 203.551 170 217.551 170.5 218.551C171 219.551 178 225.551 180 226.551C182 227.551 198.5 245.551 200.5 247.051C202.5 248.551 203.5 252.051 204 252.051H209C210.333 252.551 213.2 253.651 214 254.051C214.8 254.451 215.667 258.218 216 260.051V262.551C216.167 262.884 216.9 263.751 218.5 264.551C220.5 265.551 230 264.551 230 263.551C230 262.551 229 257.051 228 256.051C227 255.051 213 245.551 211 244.551C209 243.551 194.5 228.051 190 224.051C185.5 220.051 185 215.551 184.5 214.551C184.1 213.751 184.667 211.218 185 210.051C192 209.551 200.5 212.051 201.5 212.051C202.5 212.051 211.5 213.051 219 216.051C226.5 219.051 232 219.051 233 219.051C233.8 219.051 234.333 219.718 234.5 220.051C234.167 221.718 234.1 225.251 236.5 226.051C238.9 226.851 245.833 225.718 249 225.051C249.5 224.884 250.3 224.351 249.5 223.551C248.5 222.551 243.5 216.551 241.5 216.051C239.5 215.551 235.5 214.051 232 212.051C228.5 210.051 217.5 207.551 213 207.051C209.4 206.651 200.5 203.551 196.5 202.051C195 201.551 192 200.051 192 198.051C192 195.551 190.5 186.051 190.5 184.551C190.5 183.351 191.167 181.384 191.5 180.551C205.9 188.151 243.833 191.051 261 191.551C262.5 192.718 266.8 195.351 272 196.551C278.5 198.051 287 201.551 289 203.051C291 204.551 290 205.551 290 206.551C290 207.551 280.5 211.551 275 212.551C270.6 213.351 266.833 212.884 265.5 212.551L265 211.551C265.667 211.218 267.1 210.351 267.5 209.551C268 208.551 266.5 207.051 265 205.551C263.8 204.351 256.833 203.718 253.5 203.551C253.167 203.718 252.5 204.151 252.5 204.551C252.5 205.051 254 207.551 255 208.551C256 209.551 260 216.051 262 217.551C264 219.051 268 221.551 271 221.551C274 221.551 280.5 217.051 282.5 216.051C284.1 215.251 290.833 213.051 294 212.051C295.333 211.551 298.2 209.651 299 206.051C300 201.551 296.5 199.551 294.5 198.051C292.5 196.551 286.5 191.051 285.5 190.051C284.7 189.251 285.167 188.384 285.5 188.051C285.5 187.718 286 187.051 288 187.051C290.5 187.051 295.5 186.051 301.5 184.551C307.5 183.051 312.5 182.051 316.5 182.051C320.5 182.051 323.5 183.551 324.5 184.551C325.5 185.551 325 192.551 325.5 197.551C325.9 201.551 325.667 204.884 325.5 206.051C323.9 209.251 324.167 210.384 324.5 210.551C327 212.551 327 214.551 327 215.051C327 215.551 324 217.051 323.5 217.051C323 217.051 322 220.551 322 222.051C322 223.251 327.333 227.884 330 230.051H330.5C330.667 229.218 331.1 227.151 331.5 225.551C331.9 223.951 331.667 217.218 331.5 214.051C331.5 213.384 331.7 211.751 332.5 210.551C333.5 209.051 331.5 203.051 331.5 202.551C331.5 202.051 332 182.051 331.5 180.051C331 178.051 329 175.551 326.5 173.551C324.5 171.951 316.333 171.884 312.5 172.051C307.833 172.218 297.9 172.251 295.5 171.051C293.1 169.851 293.167 168.551 293.5 168.051C297.5 164.051 298.5 161.551 300.5 159.551C302.5 157.551 302 148.551 302.5 147.051C303 145.551 302.5 137.551 303 137.051C303.5 136.551 312 123.551 312.5 120.551C313 117.551 317 110.051 320 108.551C323 107.051 330 107.551 336 108.051C340.8 108.451 349.667 112.551 353.5 114.551C355 117.551 363 118.551 363.5 117.051C364 115.551 367 115.051 367.5 114.551C368 114.051 367.5 112.051 369.5 111.051C371.5 110.051 370.5 104.551 369.5 104.051C368.7 103.651 366.167 101.884 365 101.051C363 100.051 350 87.5512 343 80.5512C337.4 74.9512 327.667 71.2178 323.5 70.0512L320.5 68.0512C318.167 67.7178 313.3 65.6512 312.5 66.0512Z" />
</svg>
