<svg width="400" height="330" viewBox="0 0 400 330" fill="none" xmlns="http://www.w3.org/2000/svg">
<path d="M316.96 73.0992C316.818 71.5239 316.766 69 317.5 69C318.5 69 322 69 323 70C324.5 71.1667 327.7 73.6 328.5 74C329.5 74.5 342.5 81 346.5 87C350.5 93 360 103 362.5 105C365 107 369.5 110.5 369.5 112C369.5 113.5 368 115 368 115.5C368 116 367.5 118.5 365 119.5C362.5 120.5 359.5 121 356.5 119.5C353.5 118 341.5 113 333.5 110.5C325.5 108 317 108.5 314.5 113.5C312 118.5 301.5 137.5 299 139.5C299.333 144 299.7 153.5 298.5 155.5C297 158 294.5 163.5 294 165C293.6 166.2 294.5 167.833 295 168.5C299.667 169 309.7 170 312.5 170C316 170 321.5 169.5 324 173.5C324.5 174.833 325.2 178.1 324 180.5C324.5 181.167 326.2 182.7 329 183.5C331.8 184.3 332.833 185.5 333 186C338 191.167 349.2 201.9 354 203.5C354.667 203.833 356.2 205.1 357 207.5C357.8 209.9 359.667 212.167 360.5 213C363 216.167 368.1 222.6 368.5 223C369 223.5 368.5 224.5 368 224.5C367.5 224.5 360 225 357 223C354.6 221.4 354.333 217.667 354.5 216C354.5 215 354.3 212.9 353.5 212.5C352.5 212 348 211 348 210C348 209 347 205.5 344.5 204C342 202.5 333 192.5 330.5 192.5C328 192.5 318.5 190.5 317.5 190.5C316.7 190.5 315.167 191.167 314.5 191.5C311.5 196.667 305.3 207.4 304.5 209C303.5 211 302 213.5 301.5 214C301 214.5 291 218 288 219C285 220 281.5 222 280.5 221.5C279.7 221.1 281.167 216 282 213.5C283.333 211.833 286.4 208.5 288 208.5C289.6 208.5 291 208.833 291.5 209C291.833 209.667 292.9 210.8 294.5 210C296.5 209 295.5 206 296.5 205.5C297.5 205 303 200 306 194.5C308.4 190.1 308 189.667 307.5 190C303.667 189.667 295.8 189 295 189C294 189 279 188 278 187.5C277.2 187.1 274.333 188 273 188.5C266.667 189.5 251.6 191.1 242 189.5C230 187.5 215 188.5 212.5 188.5C210 188.5 193 184.5 191.5 184C190.3 183.6 189.333 183.833 189 184C190 188.167 192.2 197 193 199C194 201.5 205.5 214 217.5 218.5C229.5 223 233.5 225 236.5 225C236.833 225.167 237.6 225.6 238 226C238.5 226.5 247 227.5 250 228.5C252.4 229.3 252.333 230.167 252 230.5C251.333 231.667 249.4 234.2 247 235C244 236 242 236.5 241 236.5C240 236.5 235 233.5 234 232C233.2 230.8 231.333 230.5 230.5 230.5C230.333 231 229.9 232 229.5 232C229 232 225 230.5 223.5 229.5C222 228.5 200.5 216.5 199 216.5C197.5 216.5 191.5 214 187 212.5C182.5 211 183.5 206 182.5 204C181.5 202 174 188 171.5 186.5C169.5 185.3 166.667 184.333 165.5 184C162.667 186.667 156.8 192.1 156 192.5C155 193 152.5 202 152.5 203.5C152.5 205 142 220.5 141 221.5C140 222.5 140 230 140.5 232C141 234 147.5 252 151 254C154.5 256 164.5 256 165.5 256C166.5 256 169.5 259.5 170 260.5C170.4 261.3 171.167 263.833 171.5 265C170.333 265.333 167.5 266 165.5 266C163 266 146 262.5 145 261.5C144 260.5 143.5 254 143 254C142.5 254 130.5 228 129.5 226.5C128.5 225 126 221 126 219.5C126 218 129 211.5 132 209C135 206.5 139 194 139 192.5C139 191 137 187 134 184C131 181 120.5 161.5 119.5 153.5C118.7 147.1 122.5 138.833 124.5 135.5L124 134.5C118.667 135.333 107.7 137.2 106.5 138C105 139 99 143 102.5 147.5C98.3334 146.667 92.5 147 87 144C83.224 141.94 78.5 146.451 77.5 147.5C70.6667 154.667 55.1 170.1 47.5 174.5C48.6667 173.333 51.2 170.1 52 166.5C50.5 168.833 44 174.8 30 180C35.6667 174.833 46.7 162.5 45.5 154.5L45 152C45 152.333 43.9 152.8 39.5 152C42.3333 150.5 49.3 146.4 54.5 142C61 136.5 68 129.5 72 129C76 128.5 100 128 105.5 128C111 128 121 128.5 124 127C127 125.5 151 110.5 164 113C177 115.5 205 122.5 227 119C249 115.5 266 109 268.5 107C270.5 105.4 272.667 103.333 273.5 102.5C271.333 103 266.4 104 264 104C268.167 102.333 277.1 98.7 279.5 97.5C278.5 97.5 276.1 97.4 274.5 97C279.833 95 291.2 90.6 294 89C292.833 89 289.4 88.4 285 86C289.667 85.6667 299.9 84.4 303.5 82C307.1 79.6 305 80.3333 303.5 81C301.833 81.3333 297.6 81.5 294 79.5C299.167 78 310.3 74.7 313.5 73.5C315.851 72.6182 316.727 72.7624 316.96 73.0992Z"/>
</svg>
