<svg width="400" height="330" viewBox="0 0 400 330" fill="none" xmlns="http://www.w3.org/2000/svg">
<path fill-rule="evenodd" clip-rule="evenodd" d="M319 70H321C321.87 70 326.903 73.4058 329.184 74.95C329.525 75.1808 329.805 75.37 330 75.5C330.465 75.8099 331.602 76.3117 333.039 76.9461C336.239 78.3591 340.93 80.4296 343 82.5C344.246 83.7456 347.129 88.094 350.29 92.8613C354.742 99.5763 359.746 107.123 361.5 108C363.598 109.049 365.452 112.055 366.719 114.109C367.263 114.992 367.699 115.699 368 116C369 117 370 121 369 122C368.78 122.22 368.488 122.488 368.16 122.788C366.998 123.855 365.39 125.33 365 126.5C364.5 128 356 128.5 355.5 128C355.446 127.946 355.308 127.796 355.101 127.571C353.402 125.726 347.01 118.782 343 117C342.458 116.759 341.908 116.511 341.352 116.259C337.295 114.426 332.897 112.44 328.5 112C323.5 111.5 318 111.5 316.5 112C315.3 112.4 313.333 115.5 312.5 117C306 127 295.5 146 294.5 148.5C295.833 151.833 296.1 159.8 294.5 163C294.349 163.302 294.192 163.65 294.026 164.037C294.676 164.959 295.412 165.999 296.206 167.117C308.17 168.545 325.309 170.655 326 171C327 171.5 331 176 330 180C329.85 180.599 329.678 181.253 329.497 181.942C328.469 185.856 327.15 190.874 328 193C328.393 193.983 328.632 196.978 328.716 200.31C330.225 201.456 331.273 202.273 331.5 202.5C332.5 203.5 340.5 211.5 344.5 212.5C345 212.667 346.1 213.3 346.5 214.5C347 216 361 221.5 362.5 222C364 222.5 376.5 224 378.5 224C379.672 224 379.306 224.447 378.895 224.949C378.745 225.132 378.589 225.322 378.5 225.5C376 227.667 371.2 231.7 370 232.5C369.197 233.035 368.394 232.281 367.362 231.312C366.465 230.47 365.394 229.465 364 229C361 228 355 227 353.5 227.5C352 228 348 225 347 224C346 223 335 213.5 328.5 210.5C328.47 210.486 328.441 210.473 328.411 210.459C328.301 211.282 328.164 211.836 328 212C327 213 323.5 217 323.5 219C323.5 221 322.5 225.5 321.5 226.5C320.5 227.5 314.5 219 315 216.5C315.4 214.5 316.833 212.667 317.5 212C318.833 211.833 321.5 211.2 321.5 210C321.5 209.672 321.5 208.51 321.505 206.871C318.185 204.936 315.53 203.03 314 201.5C311.5 199 292.5 187.5 289.5 187.5C288.058 187.5 284.536 186.807 280.878 186.087C278.864 185.69 276.809 185.286 275.037 184.984C262.983 188.168 233.445 189 219 189C206.333 188.167 178.5 185 168.5 179C167.5 178.167 164.7 177 161.5 179C161.167 184.167 160.7 195.6 161.5 200C162.143 203.539 161.131 209.77 160.46 213.896C160.088 216.182 159.822 217.822 160 218C160.25 218.25 160.75 218.875 161.25 219.5C161.75 220.125 162.25 220.75 162.5 221C163 221.5 163.5 225.5 163.5 227C163.5 228.5 174.5 247.5 176.5 249C176.861 249.271 177.174 249.591 177.511 249.936C179.04 251.503 181.078 253.59 190.5 254C191.5 253.667 194.2 254.5 197 260.5C199.8 266.5 199.167 266.667 198.5 266C193.5 265.833 182.9 265.3 180.5 264.5C177.5 263.5 174 261 174 259C174 257.4 172.333 254.667 171.5 253.5C165 244.333 151.7 225.8 150.5 225C149 224 148.5 216.5 148.5 216C148.5 215.5 148.5 198.5 146 196C145.33 195.33 144.553 194.373 143.706 193.331C141.393 190.484 138.562 187 136 187C132.5 187 96 212.5 94 214.5L85 223.5C84.5 224.667 83.4 227.4 83 229C82.7208 230.117 81.5059 232.325 80.3134 234.493C79.3705 236.207 78.4415 237.896 78 239C77 241.5 75 249 83 251.5C85 252.833 89.1 256.7 89.5 261.5C88 261.833 84.4 262.4 82 262C79.6 261.6 77.3333 261.5 76.5 261.5C76.8333 260 77 256.7 75 255.5C74.0385 254.923 72.3373 254.346 70.6361 253.769C67.9142 252.846 65.1923 251.923 65.5 251C66 249.5 68 243.5 71 238.5C74 233.5 76.5 223 76.5 221C76.5 219.909 77.3926 219.711 78.2851 219.512C79.0289 219.347 79.7728 219.182 80 218.5C80.5 217 82 208 82 206.5V203.5C88.8333 201.333 103.3 194.7 106.5 185.5C106.333 177.667 105.9 160.9 105.5 156.5C105 151 105.5 144 114 136.5C106.5 138.833 89.3 143.5 80.5 143.5C71.7 143.5 57.8334 149.833 52 153C45.8334 156.833 31.4 167.9 23 181.5C22 175.833 23.2 161.1 36 147.5C35.1667 146.833 29.5 147.5 20 147.5C23.5 145.333 33.3 141 44.5 141C46.5 140.167 51 137.6 53 134C52 133.5 47.5 133 46.5 132.5C50.8333 131.5 60.8 129.5 66 129.5C67.0963 129.5 68.9179 129.543 71.2299 129.597C82.6257 129.864 105.934 130.41 113 127.5C116.386 126.106 119.693 125.108 123.047 124.096C128.112 122.568 133.285 121.008 139 118C146.576 114.013 174.186 119.247 192.919 122.798C197.676 123.7 201.861 124.494 205 125C220.5 127.5 259 111.5 260.5 109.5C260.886 108.985 261.144 108.664 261.312 108.476C259.888 108.285 256.911 107.764 255 107C261.333 105.667 274.9 102 278.5 98C279 97.3333 280 95.8 280 95C280 94.5404 279.05 94.8201 277.731 95.2081C276.181 95.6643 274.121 96.2702 272.5 96C276.833 94 286.7 89.3 291.5 86.5C295.886 83.9413 300.807 83.2532 303.527 82.8727C304.528 82.7328 305.231 82.6345 305.5 82.5C303.833 81.5 294.5 80 293 79.5C297.333 78.5 307.1 76.6 311.5 77C310.333 76.5 307 75.5 305.5 75C307.773 74.3333 313.836 73.4 319.909 75L319 70ZM321.624 195.001C321.697 191.334 321.814 188.243 322 187.5C322.5 185.5 322.5 182 321.5 181C320.726 180.226 310.849 180.014 305.526 180.001C308.429 183.914 310.811 186.983 311.5 187.5C311.94 187.83 313.107 188.693 314.67 189.849L314.672 189.851L314.673 189.852C316.596 191.274 319.118 193.139 321.624 195.001Z"/>
</svg>
