<svg width="717" height="105" viewBox="0 0 717 105" fill="none" xmlns="http://www.w3.org/2000/svg">
<path d="M57.4086 80.2749H71.4186L43.1686 3.05493H28.3886L0.0385742 80.2849H13.9386L20.3386 62.0849H50.9986L57.3986 80.2849L57.4086 80.2749ZM24.0286 51.5949L35.6686 18.4949L47.3086 51.5949H24.0186H24.0286Z" fill="#484DFC"/>
<path d="M83.4686 104.545V24.675H95.2686L96.4786 32.725C97.7286 31.035 99.1786 29.485 100.839 28.095C102.499 26.695 104.479 25.555 106.799 24.675C109.119 23.795 111.889 23.355 115.129 23.355C120.429 23.355 125.059 24.625 129.029 27.165C132.999 29.705 136.129 33.165 138.409 37.535C140.689 41.915 141.829 46.935 141.829 52.595C141.829 58.255 140.669 63.165 138.359 67.545C136.039 71.925 132.879 75.365 128.869 77.865C124.859 80.365 120.279 81.615 115.129 81.615C110.859 81.615 107.169 80.825 104.039 79.245C100.909 77.665 98.4686 75.405 96.6986 72.465V104.565H83.4586L83.4686 104.545ZM112.369 70.125C115.459 70.125 118.199 69.375 120.589 67.865C122.979 66.355 124.859 64.295 126.219 61.685C127.579 59.075 128.259 56.045 128.259 52.585C128.259 49.125 127.579 46.055 126.219 43.375C124.859 40.695 122.979 38.595 120.589 37.085C118.199 35.575 115.459 34.825 112.369 34.825C109.279 34.825 106.319 35.585 103.929 37.085C101.539 38.595 99.6786 40.675 98.3586 43.315C97.0386 45.965 96.3686 49.055 96.3686 52.585C96.3686 56.115 97.0286 58.985 98.3586 61.635C99.6786 64.285 101.539 66.365 103.929 67.865C106.319 69.375 109.129 70.125 112.369 70.125Z" fill="#484DFC"/>
<path d="M155.839 104.545V24.675H167.639L168.849 32.725C170.099 31.035 171.549 29.485 173.209 28.095C174.869 26.695 176.849 25.555 179.169 24.675C181.489 23.795 184.259 23.355 187.499 23.355C192.799 23.355 197.429 24.625 201.399 27.165C205.369 29.705 208.499 33.165 210.779 37.535C213.059 41.915 214.199 46.935 214.199 52.595C214.199 58.255 213.039 63.165 210.729 67.545C208.409 71.925 205.249 75.365 201.239 77.865C197.229 80.365 192.649 81.615 187.499 81.615C183.229 81.615 179.539 80.825 176.409 79.245C173.279 77.665 170.839 75.405 169.069 72.465V104.565H155.829L155.839 104.545ZM184.749 70.125C187.839 70.125 190.579 69.375 192.969 67.865C195.359 66.355 197.239 64.295 198.599 61.685C199.959 59.075 200.639 56.045 200.639 52.585C200.639 49.125 199.959 46.055 198.599 43.375C197.239 40.695 195.359 38.595 192.969 37.085C190.579 35.575 187.839 34.825 184.749 34.825C181.659 34.825 178.699 35.585 176.309 37.085C173.919 38.595 172.059 40.675 170.739 43.315C169.419 45.965 168.749 49.055 168.749 52.585C168.749 56.115 169.409 58.985 170.739 61.635C172.059 64.285 173.919 66.365 176.309 67.865C178.699 69.375 181.509 70.125 184.749 70.125Z" fill="#484DFC"/>
<path d="M233.839 80.8249C231.409 80.8249 229.409 80.0549 227.829 78.5049C226.249 76.9649 225.459 75.1249 225.459 72.9849C225.459 70.7049 226.249 68.7949 227.829 67.2449C229.409 65.7049 231.409 64.9249 233.839 64.9249C236.269 64.9249 238.339 65.6949 239.849 67.2449C241.359 68.7849 242.109 70.7049 242.109 72.9849C242.109 75.1149 241.359 76.9549 239.849 78.5049C238.339 80.0449 236.339 80.8249 233.839 80.8249Z" fill="#484DFC"/>
<path d="M246.829 104.545V93.2949H251.239C253.739 93.2949 255.509 92.7949 256.539 91.8049C257.569 90.8149 258.079 89.1049 258.079 86.6749V24.6749H271.319V86.7849C271.319 91.0449 270.599 94.4849 269.169 97.1049C267.739 99.7149 265.659 101.605 262.939 102.785C260.219 103.965 256.979 104.555 253.229 104.555H246.829V104.545ZM264.809 15.8449C262.309 15.8449 260.289 15.0949 258.739 13.5849C257.199 12.0749 256.419 10.2249 256.419 8.01492C256.419 5.80492 257.189 3.87492 258.739 2.44492C260.279 1.01492 262.309 0.294922 264.809 0.294922C267.309 0.294922 269.219 1.01492 270.769 2.44492C272.309 3.87492 273.089 5.73492 273.089 8.01492C273.089 10.2949 272.319 12.0749 270.769 13.5849C269.229 15.0949 267.239 15.8449 264.809 15.8449Z" fill="#484DFC"/>
<path d="M310.509 81.605C305.509 81.605 301.199 80.795 297.599 79.175C293.999 77.555 291.149 75.355 289.049 72.555C286.949 69.765 285.719 66.525 285.349 62.845H298.589C298.879 64.385 299.549 65.785 300.579 67.035C301.609 68.285 302.929 69.295 304.549 70.065C306.169 70.835 308.119 71.225 310.399 71.225C312.679 71.225 314.389 70.915 315.749 70.285C317.109 69.665 318.139 68.835 318.839 67.805C319.539 66.775 319.889 65.675 319.889 64.495C319.889 62.655 319.429 61.275 318.509 60.355C317.589 59.435 316.229 58.685 314.429 58.095C312.629 57.505 310.399 56.995 307.759 56.555C305.259 56.045 302.759 55.415 300.259 54.675C297.759 53.945 295.529 52.965 293.589 51.755C291.639 50.545 290.079 49.015 288.899 47.175C287.719 45.335 287.139 43.095 287.139 40.445C287.139 37.205 287.999 34.285 289.729 31.675C291.459 29.065 293.999 27.025 297.339 25.555C300.689 24.085 304.599 23.345 309.089 23.345C315.639 23.345 320.799 24.815 324.589 27.755C328.379 30.695 330.639 34.855 331.369 40.225H318.789C318.349 38.165 317.299 36.565 315.649 35.425C313.989 34.285 311.769 33.715 308.969 33.715C306.169 33.715 303.909 34.245 302.409 35.315C300.899 36.385 300.149 37.795 300.149 39.565C300.149 40.745 300.609 41.775 301.529 42.655C302.449 43.535 303.769 44.325 305.499 45.025C307.229 45.725 309.419 46.335 312.059 46.845C316.179 47.585 319.819 48.515 322.979 49.655C326.139 50.795 328.639 52.435 330.479 54.565C332.319 56.695 333.239 59.715 333.239 63.615C333.239 67.215 332.319 70.365 330.479 73.045C328.639 75.735 326.029 77.825 322.649 79.335C319.269 80.845 315.219 81.595 310.509 81.595V81.605Z" fill="#484DFC"/>
<path d="M388.589 74.915C389.399 74.825 390.199 74.765 390.989 74.645C392.599 74.395 394.219 74.165 395.809 73.845C397.399 73.525 398.989 73.195 400.549 72.695C401.479 72.395 402.379 71.985 403.399 71.975C403.849 71.975 404.289 71.735 404.739 71.585C405.719 71.245 406.649 70.755 407.719 70.685C408.129 70.655 408.459 70.375 408.819 70.175C409.849 69.615 410.959 69.285 412.109 69.095C412.549 69.025 412.919 69.095 413.259 69.355C414.399 70.195 415.059 71.315 415.099 72.745C415.129 73.825 414.719 74.735 413.669 75.115C411.489 75.915 409.399 76.975 407.099 77.475C405.229 77.885 403.399 78.485 401.529 78.895C399.369 79.375 397.189 79.725 395.019 80.165C392.799 80.615 390.579 81.085 388.369 81.605C386.879 81.955 385.379 82.075 383.869 82.105C382.059 82.135 380.639 81.165 379.349 80.085C378.419 79.305 378.429 78.555 379.079 77.415C379.969 75.845 380.909 74.305 381.809 72.745C383.019 70.625 384.409 68.615 385.499 66.415C386.219 64.975 387.089 63.575 387.929 62.185C390.239 58.335 392.009 54.215 393.769 50.095C394.569 48.225 395.399 46.355 396.059 44.435C397.009 41.685 397.879 38.905 398.069 35.975C398.109 35.285 398.189 34.585 397.879 33.915C397.489 33.065 397.009 32.775 396.089 32.865C395.189 32.955 394.339 33.265 393.699 33.845C392.999 34.475 392.179 34.915 391.419 35.415C390.539 36.005 389.719 36.595 389.029 37.405C387.869 38.775 386.669 40.075 385.689 41.635C384.689 43.245 383.579 44.805 382.479 46.365C382.029 47.015 381.369 47.385 380.719 47.775C380.539 47.885 380.269 47.885 380.049 47.875C378.649 47.825 377.469 47.255 376.459 46.295C376.179 46.025 376.099 45.715 376.099 45.355C376.099 44.565 376.339 43.835 376.859 43.265C377.219 42.865 377.419 42.405 377.699 41.975C379.029 39.935 380.419 37.935 381.789 35.935C381.949 35.705 382.199 35.525 382.399 35.325C382.759 34.955 383.189 34.625 383.479 34.195C384.899 32.055 387.029 30.735 389.019 29.215C390.349 28.205 391.849 27.605 393.359 27.045C395.079 26.405 396.899 26.305 398.699 26.775C400.549 27.255 401.829 28.515 402.809 30.095C403.489 31.205 403.829 32.425 403.909 33.735C404.079 36.665 403.679 39.535 403.079 42.395C402.549 44.905 401.799 47.345 400.779 49.705C400.359 50.665 400.079 51.675 399.749 52.665C398.559 56.135 396.709 59.305 395.259 62.665C394.729 63.895 394.189 65.115 393.559 66.295C392.259 68.695 390.949 71.105 389.289 73.285C388.949 73.735 388.479 74.145 388.599 74.915H388.589Z" fill="#484DFC"/>
<path d="M411.799 39.8249C412.009 38.7449 411.659 37.6049 412.059 36.5349C411.929 34.5449 412.389 32.5949 412.359 30.6149C412.359 30.2649 412.329 29.9149 412.379 29.5649C412.649 27.4949 412.909 25.4249 413.229 23.3549C413.409 22.2049 413.559 21.0649 413.459 19.8849C413.349 18.6049 413.389 17.3349 413.689 16.0649C413.819 15.5049 414.069 15.1049 414.519 14.8049C415.309 14.2749 416.189 13.8949 417.139 13.9549C419.319 14.1149 421.239 13.3049 423.159 12.4749C424.229 12.0149 425.299 11.5749 426.439 11.3549C427.019 11.2449 427.549 11.0149 428.089 10.8149C429.699 10.1949 431.329 9.63494 432.959 9.06494C433.859 8.75494 434.679 8.93494 435.369 9.60494C435.539 9.76494 435.699 9.94494 435.889 10.0749C436.939 10.7749 437.099 11.8549 437.119 12.9749C437.139 13.9749 436.649 14.6549 435.729 14.9749C434.409 15.4249 433.089 15.9049 431.729 16.1949C430.879 16.3749 430.089 16.5949 429.279 16.9649C428.239 17.4449 427.089 17.7349 425.959 17.9349C425.419 18.0349 424.949 18.2049 424.509 18.4449C423.439 19.0349 422.369 19.6149 421.129 19.8049C420.389 19.9249 419.999 20.4249 419.989 21.1449C419.959 23.1349 419.369 25.0349 419.169 26.9949C418.969 28.9649 418.859 30.9349 418.719 32.9149C418.709 33.0849 418.719 33.2749 418.769 33.4349C418.829 33.5849 418.949 33.7549 419.149 33.7149C419.429 33.6649 419.719 33.5949 419.979 33.4849C421.919 32.6949 423.959 32.7049 425.999 32.7349C426.459 32.7349 426.939 32.7649 427.379 32.8949C429.469 33.5149 431.459 34.3749 432.939 36.0049C433.829 36.9849 434.629 38.1249 435.139 39.3349C435.959 41.2649 436.309 43.3749 436.249 45.4749C436.189 47.5149 435.719 49.5049 435.169 51.4649C435.069 51.8149 434.869 52.0849 434.639 52.3449C433.829 53.2649 433.049 54.1949 432.239 55.1049C432.049 55.3149 431.839 55.5449 431.589 55.6649C429.979 56.4649 428.619 57.6949 426.859 58.2449C425.819 58.5749 424.739 58.8849 423.809 59.4949C423.669 59.5849 423.489 59.6449 423.319 59.6649C421.419 59.9149 419.569 60.4149 417.629 60.4149C416.479 60.4149 415.459 60.0249 414.459 59.5649C413.659 59.1849 412.809 57.4349 412.909 56.5949C413.039 55.5349 413.849 54.7349 415.119 54.4049C415.399 54.3349 415.689 54.2449 415.979 54.2449C418.269 54.2149 420.469 53.6649 422.669 53.1549C423.009 53.0749 423.369 53.0349 423.669 52.8649C425.229 51.9849 426.879 51.2249 428.029 49.7449C428.289 49.4149 428.499 49.0949 428.589 48.6849C428.969 46.9149 429.179 45.1349 429.099 43.3249C429.019 41.5749 428.179 40.2349 426.909 39.1149C426.539 38.7949 426.099 38.6849 425.629 38.6249C423.859 38.4249 422.269 38.9549 420.849 39.9349C419.569 40.8349 418.359 41.8249 417.539 43.2349C416.769 44.5649 415.469 45.1049 413.959 44.8849C413.079 44.7549 412.349 44.3049 411.979 43.3849C411.709 42.7149 411.629 42.0349 411.649 41.3349C411.669 40.8149 411.739 40.2949 411.779 39.7749L411.799 39.8249Z" fill="#484DFC"/>
<path d="M372.019 15.465C372.029 15.965 371.969 16.465 371.839 16.985C371.339 19.065 370.739 21.125 370.449 23.265C370.209 25.105 369.629 26.905 369.409 28.745C369.089 31.345 368.299 33.845 367.979 36.435C367.879 37.275 367.289 37.755 366.789 38.305C366.589 38.525 366.269 38.585 365.979 38.545C364.999 38.385 364.019 38.195 363.149 37.695C361.799 36.915 361.269 35.695 361.599 34.175C361.689 33.785 361.869 33.405 361.939 33.015C362.369 30.615 362.739 28.195 363.229 25.805C363.449 24.725 363.659 23.645 363.819 22.555C363.939 21.745 364.079 20.955 364.149 20.135C364.209 19.395 364.449 18.655 364.639 17.925C364.999 16.525 365.519 15.165 365.649 13.695C365.709 12.965 366.039 12.235 366.339 11.545C366.829 10.415 367.869 9.98498 368.919 10.595C370.069 11.265 371.169 12.085 371.689 13.405C371.949 14.055 372.199 14.715 371.999 15.455L372.019 15.465Z" fill="#484DFC"/>
<path d="M503.149 81.605C495.499 81.605 488.899 79.935 483.349 76.585C477.799 73.235 473.549 68.565 470.609 62.575C467.669 56.585 466.199 49.645 466.199 41.775C466.199 33.905 467.669 26.865 470.609 20.865C473.549 14.875 477.799 10.185 483.349 6.79498C488.899 3.41498 495.499 1.72498 503.149 1.72498C512.339 1.72498 519.839 3.98498 525.659 8.50498C531.469 13.025 535.149 19.405 536.689 27.645H522.129C521.169 23.305 519.079 19.885 515.839 17.385C512.599 14.885 508.339 13.635 503.039 13.635C498.189 13.635 494.009 14.755 490.519 16.995C487.029 19.235 484.339 22.475 482.469 26.705C480.589 30.935 479.659 35.955 479.659 41.765C479.659 47.575 480.599 52.555 482.469 56.715C484.349 60.875 487.029 64.075 490.519 66.315C494.009 68.555 498.189 69.675 503.039 69.675C508.339 69.675 512.579 68.515 515.779 66.195C518.979 63.875 521.089 60.665 522.119 56.545H536.679C535.139 64.345 531.459 70.465 525.649 74.915C519.839 79.365 512.339 81.585 503.139 81.585L503.149 81.605Z" fill="#484DFC"/>
<path d="M576.179 81.605C570.879 81.605 566.119 80.395 561.889 77.965C557.659 75.535 554.349 72.115 551.959 67.705C549.569 63.295 548.369 58.255 548.369 52.595C548.369 46.935 549.579 41.675 552.009 37.265C554.439 32.855 557.759 29.435 561.989 27.005C566.219 24.575 570.979 23.365 576.279 23.365C581.579 23.365 586.319 24.575 590.509 27.005C594.699 29.435 598.029 32.835 600.489 37.205C602.949 41.585 604.189 46.675 604.189 52.485C604.189 58.295 602.939 63.295 600.439 67.705C597.939 72.115 594.589 75.535 590.399 77.965C586.209 80.395 581.459 81.605 576.169 81.605H576.179ZM576.179 70.235C578.829 70.235 581.239 69.555 583.409 68.195C585.579 66.835 587.329 64.835 588.649 62.185C589.969 59.535 590.639 56.305 590.639 52.475C590.639 48.645 589.989 45.305 588.709 42.655C587.419 40.005 585.689 38.025 583.519 36.695C581.349 35.375 578.979 34.705 576.399 34.705C573.819 34.705 571.329 35.365 569.119 36.695C566.909 38.015 565.149 40.005 563.819 42.655C562.499 45.305 561.829 48.575 561.829 52.475C561.829 56.375 562.489 59.535 563.819 62.185C565.149 64.835 566.889 66.835 569.059 68.195C571.229 69.555 573.599 70.235 576.179 70.235Z" fill="#484DFC"/>
<path d="M618.899 80.275V24.675H630.589L631.469 33.945C633.159 30.705 635.589 28.135 638.749 26.225C641.909 24.315 645.659 23.355 649.999 23.355C654.339 23.355 658.309 24.295 661.469 26.165C664.629 28.045 667.059 30.785 668.749 34.385C670.439 37.985 671.289 42.475 671.289 47.845V80.285H658.159V49.175C658.159 44.395 657.129 40.755 655.069 38.255C653.009 35.755 649.959 34.505 645.909 34.505C643.259 34.505 640.909 35.145 638.849 36.435C636.789 37.725 635.149 39.545 633.939 41.895C632.729 44.245 632.119 47.155 632.119 50.615V80.295H618.879L618.899 80.275Z" fill="#484DFC"/>
<path d="M716.479 24.675H703.789V18.605C703.789 16.175 704.319 14.485 705.389 13.535C706.459 12.585 708.239 12.105 710.739 12.105H715.479V0.844971H708.639C704.889 0.844971 701.669 1.43497 698.989 2.61497C696.299 3.79497 694.229 5.68497 692.759 8.29497C691.289 10.905 690.549 14.345 690.549 18.615V24.685H682.719V35.715H690.549V80.285H703.789V35.715H716.479V24.685V24.675Z" fill="#484DFC"/>
</svg>
