<svg width="819" height="149" viewBox="0 0 819 149" fill="none" xmlns="http://www.w3.org/2000/svg">
<path d="M94.0379 54.5013C83.0379 72.5013 46 76.5 32.5379 83.5013C22.2046 88.3347 1.23793 102.701 0.0379333 121.501C-1.46207 145.001 41.5379 132.001 126.538 121.501C211.538 111.001 242.538 119.501 360.038 121.501C477.538 123.501 488.538 114.001 593.538 141.001C698.538 168.001 736.538 117.501 805.038 83.5013C873.538 49.5013 651.538 69.0013 611.538 54.5013C571.538 40.0013 542.538 36.5013 524.538 18.0013C506.538 -0.498659 443.038 0.00131473 376.038 0.00131473C309.038 0.00131473 300.038 18.0013 260.538 18.0013C221.038 18.0013 181.038 14.5013 157.538 18.0013C134.038 21.5013 105.038 36.5013 94.0379 54.5013Z" fill="url(#paint0_linear_61_385)" fill-opacity="0.6"/>
<defs>
<linearGradient id="paint0_linear_61_385" x1="23.5" y1="120" x2="944" y2="9.12534e-05" gradientUnits="userSpaceOnUse">
<stop stop-color="white"/>
<stop offset="1" stop-color="white" stop-opacity="0"/>
</linearGradient>
</defs>
</svg>
