<svg width="576" height="640" viewBox="0 0 576 640" fill="none" xmlns="http://www.w3.org/2000/svg">
<path d="M229.822 553.358C229.559 566.213 228.857 579.069 229.486 591.909C230.232 607.236 232.85 625.635 245.339 634.541C255.358 641.693 268.681 640.596 280.337 636.633C285.836 634.761 292.637 631.324 296.922 627.404C310.377 615.046 304.819 591.924 301.968 578.44C292.608 534.243 284.169 490.441 282.648 442.018C280.571 376.118 288.527 307.044 304.278 244.156C305.96 237.443 306.882 230.555 305.975 223.696C305.068 216.837 300.724 209.934 294.012 208.237C277.324 204.025 264.176 217.348 260.871 231.462C256.264 251.118 250.019 282.708 246.773 302.671C238.188 355.467 235.146 407.678 232.279 462.332C230.685 492.65 230.451 523.011 229.822 553.358Z" fill="#001A72"/>
<path d="M239.358 464.467C248.499 467.041 255.226 468.357 266.122 467.114C268.886 466.793 273.317 465.666 275.862 465.491C276.096 465.476 276.257 465.696 276.184 465.915C275.014 469.264 272.177 471.853 268.974 473.403C265.639 475.026 263.226 475.685 259.541 476.167C254.071 476.884 249.201 476.255 246.305 475.743C241.435 474.88 236.623 473.783 231.782 472.789C230.905 493.264 230.554 513.768 230.188 534.258C233.289 534.214 236.389 534.492 239.417 535.106C239.855 535.194 240.309 535.296 240.674 535.559C241.04 535.808 241.318 536.261 241.245 536.7C241.201 536.993 241.011 537.227 240.821 537.446C239.929 538.397 238.656 538.865 237.398 539.201C235.015 539.844 232.528 540.108 230.071 539.991C229.984 544.451 229.91 548.912 229.823 553.373C229.779 555.83 229.706 558.287 229.633 560.744C231.154 560.583 232.704 560.934 234.21 561.226C246.773 563.698 259.804 562.776 272.352 560.246C272.615 560.188 272.923 560.159 273.098 560.363C273.2 560.48 273.215 560.641 273.215 560.802C273.215 561.899 272.381 562.82 271.533 563.522C269.369 565.292 266.722 566.769 264.118 567.793C261.135 568.963 258.122 570.133 254.978 570.776C246.685 572.444 235.98 570.893 229.399 569.168C229.208 576.758 229.106 584.348 229.486 591.939C229.486 592.1 229.501 592.246 229.516 592.407C232.046 592.641 235.921 593.606 237.925 593.811C247.914 594.849 254.217 594.396 257.961 593.767C270.67 591.617 274.21 590.359 283.804 585.591C286.407 584.29 288.235 583.325 290.092 582.915C290.575 582.813 291.277 582.915 291.262 583.398C291.262 583.529 291.189 583.646 291.116 583.763C287.27 590.111 280.732 594.761 274.107 598.125C270.743 599.836 267.277 601.401 263.621 602.337C261.72 602.82 259.789 603.142 257.83 603.375C248.879 604.458 239.461 603.814 230.422 603.039C231.066 608.085 232.09 613.145 233.728 617.84C236.155 618.074 246.437 618.542 249.055 618.659C254.831 618.922 262.831 618.82 270.129 618.161C279.007 617.372 289.61 614.33 294.699 611.697C297.77 610.103 302.392 607.017 305.551 604.838C305.726 595.361 303.474 585.562 301.968 578.454C292.608 534.258 284.169 490.456 282.648 442.032C281.858 417.243 282.502 391.986 284.447 366.801C282.941 366.728 281.434 366.655 279.943 366.553C277.237 366.377 274.502 366.173 271.884 365.485C269.252 364.798 266.707 363.613 264.762 361.727C264.44 361.419 264.118 360.981 264.265 360.571C264.396 360.22 264.791 360.059 265.142 359.957C268.213 359.065 271.475 359.153 274.648 359.387C277.749 359.621 280.893 359.913 283.95 360.454C284.315 360.513 284.652 360.586 284.93 360.703C288.323 320.981 294.933 281.494 304.279 244.171C305.96 237.458 306.882 230.569 305.975 223.71C305.068 216.851 300.725 209.948 294.012 208.252C277.325 204.04 264.177 217.363 260.872 231.476C256.265 251.132 250.02 282.722 246.773 302.685C246.027 307.322 245.311 311.943 244.638 316.564C245.691 316.287 247.109 316.769 248.221 316.93C253.296 317.691 258.356 318.524 263.402 319.446C264.06 319.563 269.456 320.806 271.255 321.054C271.533 321.098 271.679 321.405 271.533 321.639C270.89 322.648 269.968 323.482 268.974 324.14C264.806 326.875 259.453 326.875 254.48 326.495C250.78 326.217 247.095 325.764 243.439 325.179C240.616 346.019 238.554 366.845 236.901 387.832C246.027 387.715 255.168 388.388 264.191 389.821C264.396 389.85 264.63 389.894 264.776 390.055C264.908 390.187 264.952 390.392 264.952 390.582C264.981 391.532 264.294 392.322 263.636 393.009C263.065 393.609 262.51 394.209 261.866 394.706C260.374 395.861 258.517 396.49 256.645 396.753C254.773 397.017 249.596 397.251 247.709 397.192C242.78 397.046 241.376 396.812 236.228 396.49C234.634 418.179 233.435 440.058 232.265 462.347C232.265 462.551 232.25 462.771 232.236 462.975C234.649 463.078 237.018 463.838 239.344 464.496L239.358 464.467ZM249.713 488.569C250.093 488.291 251.877 488.028 252.74 487.97C254.89 487.823 256.294 487.896 257.069 487.911C258.766 487.94 260.096 487.97 261.559 488.847C265.435 491.172 261.164 494.039 258.707 494.785C257.537 495.136 256.235 494.902 255.08 494.478C253.471 493.893 252.886 493.571 251.512 492.533C250.546 491.801 249.815 490.704 249.523 489.534C249.435 489.198 249.435 488.774 249.713 488.569ZM270.1 537.87C268.506 539.406 266.356 540.283 264.148 540.488C262.597 540.634 259.936 540.093 258.458 539.537C256.718 538.894 257.844 538.411 259.029 538.002C262.159 536.905 266.356 536.393 269.676 536.554C269.968 536.554 270.305 536.612 270.451 536.861C270.656 537.197 270.378 537.607 270.1 537.87ZM279.869 507.128C280.177 507.377 279.738 508.459 279.489 508.766C278.422 510.068 277.822 510.843 276.374 511.677C274.926 512.525 273.698 512.905 272.06 513.285C266.488 514.572 259.541 515.874 253.808 515.772C251.219 515.728 247.314 515.377 244.828 514.646C243.131 514.148 238.51 512.042 238.32 510.053C238.247 509.322 245.179 510.053 246.656 510.009C249.757 509.922 252.872 509.834 255.972 509.746C258.239 509.688 262.978 509.337 265.244 509.161C270.48 508.737 271.87 508.371 277.047 507.435C277.412 507.362 279.577 506.88 279.869 507.114V507.128ZM271.416 268.887C271.899 268.463 273.683 267.995 274.985 267.995C277.661 267.995 279.709 268.112 282.239 269.048C284.71 269.955 286.202 271.812 284.506 274.196C284.008 274.898 282.517 275.366 281.668 275.468C278.071 275.907 274.531 275.556 272.133 272.646C271.65 272.061 271.372 271.68 271.065 270.978C270.758 270.276 270.831 269.384 271.402 268.887H271.416ZM268.009 296.791C266.648 296.075 262.656 293.647 263.533 291.731C264.499 289.611 266.341 288.835 269.998 289.508C272.455 289.962 274.838 290.81 277.31 291.146C279.504 291.453 281.741 291.249 283.95 291.483C286.158 291.717 288.469 292.331 289.785 294.115C289.99 294.393 290.165 294.861 290.18 295.197C290.209 295.49 290.18 295.943 290.063 296.221C289.668 297.157 288.952 297.801 288.118 298.371C287.065 299.088 285.793 299.409 284.535 299.585C281.142 300.067 277.69 299.629 274.356 298.897C272.177 298.415 269.998 297.815 268.023 296.777L268.009 296.791ZM262.349 344.016C262.305 344.177 262.144 344.294 261.998 344.381C260.594 345.288 258.795 345.654 257.171 345.215C256.016 344.908 253.808 342.875 253.881 342.012C253.969 340.813 256.791 340.813 257.976 341.12C259.453 341.5 260.784 342.319 261.954 343.299C262.173 343.489 262.407 343.738 262.334 344.016H262.349ZM252.345 410.091C252.638 409.609 253.164 409.331 253.705 409.155C254.554 408.878 255.519 408.79 256.352 409.112C257.201 409.433 257.888 410.223 257.932 411.13C257.961 411.876 257.566 412.563 257.128 413.163C255.738 415.02 254.831 414.757 253.354 413.25C252.93 412.826 252.535 412.373 252.301 411.817C252.082 411.261 252.053 410.603 252.36 410.091H252.345ZM249.479 433.652C250.108 432.497 251.555 432.102 252.857 431.956C257.449 431.415 262.115 432.468 266.414 434.193C268.038 434.852 269.617 436.314 268.082 437.937C266.59 439.517 263.723 439.897 261.705 440.19C259.555 440.511 257.362 440.716 255.241 440.321C253.106 439.912 251.029 438.815 249.874 436.987C249.245 435.992 248.923 434.676 249.493 433.638L249.479 433.652Z" fill="#C1C6E5"/>
<path d="M574.315 198.804C572.823 192.237 569.167 186.972 565.262 181.488C552.699 163.85 531.449 147.836 513.723 135.551C504.524 129.174 490.411 119.96 460.167 106.388C450.865 102.22 425.154 95.449 414.8 93.7525C394.281 90.4034 365.704 90.4911 325.953 116.801C326.362 106.842 326.421 92.6848 325.017 85.0798C322.706 72.5608 319.708 61.3727 313.419 50.287C306.472 38.0312 294.626 25.6146 287.518 22.8358C286.334 22.3678 283.657 21.6951 281.624 22.1046C280.235 22.3824 278.114 24.1521 277.383 25.3659C275.175 29.1246 275.833 32.3128 275.906 38.1921C263.211 24.9126 253.31 15.4502 237.047 8.19618C234.225 6.93843 229.852 5.46131 226.868 6.26568C223.885 7.07006 222.788 8.85431 223.197 13.7244C209.274 4.58381 196.843 -3.73782 180.156 1.76118C178.401 2.34618 176.003 4.10118 175.169 5.73918C174.145 7.75743 173.663 10.2144 174.365 12.3789C177.407 21.8559 186.269 28.7443 193.83 35.2086C205.691 45.3291 216.075 55.669 227.57 66.2136C233.537 71.6833 239.885 77.197 245.764 82.7837C248.075 84.9921 262.451 98.9151 258.648 98.1692C253.398 97.1455 237.267 86.908 232.777 84.7435C206.934 72.3415 202.196 76.963 202.196 76.963C188.2 73.1897 181.224 71.9173 166.789 70.7035C150.146 69.3141 135.989 69.9868 119.375 71.7126C104.91 73.219 90.3293 75.5151 76.8743 81.0433C59.2804 88.2681 46.2056 97.0577 29.928 108.538C15.5077 118.717 1.4531 134.995 0.107598 152.618C-0.258028 157.4 0.107598 162.168 4.42198 164.274C7.09835 165.576 9.8186 166.468 12.7436 165.971C30.4252 162.973 48.648 155.368 65.2035 148.494C63.624 156.713 67.251 165.327 77.9565 168.984C85.8833 171.689 94.629 170.651 102.541 167.887C110.439 165.123 116.113 162.768 125.137 157.693C124.537 162.417 130.416 167.74 135.17 168.048C148.508 168.91 160.295 165.108 175.842 157.737C176.207 162.417 179.907 165.664 184.383 167.112C185.86 167.594 187.337 167.931 188.843 168.165C172.2 173.751 156.098 181.941 141.897 191.74C134.892 196.581 127.652 202.694 122.431 209.422C119.214 213.561 119.053 217.392 119.053 217.392C116.815 220.566 111.228 225.495 108.479 228.229C86.5414 250.123 69.708 273.421 55.5803 299.453C51.4121 307.146 46.8345 322.005 51.6608 331.38C56.4431 340.666 67.5728 344.323 80.8084 340.813C91.2653 338.034 98.6217 330.034 105.846 324.915C107.675 323.892 102.848 331.014 100.333 333.866C97.2323 337.376 96.5888 342.173 99.9233 344.001C101.693 344.966 105.115 344.981 108.099 343.752C127.623 335.665 142.789 323.292 155.162 307.073C155.323 312.63 153.348 318.758 156.727 321.186C163.557 326.115 173.048 318.919 177.363 314.883C190.642 302.51 196.478 297.099 206.891 284.155C206.364 287.87 205.574 292.287 205.852 295.636C206.13 298.985 208.104 300.521 211.439 301.033C213.472 301.34 216.514 299.512 218.283 298.459C221.881 296.323 225.406 293.062 228.345 290.079C246.978 271.212 261.617 246.013 273.654 224.734C276.345 225.582 277.939 226.08 280.645 226.928C280.25 233.889 282.59 239.827 291.599 242.562C298.268 244.58 305.712 241.918 309.5 236.068C314.458 254.379 321.434 269.998 329.843 285.998C333.572 293.106 338.662 300.404 345.506 302.832C352.351 305.259 357.133 299.585 359.517 292.024C367.546 310.188 375.488 326.846 387.787 343.957C390.683 347.979 394.456 351.942 398.932 354.078C403.407 356.213 407.516 356.067 410.705 352.249C412.299 350.334 413.761 345.683 414.8 341.061C422.522 358.363 432.101 374.699 443.845 389.602C450.938 398.581 462.565 407.898 473.621 404.943C480.349 403.144 485.219 396.958 487.237 390.289C489.256 383.62 490.177 376.498 489.504 369.565C482.089 292.726 440.276 218.284 371.597 178.651C378.954 179.411 385.506 179.338 389.045 176.135C392.584 172.932 392.233 168.574 390.99 163.967C406.142 173.883 417.71 181.517 433.169 187.791C437.776 189.663 445.205 191.038 448.349 187.177C451.523 183.287 448.013 176.252 445.322 172.011C458.294 181.166 468.02 187.835 483.523 197.268C487.559 199.725 495.559 201.831 498.879 198.468C501.716 195.586 500.561 189.985 499.186 185.013C516.444 198.731 530.308 209.261 550.417 215.798C556.94 217.919 564.121 217.86 568.582 215.944C574.768 213.283 576.055 206.541 574.3 198.848L574.315 198.804Z" fill="#001A72"/>
</svg>
