<svg width="1269" height="1401" viewBox="0 0 1269 1401" fill="none" xmlns="http://www.w3.org/2000/svg">
<path fill-rule="evenodd" clip-rule="evenodd" d="M714.929 676.342L608.352 416.909L610.825 415.894L717.401 675.327L714.929 676.342Z" fill="white"/>
<path fill-rule="evenodd" clip-rule="evenodd" d="M715.767 678.278L737.356 398.639L740.021 398.845L718.432 678.484L715.767 678.278Z" fill="white"/>
<path fill-rule="evenodd" clip-rule="evenodd" d="M604.738 417.757L739.828 395.159L740.269 397.795L605.179 420.394L604.738 417.757Z" fill="white"/>
<path d="M703.256 680.202C699.565 673.81 701.755 665.637 708.147 661.947C714.539 658.257 722.712 660.447 726.402 666.839C730.092 673.23 727.902 681.403 721.511 685.094C715.119 688.784 706.946 686.594 703.256 680.202Z" fill="white"/>
<path d="M703.256 680.202C699.565 673.81 701.755 665.637 708.147 661.947C714.539 658.257 722.712 660.447 726.402 666.839C730.092 673.23 727.902 681.403 721.511 685.094C715.119 688.784 706.946 686.594 703.256 680.202Z" fill="white"/>
<path d="M599.351 425.399C595.661 419.007 597.851 410.834 604.243 407.144C610.635 403.453 618.808 405.643 622.498 412.035C626.188 418.427 623.998 426.6 617.606 430.29C611.215 433.98 603.042 431.791 599.351 425.399Z" fill="white"/>
<path d="M599.351 425.399C595.661 419.007 597.851 410.834 604.243 407.144C610.635 403.453 618.808 405.643 622.498 412.035C626.188 418.427 623.998 426.6 617.606 430.29C611.215 433.98 603.042 431.791 599.351 425.399Z" fill="white"/>
<path d="M726.228 404.611C722.538 398.219 724.728 390.046 731.12 386.356C737.511 382.666 745.685 384.856 749.375 391.247C753.065 397.639 750.875 405.812 744.483 409.502C738.092 413.193 729.919 411.003 726.228 404.611Z" fill="white"/>
<path d="M726.228 404.611C722.538 398.219 724.728 390.046 731.12 386.356C737.511 382.666 745.685 384.856 749.375 391.247C753.065 397.639 750.875 405.812 744.483 409.502C738.092 413.193 729.919 411.003 726.228 404.611Z" fill="white"/>
<path fill-rule="evenodd" clip-rule="evenodd" d="M612.627 418.458L333.48 445.677L333.22 443.017L612.367 415.798L612.627 418.458Z" fill="white"/>
<path fill-rule="evenodd" clip-rule="evenodd" d="M614.722 418.211L353.194 316.884L354.16 314.392L615.688 415.719L614.722 418.211Z" fill="white"/>
<path fill-rule="evenodd" clip-rule="evenodd" d="M353.581 316.064L39.017 364.57L38.6097 361.928L353.173 313.423L353.581 316.064Z" fill="white"/>
<path fill-rule="evenodd" clip-rule="evenodd" d="M334.514 447.086L203.487 578.286L201.595 576.397L332.623 445.197L334.514 447.086Z" fill="white"/>
<path fill-rule="evenodd" clip-rule="evenodd" d="M198.393 579.915L37.7416 364.047L39.8858 362.451L200.537 578.319L198.393 579.915Z" fill="white"/>
<path fill-rule="evenodd" clip-rule="evenodd" d="M337.488 449.504L38.4485 364.535L39.1791 361.964L338.219 446.933L337.488 449.504Z" fill="white" fill-opacity="0.5"/>
<path fill-rule="evenodd" clip-rule="evenodd" d="M735.2 400.571L353.245 316.316L353.821 313.706L735.776 397.961L735.2 400.571Z" fill="white" fill-opacity="0.5"/>
<path fill-rule="evenodd" clip-rule="evenodd" d="M352.06 313.755L193.116 578.349L195.407 579.725L354.351 315.131L352.06 313.755Z" fill="white" fill-opacity="0.5"/>
<path fill-rule="evenodd" clip-rule="evenodd" d="M333.249 449.381L350.574 313.514L353.226 313.852L335.9 449.719L333.249 449.381Z" fill="white"/>
<path d="M612.956 430.747C605.771 432.437 598.577 427.983 596.887 420.798C595.197 413.614 599.652 406.419 606.836 404.73C614.021 403.04 621.215 407.494 622.905 414.678C624.594 421.863 620.14 429.057 612.956 430.747Z" fill="white"/>
<path d="M612.956 430.747C605.771 432.437 598.577 427.983 596.887 420.798C595.197 413.614 599.652 406.419 606.836 404.73C614.021 403.04 621.215 407.494 622.905 414.678C624.594 421.863 620.14 429.057 612.956 430.747Z" fill="white"/>
<path d="M339.011 456.744C331.827 458.433 324.633 453.979 322.943 446.795C321.253 439.61 325.707 432.416 332.892 430.726C340.076 429.036 347.27 433.491 348.96 440.675C350.65 447.86 346.196 455.054 339.011 456.744Z" fill="white"/>
<path d="M339.011 456.744C331.827 458.433 324.633 453.979 322.943 446.795C321.253 439.61 325.707 432.416 332.892 430.726C340.076 429.036 347.27 433.491 348.96 440.675C350.65 447.86 346.196 455.054 339.011 456.744Z" fill="white"/>
<path d="M355.704 329.263C348.519 330.953 341.325 326.499 339.635 319.314C337.945 312.13 342.4 304.935 349.584 303.246C356.769 301.556 363.963 306.01 365.653 313.194C367.342 320.379 362.888 327.573 355.704 329.263Z" fill="white"/>
<path d="M355.704 329.263C348.519 330.953 341.325 326.499 339.635 319.314C337.945 312.13 342.4 304.935 349.584 303.246C356.769 301.556 363.963 306.01 365.653 313.194C367.342 320.379 362.888 327.573 355.704 329.263Z" fill="white"/>
<path d="M201.111 589.148C193.926 590.838 186.732 586.383 185.043 579.199C183.353 572.014 187.807 564.82 194.991 563.13C202.176 561.44 209.37 565.895 211.06 573.079C212.75 580.264 208.295 587.458 201.111 589.148Z" fill="white"/>
<path d="M201.111 589.148C193.926 590.838 186.732 586.383 185.043 579.199C183.353 572.014 187.807 564.82 194.991 563.13C202.176 561.44 209.37 565.895 211.06 573.079C212.75 580.264 208.295 587.458 201.111 589.148Z" fill="white"/>
<path d="M41.0348 376.032C33.8503 377.722 26.6562 373.268 24.9663 366.083C23.2765 358.899 27.7307 351.705 34.9152 350.015C42.0997 348.325 49.2937 352.779 50.9836 359.964C52.6735 367.148 48.2193 374.342 41.0348 376.032Z" fill="white"/>
<path d="M41.0348 376.032C33.8503 377.722 26.6562 373.268 24.9663 366.083C23.2765 358.899 27.7307 351.705 34.9152 350.015C42.0997 348.325 49.2937 352.779 50.9836 359.964C52.6735 367.148 48.2193 374.342 41.0348 376.032Z" fill="white"/>
<path fill-rule="evenodd" clip-rule="evenodd" d="M735.58 396.874L1013.54 434.292L1013.19 436.941L735.224 399.522L735.58 396.874Z" fill="white"/>
<path fill-rule="evenodd" clip-rule="evenodd" d="M733.484 396.631L964.864 555.147L963.354 557.352L731.974 398.836L733.484 396.631Z" fill="white"/>
<path fill-rule="evenodd" clip-rule="evenodd" d="M1014.62 430.739L966.643 559.03L964.14 558.093L1012.11 429.802L1014.62 430.739Z" fill="white"/>
<path fill-rule="evenodd" clip-rule="evenodd" d="M966.052 558.332L714.043 672.423L712.941 669.988L964.95 555.897L966.052 558.332Z" fill="white"/>
<path d="M738.075 384.834C745.455 384.834 751.438 390.817 751.438 398.198C751.438 405.578 745.455 411.562 738.075 411.562C730.694 411.562 724.711 405.578 724.711 398.198C724.711 390.817 730.694 384.834 738.075 384.834Z" fill="white"/>
<path d="M738.075 384.834C745.455 384.834 751.438 390.817 751.438 398.198C751.438 405.578 745.455 411.562 738.075 411.562C730.694 411.562 724.711 405.578 724.711 398.198C724.711 390.817 730.694 384.834 738.075 384.834Z" fill="white"/>
<path d="M1010.69 422.252C1018.07 422.252 1024.06 428.235 1024.06 435.616C1024.06 442.996 1018.07 448.979 1010.69 448.979C1003.31 448.979 997.329 442.996 997.329 435.616C997.329 428.235 1003.31 422.252 1010.69 422.252Z" fill="white"/>
<path d="M1010.69 422.252C1018.07 422.252 1024.06 428.235 1024.06 435.616C1024.06 442.996 1018.07 448.979 1010.69 448.979C1003.31 448.979 997.329 442.996 997.329 435.616C997.329 428.235 1003.31 422.252 1010.69 422.252Z" fill="white"/>
<path d="M965.256 542.525C972.637 542.525 978.62 548.508 978.62 555.889C978.62 563.269 972.637 569.252 965.256 569.252C957.876 569.252 951.893 563.269 951.893 555.889C951.893 548.508 957.876 542.525 965.256 542.525Z" fill="white"/>
<path d="M965.256 542.525C972.637 542.525 978.62 548.508 978.62 555.889C978.62 563.269 972.637 569.252 965.256 569.252C957.876 569.252 951.893 563.269 951.893 555.889C951.893 548.508 957.876 542.525 965.256 542.525Z" fill="white"/>
<path fill-rule="evenodd" clip-rule="evenodd" d="M738.876 396.09L860.3 96.073L862.778 97.0757L741.354 397.093L738.876 396.09Z" fill="white"/>
<path fill-rule="evenodd" clip-rule="evenodd" d="M734.553 398.307L964.382 174.418L966.247 176.333L736.418 400.221L734.553 398.307Z" fill="white"/>
<path fill-rule="evenodd" clip-rule="evenodd" d="M963.961 557.002L863.023 110.668L865.63 110.079L966.568 556.412L963.961 557.002Z" fill="white" fill-opacity="0.5"/>
<path fill-rule="evenodd" clip-rule="evenodd" d="M713.976 672.492L1001.6 434.13L1003.31 436.188L715.682 674.55L713.976 672.492Z" fill="white" fill-opacity="0.5"/>
<path fill-rule="evenodd" clip-rule="evenodd" d="M608.835 415.298L965.458 172.367L966.963 174.576L610.34 417.506L608.835 415.298Z" fill="white" fill-opacity="0.5"/>
<path fill-rule="evenodd" clip-rule="evenodd" d="M857.153 94.1036L968.656 173.647L967.104 175.823L855.601 96.2794L857.153 94.1036Z" fill="white"/>
<path fill-rule="evenodd" clip-rule="evenodd" d="M967.83 174.038L1012.81 446.988L1010.17 447.423L965.192 174.472L967.83 174.038Z" fill="white"/>
<path d="M847.94 95.6972C849.85 88.5682 857.178 84.3375 864.307 86.2477C871.436 88.1579 875.667 95.4857 873.757 102.615C871.846 109.744 864.519 113.975 857.39 112.064C850.26 110.154 846.03 102.826 847.94 95.6972Z" fill="white"/>
<path d="M847.94 95.6972C849.85 88.5682 857.178 84.3375 864.307 86.2477C871.436 88.1579 875.667 95.4857 873.757 102.615C871.846 109.744 864.519 113.975 857.39 112.064C850.26 110.154 846.03 102.826 847.94 95.6972Z" fill="white"/>
<path d="M952.354 170.715C954.264 163.586 961.592 159.355 968.721 161.266C975.85 163.176 980.081 170.504 978.171 177.633C976.26 184.762 968.933 188.992 961.804 187.082C954.675 185.172 950.444 177.844 952.354 170.715Z" fill="white"/>
<path d="M952.354 170.715C954.264 163.586 961.592 159.355 968.721 161.266C975.85 163.176 980.081 170.504 978.171 177.633C976.26 184.762 968.933 188.992 961.804 187.082C954.675 185.172 950.444 177.844 952.354 170.715Z" fill="white"/>
<path fill-rule="evenodd" clip-rule="evenodd" d="M688.922 878.032L913.282 908.234L912.994 910.372L688.634 880.17L688.922 878.032Z" fill="white"/>
<path fill-rule="evenodd" clip-rule="evenodd" d="M687.231 877.837L873.991 1005.78L872.772 1007.56L686.012 879.616L687.231 877.837Z" fill="white"/>
<path fill-rule="evenodd" clip-rule="evenodd" d="M914.148 905.366L875.426 1008.92L873.405 1008.16L912.128 904.611L914.148 905.366Z" fill="white"/>
<path d="M690.936 868.314C696.893 868.314 701.722 873.144 701.722 879.101C701.722 885.058 696.893 889.887 690.936 889.887C684.979 889.887 680.149 885.058 680.149 879.101C680.149 873.144 684.979 868.314 690.936 868.314Z" fill="white"/>
<path d="M690.936 868.314C696.893 868.314 701.722 873.144 701.722 879.101C701.722 885.058 696.893 889.887 690.936 889.887C684.979 889.887 680.149 885.058 680.149 879.101C680.149 873.144 684.979 868.314 690.936 868.314Z" fill="white"/>
<path d="M910.982 898.517C916.939 898.517 921.768 903.346 921.768 909.303C921.768 915.261 916.939 920.09 910.982 920.09C905.025 920.09 900.195 915.261 900.195 909.303C900.195 903.346 905.025 898.517 910.982 898.517Z" fill="white"/>
<path d="M910.982 898.517C916.939 898.517 921.768 903.346 921.768 909.303C921.768 915.261 916.939 920.09 910.982 920.09C905.025 920.09 900.195 915.261 900.195 909.303C900.195 903.346 905.025 898.517 910.982 898.517Z" fill="white"/>
<path d="M874.307 995.595C880.264 995.595 885.094 1000.42 885.094 1006.38C885.094 1012.34 880.264 1017.17 874.307 1017.17C868.35 1017.17 863.521 1012.34 863.521 1006.38C863.521 1000.42 868.35 995.595 874.307 995.595Z" fill="white"/>
<path d="M874.307 995.595C880.264 995.595 885.094 1000.42 885.094 1006.38C885.094 1012.34 880.264 1017.17 874.307 1017.17C868.35 1017.17 863.521 1012.34 863.521 1006.38C863.521 1000.42 868.35 995.595 874.307 995.595Z" fill="white"/>
<path fill-rule="evenodd" clip-rule="evenodd" d="M910.475 910.596L1004.11 704.483L1006.07 705.375L912.44 911.489L910.475 910.596Z" fill="white"/>
<path fill-rule="evenodd" clip-rule="evenodd" d="M909.801 912.16L1086.18 770.241L1087.53 771.922L911.154 913.841L909.801 912.16Z" fill="white"/>
<path fill-rule="evenodd" clip-rule="evenodd" d="M1086.6 770.843L1179.64 531.382L1181.65 532.163L1088.61 771.624L1086.6 770.843Z" fill="white"/>
<path fill-rule="evenodd" clip-rule="evenodd" d="M1002.7 704.637L963.874 560.097L965.957 559.537L1004.79 704.077L1002.7 704.637Z" fill="white"/>
<path fill-rule="evenodd" clip-rule="evenodd" d="M964.79 555.879L1180.52 530.701L1180.77 532.844L965.04 558.022L964.79 555.879Z" fill="white"/>
<path fill-rule="evenodd" clip-rule="evenodd" d="M999.815 705.741L1179.9 530.999L1181.4 532.547L1001.32 707.289L999.815 705.741Z" fill="white" fill-opacity="0.5"/>
<path fill-rule="evenodd" clip-rule="evenodd" d="M873.51 1003.5L1086.56 770.506L1088.15 771.962L875.102 1004.95L873.51 1003.5Z" fill="white" fill-opacity="0.5"/>
<path fill-rule="evenodd" clip-rule="evenodd" d="M1088.82 770.711L968.015 552.823L966.128 553.869L1086.94 771.757L1088.82 770.711Z" fill="white" fill-opacity="0.5"/>
<path fill-rule="evenodd" clip-rule="evenodd" d="M1001.61 702.826L1089.59 769.77L1088.29 771.487L1000.3 704.543L1001.61 702.826Z" fill="white"/>
<path d="M901.752 905.867C903.47 900.162 909.487 896.931 915.191 898.65C920.895 900.368 924.126 906.385 922.408 912.089C920.69 917.793 914.673 921.024 908.969 919.306C903.265 917.588 900.034 911.571 901.752 905.867Z" fill="white"/>
<path d="M901.752 905.867C903.47 900.162 909.487 896.931 915.191 898.65C920.895 900.368 924.126 906.385 922.408 912.089C920.69 917.793 914.673 921.024 908.969 919.306C903.265 917.588 900.034 911.571 901.752 905.867Z" fill="white"/>
<path d="M994.138 703.883C995.856 698.179 1001.87 694.948 1007.58 696.667C1013.28 698.385 1016.51 704.402 1014.79 710.106C1013.08 715.81 1007.06 719.041 1001.35 717.323C995.65 715.605 992.419 709.588 994.138 703.883Z" fill="white"/>
<path d="M994.138 703.883C995.856 698.179 1001.87 694.948 1007.58 696.667C1013.28 698.385 1016.51 704.402 1014.79 710.106C1013.08 715.81 1007.06 719.041 1001.35 717.323C995.65 715.605 992.419 709.588 994.138 703.883Z" fill="white"/>
<path d="M1076.51 766.999C1078.23 761.295 1084.25 758.064 1089.95 759.782C1095.66 761.501 1098.89 767.518 1097.17 773.222C1095.45 778.926 1089.43 782.157 1083.73 780.439C1078.03 778.72 1074.8 772.704 1076.51 766.999Z" fill="white"/>
<path d="M1076.51 766.999C1078.23 761.295 1084.25 758.064 1089.95 759.782C1095.66 761.501 1098.89 767.518 1097.17 773.222C1095.45 778.926 1089.43 782.157 1083.73 780.439C1078.03 778.72 1074.8 772.704 1076.51 766.999Z" fill="white"/>
<path d="M957.239 554.054C958.957 548.35 964.974 545.118 970.678 546.837C976.382 548.555 979.614 554.572 977.895 560.276C976.177 565.98 970.16 569.211 964.456 567.493C958.752 565.775 955.521 559.758 957.239 554.054Z" fill="white"/>
<path d="M957.239 554.054C958.957 548.35 964.974 545.118 970.678 546.837C976.382 548.555 979.614 554.572 977.895 560.276C976.177 565.98 970.16 569.211 964.456 567.493C958.752 565.775 955.521 559.758 957.239 554.054Z" fill="white"/>
<path d="M1170.81 528.166C1172.53 522.462 1178.55 519.231 1184.25 520.949C1189.96 522.667 1193.19 528.684 1191.47 534.388C1189.75 540.092 1183.73 543.323 1178.03 541.605C1172.33 539.887 1169.09 533.87 1170.81 528.166Z" fill="white"/>
<path d="M1170.81 528.166C1172.53 522.462 1178.55 519.231 1184.25 520.949C1189.96 522.667 1193.19 528.684 1191.47 534.388C1189.75 540.092 1183.73 543.323 1178.03 541.605C1172.33 539.887 1169.09 533.87 1170.81 528.166Z" fill="white"/>
<path fill-rule="evenodd" clip-rule="evenodd" d="M875.941 1005.25L737.605 1184.46L735.898 1183.14L874.234 1003.94L875.941 1005.25Z" fill="white"/>
<path fill-rule="evenodd" clip-rule="evenodd" d="M876.956 1003.89L672.771 1101.65L671.839 1099.71L876.024 1001.94L876.956 1003.89Z" fill="white"/>
<path fill-rule="evenodd" clip-rule="evenodd" d="M739.655 1186.64L669.339 1101.33L671.004 1099.96L741.32 1185.27L739.655 1186.64Z" fill="white"/>
<path fill-rule="evenodd" clip-rule="evenodd" d="M670.066 1101.2L692.019 878.995L694.166 879.207L672.213 1101.41L670.066 1101.2Z" fill="white"/>
<path d="M883.35 1011.86C880.371 1017.02 873.775 1018.78 868.615 1015.81C863.456 1012.83 861.689 1006.23 864.667 1001.07C867.646 995.912 874.243 994.144 879.402 997.123C884.561 1000.1 886.329 1006.7 883.35 1011.86Z" fill="white"/>
<path d="M883.35 1011.86C880.371 1017.02 873.775 1018.78 868.615 1015.81C863.456 1012.83 861.689 1006.23 864.667 1001.07C867.646 995.912 874.243 994.144 879.402 997.123C884.561 1000.1 886.329 1006.7 883.35 1011.86Z" fill="white"/>
<path d="M747.171 1187.32C744.193 1192.48 737.596 1194.25 732.437 1191.27C727.278 1188.29 725.51 1181.69 728.489 1176.53C731.467 1171.38 738.064 1169.61 743.223 1172.59C748.382 1175.56 750.15 1182.16 747.171 1187.32Z" fill="white"/>
<path d="M747.171 1187.32C744.193 1192.48 737.596 1194.25 732.437 1191.27C727.278 1188.29 725.51 1181.69 728.489 1176.53C731.467 1171.38 738.064 1169.61 743.223 1172.59C748.382 1175.56 750.15 1182.16 747.171 1187.32Z" fill="white"/>
<path d="M681.435 1107.02C678.456 1112.18 671.86 1113.95 666.7 1110.97C661.541 1107.99 659.774 1101.39 662.752 1096.23C665.731 1091.07 672.328 1089.31 677.487 1092.29C682.646 1095.26 684.414 1101.86 681.435 1107.02Z" fill="white"/>
<path d="M681.435 1107.02C678.456 1112.18 671.86 1113.95 666.7 1110.97C661.541 1107.99 659.774 1101.39 662.752 1096.23C665.731 1091.07 672.328 1089.31 677.487 1092.29C682.646 1095.26 684.414 1101.86 681.435 1107.02Z" fill="white"/>
<path fill-rule="evenodd" clip-rule="evenodd" d="M875.16 1007.88L1035.87 1213.83L1034.17 1215.16L873.459 1009.2L875.16 1007.88Z" fill="white"/>
<path fill-rule="evenodd" clip-rule="evenodd" d="M875.354 1003.96L939.102 1254.97L937.011 1255.5L873.263 1004.49L875.354 1003.96Z" fill="white"/>
<path fill-rule="evenodd" clip-rule="evenodd" d="M671.84 1100.27L1024.57 1209.85L1023.93 1211.91L671.2 1102.33L671.84 1100.27Z" fill="white" fill-opacity="0.5"/>
<path fill-rule="evenodd" clip-rule="evenodd" d="M691.999 878.921L742.538 1176.17L740.412 1176.54L689.872 879.282L691.999 878.921Z" fill="white" fill-opacity="0.5"/>
<path fill-rule="evenodd" clip-rule="evenodd" d="M914.214 909.223L940.102 1256.55L937.95 1256.71L912.063 909.383L914.214 909.223Z" fill="white" fill-opacity="0.5"/>
<path fill-rule="evenodd" clip-rule="evenodd" d="M1038.52 1212.43L937.917 1258.27L937.023 1256.3L1037.62 1210.46L1038.52 1212.43Z" fill="white"/>
<path fill-rule="evenodd" clip-rule="evenodd" d="M937.977 1257.53L729.028 1178.82L729.788 1176.8L938.738 1255.51L937.977 1257.53Z" fill="white"/>
<path d="M1041.12 1205.34C1045.34 1209.56 1045.34 1216.39 1041.12 1220.6C1036.91 1224.81 1030.08 1224.81 1025.87 1220.6C1021.66 1216.39 1021.66 1209.56 1025.87 1205.34C1030.08 1201.13 1036.91 1201.13 1041.12 1205.34Z" fill="white"/>
<path d="M1041.12 1205.34C1045.34 1209.56 1045.34 1216.39 1041.12 1220.6C1036.91 1224.81 1030.08 1224.81 1025.87 1220.6C1021.66 1216.39 1021.66 1209.56 1025.87 1205.34C1030.08 1201.13 1036.91 1201.13 1041.12 1205.34Z" fill="white"/>
<path d="M946.545 1248.06C950.757 1252.27 950.757 1259.1 946.545 1263.31C942.332 1267.52 935.503 1267.52 931.29 1263.31C927.078 1259.1 927.078 1252.27 931.29 1248.06C935.503 1243.84 942.332 1243.84 946.545 1248.06Z" fill="white"/>
<path d="M946.545 1248.06C950.757 1252.27 950.757 1259.1 946.545 1263.31C942.332 1267.52 935.503 1267.52 931.29 1263.31C927.078 1259.1 927.078 1252.27 931.29 1248.06C935.503 1243.84 942.332 1243.84 946.545 1248.06Z" fill="white"/>
</svg>
