<svg width="69" height="40" viewBox="0 0 69 42" fill="none" xmlns="http://www.w3.org/2000/svg">
<path d="M1 25.2066V24.428L2.97086 22.9141C2.97086 22.9141 2.97086 21.4002 2.97086 21.2272C2.97086 21.0542 2.97086 20.1026 2.97086 20.1026L2.60268 19.4754C2.60268 19.4754 6.11124 17.0747 6.2845 16.9233C6.45776 16.7503 9.10001 15.2364 9.10001 15.2364L11.1575 14.5876C11.1575 14.5876 13.5182 14.4794 13.908 14.5876C14.2979 14.6957 17.6548 14.6957 17.6548 14.6957L18.7161 14.0901L22.4196 12.2951L26.5562 11.1705H29.6316L33.5083 11.949H39.3776L44.3589 11.1705L46.0915 10.1756L47.9541 9.22399L46.1132 9.00772C46.1132 9.00772 46.5463 8.25076 46.5896 8.18588C46.633 8.12099 47.7592 7.51543 47.7592 7.51543L49.0803 6.75847H47.4343C47.4343 6.75847 48.4955 5.89337 48.6038 5.72035C48.7121 5.54734 49.4052 5.26618 49.4052 5.26618L50.683 5.00665L52.5888 4.05505L53.7584 2.433C53.7584 2.433 55.0578 1.97882 55.2744 1.97882C55.491 1.97882 56.0108 1.97882 56.2274 1.97882C56.4439 1.97882 57.6568 1.15698 57.6568 1.15698L58.6963 2.02208L60.9271 3.1467L63.2878 4.98503L64.0242 6.3908L67.0562 9.02934L67.8792 10.4568L67.3378 12.0139L66.6664 12.2302L65.5402 12.5113L64.5656 11.949L61.6635 11.2786L60.3207 10.5L58.0899 10.327L56.314 11.3435L54.4514 16.2529L54.1699 19.0428L53.7151 20.8379L53.0437 21.9625L58.8263 23.9306L62.9629 26.8503L66.2766 29.1428L66.3849 30.0295L67.8792 31.1974L68.2691 32.495L65.8218 32.8843L64.414 30.4621L63.0062 29.1212L58.9779 26.1582H57.007L56.4439 28.3426L54.2565 31.0244H53.1953L51.1161 32.2139V30.116L51.6792 29.6186H53.022L54.1482 28.5589L54.8196 27.6073V26.1582L52.2423 25.3796L48.6038 26.288L46.3947 25.8771L44.0124 26.9152C44.0124 26.9152 36.2805 25.4445 36.1073 25.3364C35.934 25.2282 33.53 24.4497 33.53 24.4497L32.4688 24.5578H31.8623L33.1185 27.3045L34.7862 29.7051L40.5688 32.5599L41.76 33.252L41.9332 33.7278L43.7308 34.4415L44.099 35.0687L42.1281 35.8473L40.5471 34.874C40.5471 34.874 38.4896 33.7062 38.338 33.6629C38.1648 33.598 35.7608 32.0841 35.7608 32.0841C35.7608 32.0841 32.2522 31.4353 32.2522 31.2839C32.2522 31.1109 30.173 28.494 30.0647 28.2993C29.9565 28.1047 28.0289 25.531 28.0289 25.531L26.8377 24.8389L25.6032 28.9265L22.961 32.8411L23.0693 34.2901L25.0835 38.4858L26.7728 40.2809L26.2746 40.8432H23.9139L22.8527 39.0481V38.1614L19.9072 33.0573V31.9327L20.4704 30.9595L21.7698 28.083L21.9864 26.2447C21.9864 26.2447 19.2359 23.1736 19.0626 22.9357C18.8893 22.7195 17.9364 19.0212 17.9364 19.0212V16.7936C17.9364 16.7936 17.1567 16.7936 16.9834 16.7287C16.8102 16.6638 14.7527 17.6154 14.7527 17.6154C14.4062 17.6154 14.4062 17.6154 14.4062 17.6154L11.9372 18.221L10.1829 19.2375L8.40696 20.5351L6.50108 20.2539L5.09332 21.4867L3.68557 23.909L2.36444 25.1201L1 25.2066Z" fill="#C1C6E5"/>
<path d="M1.00002 40.8432H68.2691M1 25.2066V24.428L2.97086 22.9141C2.97086 22.9141 2.97086 21.4002 2.97086 21.2272C2.97086 21.0542 2.97086 20.1026 2.97086 20.1026L2.60268 19.4754C2.60268 19.4754 6.11124 17.0747 6.2845 16.9233C6.45776 16.7503 9.10001 15.2364 9.10001 15.2364L11.1575 14.5876C11.1575 14.5876 13.5182 14.4794 13.908 14.5876C14.2979 14.6957 17.6548 14.6957 17.6548 14.6957L18.7161 14.0901L22.4196 12.2951L26.5562 11.1705H29.6316L33.5083 11.949H39.3776L44.3589 11.1705L46.0915 10.1756L47.9541 9.22399L46.1132 9.00772C46.1132 9.00772 46.5463 8.25076 46.5896 8.18588C46.633 8.12099 47.7592 7.51543 47.7592 7.51543L49.0803 6.75847H47.4343C47.4343 6.75847 48.4955 5.89337 48.6038 5.72035C48.7121 5.54734 49.4052 5.26618 49.4052 5.26618L50.683 5.00665L52.5888 4.05505L53.7584 2.433C53.7584 2.433 55.0578 1.97882 55.2744 1.97882C55.491 1.97882 56.0108 1.97882 56.2274 1.97882C56.4439 1.97882 57.6568 1.15698 57.6568 1.15698L58.6963 2.02208L60.9271 3.1467L63.2878 4.98503L64.0242 6.3908L67.0562 9.02934L67.8792 10.4568L67.3378 12.0139L66.6664 12.2302L65.5402 12.5113L64.5656 11.949L61.6635 11.2786L60.3207 10.5L58.0899 10.327L56.314 11.3435L54.4514 16.2529L54.1699 19.0428L53.7151 20.8379L53.0437 21.9625L58.8263 23.9306L62.9629 26.8503L66.2766 29.1428L66.3849 30.0295L67.8792 31.1974L68.2691 32.495L65.8218 32.8843L64.414 30.4621L63.0062 29.1212L58.9779 26.1582H57.007L56.4439 28.3426L54.2565 31.0244H53.1953L51.1161 32.2139V30.116L51.6792 29.6186H53.022L54.1482 28.5589L54.8196 27.6073V26.1582L52.2423 25.3796L48.6038 26.288L46.3947 25.8771L44.0124 26.9152C44.0124 26.9152 36.2805 25.4445 36.1073 25.3364C35.934 25.2282 33.53 24.4497 33.53 24.4497L32.4688 24.5578H31.8623L33.1185 27.3045L34.7862 29.7051L40.5688 32.5599L41.76 33.252L41.9332 33.7278L43.7308 34.4415L44.099 35.0687L42.1281 35.8473L40.5471 34.874C40.5471 34.874 38.4896 33.7062 38.338 33.6629C38.1648 33.598 35.7608 32.0841 35.7608 32.0841C35.7608 32.0841 32.2522 31.4353 32.2522 31.2839C32.2522 31.1109 30.173 28.494 30.0647 28.2993C29.9565 28.1047 28.0289 25.531 28.0289 25.531L26.8377 24.8389L25.6032 28.9265L22.961 32.8411L23.0693 34.2901L25.0835 38.4858L26.7728 40.2809L26.2746 40.8432H23.9139L22.8527 39.0481V38.1614L19.9072 33.0573V31.9327L20.4704 30.9595L21.7698 28.083L21.9864 26.2447C21.9864 26.2447 19.2359 23.1736 19.0626 22.9357C18.8893 22.7195 17.9364 19.0212 17.9364 19.0212V16.7936C17.9364 16.7936 17.1567 16.7936 16.9834 16.7287C16.8102 16.6638 14.7527 17.6154 14.7527 17.6154C14.4062 17.6154 14.4062 17.6154 14.4062 17.6154L11.9372 18.221L10.1829 19.2375L8.40696 20.5351L6.50108 20.2539L5.09332 21.4867L3.68557 23.909L2.36444 25.1201L1 25.2066Z" stroke="#C1C6E5" stroke-width="0.711842"/>
</svg>
