<svg width="69" height="40" viewBox="0 0 69 40" fill="none" xmlns="http://www.w3.org/2000/svg">
<path d="M44.0859 30.956C42.9666 30.1897 37.6165 27.3618 36.0858 26.457C34.8063 25.701 34.5199 24.9716 34.0028 23.6379C33.9146 23.4125 33.8441 23.187 33.7765 22.9645C32.8055 22.7965 32.1974 22.7316 31.8096 22.6992C31.3263 24.1758 30.6682 24.8817 30.0806 25.4976C30.508 25.9176 30.912 26.3804 31.3512 26.7886C32.2635 27.6374 32.7042 28.299 33.9146 28.722C35.272 29.1965 39.582 31.2699 40.8453 31.9183C41.1259 32.0627 41.6224 32.2484 41.8898 32.2823C42.4495 32.3515 42.3511 32.6374 42.4333 33.2504C42.5068 33.8075 42.9607 34.2731 43.4969 34.9156L46.8447 33.4818C45.9163 32.3736 45.3125 31.7974 44.0859 30.9575V30.956Z" fill="#F8F9FF"/>
<path d="M54.9946 25.0674H54.4437C54.1984 25.0703 53.9648 25.0718 53.7356 25.0718C53.9193 25.2545 54.1073 25.4476 54.3027 25.6554C54.7566 26.1387 53.2993 27.7848 52.4899 28.4877C52.1374 28.7942 52.4385 29.1258 51.6937 29.2613C51.1928 29.3512 50.498 29.4293 50.0441 29.6165L49.9192 33.1223C50.8902 32.8644 52.1139 32.6065 52.8675 31.8815C54.8976 29.9274 56.2212 28.8443 57.3758 26.488C57.5535 26.1269 57.6476 25.6996 57.6622 25.2383C56.9219 25.1086 55.6042 25.0689 54.9946 25.0689V25.0674Z" fill="#F8F9FF"/>
<path d="M67.1373 28.3126C66.5483 27.6465 63.0844 24.6167 61.7344 23.5911C59.3443 21.7756 56.255 20.8516 53.3229 19.991C54.3497 18.0384 54.7052 15.8088 55.2414 13.5527C55.4383 12.7275 55.6704 11.8963 56.1125 11.1713C56.5547 10.4463 57.3142 9.84062 58.0766 9.61515C60.6693 8.84739 59.6499 9.85536 63.8189 10.2739C64.3315 10.3254 64.6356 10.8825 65.1498 10.9237C66.4028 11.0254 66.8068 9.72125 66.9155 8.70739C66.9787 8.11205 66.1693 7.87037 65.7844 7.41207C64.6914 6.11085 63.5941 5.37256 62.6216 4.03892C61.2907 2.21309 59.2914 1.96847 57.1496 1.21986C56.5665 0.595044 55.76 0.101377 54.9124 0.00116989C54.8022 -0.0120928 54.7141 0.0895879 54.742 0.195689C54.8169 0.47568 54.9388 0.742407 55.0989 0.98261C54.6098 0.978189 54.1176 1.02535 53.6828 1.2405C52.6942 1.73269 51.801 2.80844 50.7404 3.11201C50.9505 3.21664 51.3266 3.21958 51.4573 3.23137C50.7816 3.96672 49.7254 4.16566 48.7735 4.46186C47.3147 4.91721 46.8535 5.26351 45.715 6.28622C47.0033 6.09906 47.6467 6.15064 48.0301 6.13885C47.4455 6.77251 46.7081 7.26176 45.8972 7.55354C46.332 7.90869 46.9431 8.14152 47.5278 8.22994C47.5278 8.22994 46.2453 9.28064 45.7664 9.54884C44.556 10.2267 43.0385 10.2768 41.643 10.3431C37.3565 10.548 33.0949 9.62399 28.804 9.51495C25.8102 9.43979 23.025 10.2901 21.1461 12.5727C16.275 11.0151 9.93185 12.7746 6.21824 16.5147C5.50578 17.2338 4.86089 18.0281 4.16165 18.762C2.92476 20.0617 1.51894 21.1699 0 22.0423C0.896085 22.8808 4.08086 22.1484 5.22226 21.7535C5.4999 21.6577 5.77167 21.5486 6.03902 21.4307C5.70703 21.8802 5.32656 22.2943 4.89909 22.6539C6.3813 22.228 7.7695 21.5133 9.00492 20.5878C11.3979 18.7959 12.1735 16.777 14.3124 15.7396C16.4938 14.68 18.264 14.1893 20.1531 14.2497C19.6287 15.5848 19.5523 17.1071 19.8696 18.5174C20.2706 20.3034 20.7378 21.6046 21.8806 22.9191C22.3257 23.4894 23.0367 24.2483 23.1968 24.8908C23.3966 25.6925 23.0499 26.2142 22.2435 27.5611C21.8145 28.2787 20.8817 29.574 21.0169 30.4332C21.1285 31.139 23.6464 34.9808 24.8039 36.6047C25.0096 36.8921 25.2138 36.8965 25.3313 37.0144C25.5487 37.231 25.8675 37.3489 25.6486 38.3702C25.534 38.9036 25.8352 39.5594 26.0864 40H29.6002C29.631 38.8491 28.4235 37.4536 27.7845 36.5119C26.956 35.2903 24.3529 30.5481 24.3999 30.0073C24.4528 29.4016 25.1198 28.8962 25.5619 28.5012C26.8723 27.3297 28.5072 26.4544 29.7544 25.1915C29.7559 25.1929 29.7588 25.1944 29.7603 25.1974C30.3567 24.5725 30.9693 23.9153 31.4261 22.4549C31.4673 22.3223 31.5965 22.2427 31.739 22.2516C32.1298 22.281 32.7761 22.3429 33.8691 22.533C34.2716 22.6023 34.7945 22.7113 35.3645 22.8425C36.5441 23.1004 37.7134 23.4054 38.868 23.7591C41.1553 24.4591 43.5541 24.9233 45.9339 24.6875C46.7227 24.6094 47.5101 24.4458 48.2667 24.1982C49.9722 24.4532 51.447 24.5681 52.7236 24.6226C53.2744 24.633 53.8283 24.6315 54.4438 24.6285C54.4438 24.6285 56.7413 24.5976 57.7813 24.8098C58.2058 24.8967 58.579 24.9748 58.8889 25.1355C60.5827 26.0137 62.5159 27.9383 63.5515 28.765C63.9261 29.0642 64.0818 29.0362 64.2698 29.1246C65.1321 29.5298 64.7517 29.9867 64.8486 30.5172C65.0249 31.4927 65.4965 32.2222 65.4965 32.2222L69 31.3129C68.7591 30.134 67.6955 28.9463 67.1373 28.3141V28.3126Z" fill="#F8F9FF"/>
</svg>
